<svg id="Capa_1" data-name="Capa 1" xmlns="http://www.w3.org/2000/svg" xmlns:xlink="http://www.w3.org/1999/xlink" viewBox="0 0 383.15 389.7"><defs><style>.cls-1{fill:#77008f;}.cls-2{fill:#a9a8c6;}.cls-3{fill:#1c1a2a;}.cls-4{fill:#e1dfea;}.cls-5{fill:#7c7ca0;}.cls-6{fill:url(#Degradado_sin_nombre_2);}.cls-7{fill:#090000;}.cls-8{fill:#1a2738;}.cls-9{fill:#f2f8ff;}.cls-10{fill:#717f90;}.cls-11{fill:#8140ff;}.cls-12{fill:#a68efe;}.cls-13{fill:#d0b8ff;}.cls-14{fill:#ff73b5;}.cls-15{fill:#a135bc;}.cls-16{fill:#d2448d;}.cls-17{fill:#fbfafc;}.cls-18{fill:#cdc3e2;}.cls-19{fill:#aa9bc3;}.cls-20{fill:#b4aad1;}.cls-21{fill:#c42979;}.cls-22{fill:#f1519d;}.cls-23{fill:#ece7f2;}.cls-24{fill:#1a293b;}.cls-25{fill:#3f4f5d;}.cls-26{fill:#9b346c;}.cls-27{fill:#fac152;}.cls-28{fill:#a23042;}.cls-29{fill:#fde86b;}.cls-30{fill:#ef4f25;}.cls-31{fill:#fa7800;}.cls-32{fill:#c2485c;}.cls-33{fill:#ffec8e;}.cls-34{fill:#dbd0f2;}.cls-35{fill:#d64a78;}.cls-36{fill:#f50054;}.cls-37{fill:#5f26cf;}.cls-38{fill:#e95950;}.cls-39{fill:#f5b538;}.cls-40{fill:#f8e150;}.cls-41{fill:#aa682d;}.cls-42{fill:#a482f4;}.cls-43{fill:#c6b3eb;}.cls-44{fill:#b0a7c2;}.cls-45{fill:#f0e0dc;}.cls-46{fill:#821e4d;}.cls-47{fill:#ad3970;}.cls-48{fill:#f3e187;}.cls-49{fill:#f7b23b;}.cls-50{fill:#fbc959;}</style><linearGradient id="Degradado_sin_nombre_2" x1="-593.75" y1="1011.4" x2="-592.76" y2="1011.4" gradientTransform="matrix(357.1, 0, 0, -206.29, 212044.51, 208880.1)" gradientUnits="userSpaceOnUse"><stop offset="0" stop-color="#ffc485"/><stop offset="1" stop-color="#d03e3e"/></linearGradient></defs><g id="Grupo_6" data-name="Grupo 6"><path id="Trazado_211" data-name="Trazado 211" class="cls-1" d="M167.72,255.53,128.91,278a9.53,9.53,0,0,1-8.64,0h0c-2.38-1.38-2.38-3.61,0-5l38.81-22.42a9.53,9.53,0,0,1,8.64,0h0C170.11,251.92,170.11,254.15,167.72,255.53Z"/><path id="Trazado_212" data-name="Trazado 212" class="cls-1" d="M226.66,199.23l-73.43,42.42a9.53,9.53,0,0,1-8.64,0h0c-2.39-1.38-2.39-3.61,0-5L218,194.23a9.53,9.53,0,0,1,8.64,0h0C229.05,195.61,229.05,197.85,226.66,199.23Z"/><path id="Trazado_213" data-name="Trazado 213" class="cls-1" d="M268.84,219.38,195.4,261.8a9.53,9.53,0,0,1-8.64,0h0c-2.38-1.38-2.38-3.61,0-5l73.44-42.42a9.53,9.53,0,0,1,8.64,0h0C271.23,215.77,271.23,218,268.84,219.38Z"/><path id="Trazado_214" data-name="Trazado 214" class="cls-1" d="M193.08,196.36l-21.49,12.42a9.6,9.6,0,0,1-8.64,0h0c-2.39-1.38-2.39-3.62,0-5l21.49-12.42a9.6,9.6,0,0,1,8.64,0h0C195.47,192.75,195.47,195,193.08,196.36Z"/><path id="Trazado_215" data-name="Trazado 215" class="cls-1" d="M344.86,280.7l-73.44,42.42a9.51,9.51,0,0,1-8.63,0h0c-2.39-1.38-2.39-3.61,0-5l73.43-42.42a9.53,9.53,0,0,1,8.64,0h0C347.24,277.09,347.24,279.32,344.86,280.7Z"/><path id="Trazado_216" data-name="Trazado 216" class="cls-1" d="M311.28,277.84l-21.5,12.41a9.53,9.53,0,0,1-8.64,0h0c-2.38-1.37-2.38-3.61,0-5l21.5-12.42a9.53,9.53,0,0,1,8.64,0h0C313.66,274.23,313.66,276.46,311.28,277.84Z"/><path id="Trazado_217" data-name="Trazado 217" class="cls-1" d="M235.54,281l-38.81,22.42a9.53,9.53,0,0,1-8.64,0h0c-2.38-1.38-2.38-3.61,0-5L226.9,276a9.6,9.6,0,0,1,8.64,0h0C237.93,277.38,237.93,279.62,235.54,281Z"/><path id="Trazado_218" data-name="Trazado 218" class="cls-1" d="M294.48,224.69,221.05,267.1a9.53,9.53,0,0,1-8.64,0h0c-2.39-1.38-2.39-3.61,0-5l73.44-42.42a9.51,9.51,0,0,1,8.63,0h0C296.87,221.07,296.87,223.31,294.48,224.69Z"/><path id="Trazado_219" data-name="Trazado 219" class="cls-1" d="M215.19,248.23l-73.44,42.42a9.53,9.53,0,0,1-8.64,0h0c-2.38-1.37-2.38-3.61,0-5l73.44-42.43a9.53,9.53,0,0,1,8.64,0h0C217.57,244.62,217.57,246.85,215.19,248.23Z"/><path id="Trazado_220" data-name="Trazado 220" class="cls-1" d="M260.9,221.83l-21.5,12.41a9.51,9.51,0,0,1-8.63,0h0c-2.39-1.38-2.39-3.61,0-5l21.49-12.42a9.6,9.6,0,0,1,8.64,0h0C263.29,218.21,263.29,220.45,260.9,221.83Z"/><path id="Trazado_221" data-name="Trazado 221" class="cls-1" d="M150,179.11,80.52,219.25a9,9,0,0,1-8.17,0h0c-2.25-1.31-2.25-3.42,0-4.73l69.48-40.13a9,9,0,0,1,8.17,0h0C152.26,175.69,152.26,177.81,150,179.11Z"/><path id="Trazado_222" data-name="Trazado 222" class="cls-1" d="M189.9,198.18l-69.47,40.13a9,9,0,0,1-8.18,0h0c-2.26-1.3-2.26-3.41,0-4.72l69.47-40.13a9,9,0,0,1,8.18,0h0C192.16,194.76,192.16,196.88,189.9,198.18Z"/><path id="Trazado_223" data-name="Trazado 223" class="cls-1" d="M233.15,173.2l-20.34,11.74a9,9,0,0,1-8.17,0h0c-2.26-1.3-2.26-3.42,0-4.72L225,168.47a9,9,0,0,1,8.17,0h0C235.4,169.78,235.4,171.89,233.15,173.2Z"/><path id="Trazado_224" data-name="Trazado 224" class="cls-1" d="M118.23,176.4,97.9,188.15a9,9,0,0,1-8.18,0h0c-2.26-1.3-2.26-3.41,0-4.72l20.34-11.75a9,9,0,0,1,8.17,0h0C120.49,173,120.49,175.1,118.23,176.4Z"/><path id="Trazado_225" data-name="Trazado 225" class="cls-2" d="M14.38,209.37a15.52,15.52,0,0,0,4.7,3.9L231.63,336.05a27.1,27.1,0,0,0,8,3.06,42.16,42.16,0,0,0,8.6.92,33.29,33.29,0,0,0,16.61-4L366,277.64c2.85-1.65,5.95-4.5,6.7-7.71a7,7,0,0,0,.17-1.64v15.08c0,4.15-3.2,7.47-6.87,9.59L264.84,351.39a27.19,27.19,0,0,1-8,3.05c-8.21,1.76-18,1.13-25.22-3.05L19.08,228.6a21.85,21.85,0,0,1-2.66-1.81c-2.31-1.83-4.2-4.9-4.2-7.84h0V203.68h0A10,10,0,0,0,14.38,209.37Z"/><path id="Trazado_226" data-name="Trazado 226" class="cls-3" d="M324,306.61a1.81,1.81,0,0,1,1.67-.21,1.68,1.68,0,0,1,.82,1.65v1.08a5.51,5.51,0,0,1-2.5,4.32l-17.1,9.88a1.52,1.52,0,0,1-2.15-.13,1.54,1.54,0,0,1-.35-1.3v-1.08a5.51,5.51,0,0,1,2.5-4.32Z"/><path id="Trazado_227" data-name="Trazado 227" class="cls-3" d="M286,328.27c2.38-2.42,4.67-1.46,4.6,1-.1,3.75-3.81,7.42-5.83,6.16a2.16,2.16,0,0,1-.69-.75,3.22,3.22,0,0,1-.27-2,7.37,7.37,0,0,1,.71-2.37h0a8.21,8.21,0,0,0,.52-.91A7.79,7.79,0,0,1,286,328.27Z"/><path id="Trazado_228" data-name="Trazado 228" class="cls-4" d="M18.51,208.44c1.74,2.1,3.14,2.66,9.26,6.24.11.06,207.13,119.69,208.21,120.22a28.53,28.53,0,0,0,12.27,2.58l0,2.55a42.16,42.16,0,0,1-8.6-.92,26.93,26.93,0,0,1-8-3.06L19.08,213.28a15.66,15.66,0,0,1-4.7-3.9,10,10,0,0,1-2.16-5.7,6.66,6.66,0,0,1,.16-1.89c.75-3.21,3.85-6.06,6.7-7.7l101.15-58.42a33.43,33.43,0,0,1,16.6-4l0,2.56a31.22,31.22,0,0,0-6.54.67c-4.38.93-6.49,2.26-9.75,4.21s7.51-4.4-38,21.87c-7.4,4.28-14.77,8.64-22.16,12.91s-14.84,8.45-22.23,12.78c-3.08,1.8-6.15,3.63-9.24,5.37a85.18,85.18,0,0,0-8.71,5.2C16.36,200.35,15.35,204.65,18.51,208.44Z"/><path id="Trazado_229" data-name="Trazado 229" class="cls-4" d="M69.51,250.52l1.69-1L52.56,238.77l-1.7,1Z"/><path id="Trazado_230" data-name="Trazado 230" class="cls-5" d="M71.2,251.9v-2.36l-1.69,1v2.35Z"/><path id="Trazado_231" data-name="Trazado 231" class="cls-5" d="M69.51,252.87v-2.35L50.86,239.75v2.35Z"/><path id="Trazado_232" data-name="Trazado 232" class="cls-3" d="M275.08,338.21h0a1.45,1.45,0,0,0,.66-1.11h0c0-.4-.3-.56-.66-.35h0a1.41,1.41,0,0,0-.65,1.11h0C274.43,338.26,274.72,338.41,275.08,338.21Z"/><path id="Trazado_233" data-name="Trazado 233" class="cls-3" d="M360.56,292.37h0a2.24,2.24,0,0,0,1-1.72V285.8c0-.62-.46-.86-1-.54h0a2.24,2.24,0,0,0-1,1.72v4.84C359.54,292.44,360,292.69,360.56,292.37Z"/><path id="Trazado_234" data-name="Trazado 234" class="cls-3" d="M356.49,294.72h0a2.24,2.24,0,0,0,1-1.72v-4.85c0-.62-.46-.87-1-.54h0a2.24,2.24,0,0,0-1,1.72v4.84C355.47,294.8,355.93,295,356.49,294.72Z"/><path id="Trazado_235" data-name="Trazado 235" class="cls-3" d="M352.42,297.07h0a2.21,2.21,0,0,0,1-1.72V290.5c0-.62-.46-.86-1-.54h0a2.24,2.24,0,0,0-1,1.72v4.84C351.4,297.15,351.86,297.39,352.42,297.07Z"/><path id="Trazado_236" data-name="Trazado 236" class="cls-3" d="M348.35,299.42h0a2.21,2.21,0,0,0,1-1.72v-4.85c0-.62-.46-.87-1-.54h0a2.19,2.19,0,0,0-1,1.72v4.84C347.34,299.5,347.79,299.74,348.35,299.42Z"/><path id="Trazado_237" data-name="Trazado 237" class="cls-3" d="M344.29,301.77h0a2.23,2.23,0,0,0,1-1.72V295.2c0-.62-.46-.86-1-.54h0a2.21,2.21,0,0,0-1,1.72v4.84C343.27,301.85,343.73,302.09,344.29,301.77Z"/><path id="Trazado_238" data-name="Trazado 238" class="cls-3" d="M340.22,304.12h0a2.2,2.2,0,0,0,1-1.72v-4.85c0-.62-.45-.86-1-.54h0a2.21,2.21,0,0,0-1,1.72v4.84C339.2,304.2,339.66,304.44,340.22,304.12Z"/><path id="Trazado_239" data-name="Trazado 239" class="cls-4" d="M366,277.64,264.84,336.05a33.29,33.29,0,0,1-16.61,4l0-2.55a29.5,29.5,0,0,0,11.14-2.09,37.84,37.84,0,0,0,5.16-2.8c3.3-2-7.51,4.41,38-21.87,7.4-4.28,14.76-8.63,22.16-12.9s14.85-8.46,22.23-12.78c3.08-1.81,6.14-3.63,9.25-5.38,6.12-3.45,9-4.8,10.9-7.52,2.47-3.56,1.9-8.27-4.21-11.88-.24-.15-212.8-123-213.76-123.44a28.62,28.62,0,0,0-12.29-2.58l0-2.55a43,43,0,0,1,8.61.91,27.1,27.1,0,0,1,8,3.06L366,258.45a15.79,15.79,0,0,1,4.71,3.89,10.07,10.07,0,0,1,2.16,6,7.56,7.56,0,0,1-.18,1.64C371.94,273.14,368.84,276,366,277.64Z"/><path id="Trazado_240" data-name="Trazado 240" class="cls-4" d="M153,139.07c-2.47-1.42-3.84-2.22-3.92-2.25a28.87,28.87,0,0,0-12.28-2.58,31.91,31.91,0,0,0-6.54.68c-4.38.93-6.5,2.26-9.75,4.21-3.07,1.85,6.08-3.55-29.27,16.84l-8.71,5c-7.39,4.29-14.77,8.64-22.15,12.91l-6.1,3.49c-5.38,3.08-10.78,6.15-16.14,9.29-3.07,1.81-6.14,3.63-9.23,5.38a82.38,82.38,0,0,0-8.71,5.2c-3.84,3.09-4.87,7.38-1.71,11.18,1.75,2.1,3.15,2.66,9.26,6.24l89.91,51.93C173.73,299,235.38,334.61,236,334.9a28.46,28.46,0,0,0,12.26,2.58,29.45,29.45,0,0,0,11.13-2.09,36.23,36.23,0,0,0,5.16-2.8c3.3-2-7.51,4.4,38-21.86,7.4-4.29,14.77-8.64,22.17-12.91s14.84-8.46,22.23-12.78c3.07-1.8,6.14-3.63,9.24-5.38,6.13-3.45,9-4.79,10.9-7.52,2.39-3.42,1.95-7.9-3.52-11.45-.22-.15-.45-.29-.69-.43S182.09,155.8,153,139.07Z"/><path id="Trazado_241" data-name="Trazado 241" class="cls-6" d="M363.53,260.69c5.47,3.55,5.91,8,3.52,11.45-1.89,2.73-4.77,4.08-10.9,7.52-3.1,1.75-6.17,3.58-9.24,5.38-7.39,4.32-14.82,8.51-22.23,12.78s-14.77,8.63-22.17,12.91c-45.48,26.27-34.67,19.88-38,21.87a38.34,38.34,0,0,1-5.16,2.8c-7.11,3-16.83,2.72-23.4-.5-1-.48-181-104.49-208.22-120.22-6.11-3.57-7.51-4.14-9.26-6.24-3.16-3.8-2.14-8.09,1.71-11.18,2.09-1.67,97.35-56.35,100.31-58.12,3.25-1.95,5.37-3.28,9.75-4.21a30.49,30.49,0,0,1,18.82,1.9C149.21,136.88,143.45,133.56,363.53,260.69Z"/><path id="Trazado_242" data-name="Trazado 242" class="cls-7" d="M86.88,164a3.58,3.58,0,0,1,3.31,0l1.23.7-22.51,13a3.69,3.69,0,0,1-3.33,0L64.36,177Z"/><path id="Trazado_243" data-name="Trazado 243" class="cls-8" d="M90.19,161.66l1.56.9a1,1,0,0,1,.63,1.28,1,1,0,0,1-.63.64l-.33.19L90.19,164a3.58,3.58,0,0,0-3.31,0L64.36,177l-.32-.19a1.19,1.19,0,0,1-.69-.94v0a1.14,1.14,0,0,1,.69-.95l22.84-13.2A3.64,3.64,0,0,1,90.19,161.66Z"/><path id="Trazado_244" data-name="Trazado 244" class="cls-9" d="M109.9,188.48,63.81,215.11a6,6,0,0,1-5.42,0h0c-1.5-.87-1.5-2.27,0-3.13l46.1-26.63a5.93,5.93,0,0,1,5.41,0h0C111.4,186.21,111.4,187.61,109.9,188.48Z"/><path id="Trazado_245" data-name="Trazado 245" class="cls-9" d="M106.82,202.79,74.65,221.37a6,6,0,0,1-5.42,0h0c-1.5-.86-1.5-2.27,0-3.13l32.17-18.59a6,6,0,0,1,5.42,0h0C108.31,200.52,108.31,201.92,106.82,202.79Z"/><path id="Trazado_246" data-name="Trazado 246" class="cls-9" d="M117.66,209.05,85.49,227.63a6,6,0,0,1-5.42,0h0c-1.5-.86-1.5-2.26,0-3.13l32.17-18.58a6,6,0,0,1,5.42,0h0C119.15,206.78,119.15,208.18,117.66,209.05Z"/><path id="Trazado_247" data-name="Trazado 247" class="cls-9" d="M180.75,233.2l-46.1,26.63a6,6,0,0,1-5.42,0h0c-1.5-.87-1.5-2.27,0-3.14l46.09-26.63a6,6,0,0,1,5.42,0h0C182.24,230.93,182.24,232.33,180.75,233.2Z"/><path id="Trazado_248" data-name="Trazado 248" class="cls-9" d="M177.66,247.5l-32.17,18.58a6,6,0,0,1-5.43,0h0c-1.49-.86-1.49-2.26,0-3.13l32.18-18.58a5.93,5.93,0,0,1,5.41,0h0C179.16,245.23,179.16,246.64,177.66,247.5Z"/><path id="Trazado_249" data-name="Trazado 249" class="cls-9" d="M188.5,253.76l-32.17,18.59a6,6,0,0,1-5.42,0h0c-1.5-.87-1.5-2.27,0-3.13l32.17-18.59a6,6,0,0,1,5.41,0h0C190,251.5,190,252.9,188.5,253.76Z"/><path id="Trazado_250" data-name="Trazado 250" class="cls-9" d="M275.13,220.38,229,247a6,6,0,0,1-5.42,0h0c-1.5-.86-1.5-2.26,0-3.13l46.1-26.63a6,6,0,0,1,5.42,0h0C276.63,218.12,276.63,219.52,275.13,220.38Z"/><path id="Trazado_251" data-name="Trazado 251" class="cls-9" d="M272,234.69l-32.17,18.58a6,6,0,0,1-5.42,0h0c-1.5-.86-1.5-2.26,0-3.13l32.17-18.58a6,6,0,0,1,5.42,0h0C273.54,232.43,273.54,233.82,272,234.69Z"/><path id="Trazado_252" data-name="Trazado 252" class="cls-9" d="M282.88,241l-32.17,18.59a6,6,0,0,1-5.42,0h0c-1.5-.87-1.5-2.27,0-3.14l32.17-18.58a6,6,0,0,1,5.42,0h0C284.38,238.68,284.38,240.09,282.88,241Z"/><path id="Trazado_253" data-name="Trazado 253" class="cls-9" d="M265.24,279.6l-46.1,26.63a6,6,0,0,1-5.42,0h0c-1.5-.87-1.5-2.27,0-3.13l46.1-26.63a6,6,0,0,1,5.42,0h0C266.74,277.33,266.74,278.74,265.24,279.6Z"/><path id="Trazado_254" data-name="Trazado 254" class="cls-9" d="M262.15,293.91,230,312.49a6,6,0,0,1-5.42,0h0c-1.5-.86-1.5-2.26,0-3.13l32.17-18.59a6,6,0,0,1,5.42,0h0C263.65,291.64,263.65,293,262.15,293.91Z"/><path id="Trazado_255" data-name="Trazado 255" class="cls-9" d="M273,300.17l-32.17,18.58a6,6,0,0,1-5.42,0h0c-1.5-.86-1.5-2.26,0-3.13L267.57,297a6,6,0,0,1,5.42,0h0C274.49,297.9,274.49,299.3,273,300.17Z"/><path id="Trazado_256" data-name="Trazado 256" class="cls-10" d="M199.83,175.34,153.73,202a6,6,0,0,1-5.41,0h0c-1.5-.87-1.5-2.27,0-3.13l46.09-26.63a6,6,0,0,1,5.42,0h0C201.33,173.07,201.33,174.47,199.83,175.34Z"/><path id="Trazado_257" data-name="Trazado 257" class="cls-10" d="M196.74,189.65l-32.17,18.58a6,6,0,0,1-5.41,0h0c-1.5-.87-1.5-2.27,0-3.13l32.17-18.59a6,6,0,0,1,5.41,0h0C198.24,187.38,198.24,188.78,196.74,189.65Z"/><path id="Trazado_258" data-name="Trazado 258" class="cls-10" d="M207.59,195.91,175.41,214.5a6,6,0,0,1-5.42,0h0c-1.49-.87-1.49-2.27,0-3.14l32.18-18.58a6,6,0,0,1,5.41,0h0C209.08,193.64,209.08,195,207.59,195.91Z"/><path id="Trazado_259" data-name="Trazado 259" class="cls-11" d="M62.5,69V94.61c0,9-6.29,19.85-14,24.33l-3.28,1.9L37.39,139.6l-7.79-9.76-3.28,1.9c-.32.18-.63.35-.94.5-3.51,1.76-6.66,1.83-9,.48l-.19-.11c-2.43-1.51-3.92-4.62-3.92-9V98c0-9,6.28-19.86,14-24.33L48.46,60.92c3.8-2.2,7.25-2.45,9.77-1.07l.16.08C60.93,61.4,62.5,64.55,62.5,69Z"/><path id="Trazado_260" data-name="Trazado 260" class="cls-12" d="M5,126.13C2.46,124.67.89,121.51.89,117V91.46c0-9,6.28-19.85,14-24.34L37.07,54.33c3.88-2.24,7.39-2.44,9.92-1,3.76,2.16,7.5,4.33,11.25,6.5-2.53-1.38-6-1.13-9.78,1.07L26.32,73.7c-7.76,4.48-14,15.37-14,24.34v25.58c0,4.37,1.5,7.47,3.93,9Z"/><path id="Trazado_261" data-name="Trazado 261" class="cls-12" d="M29.6,129.84l7.79,9.76L26,133l-.62-.78.94-.51Z"/><path id="Trazado_262" data-name="Trazado 262" class="cls-13" d="M45.38,86c-3-2.66-8.77-.54-13,4.73s-5.18,11.69-2.22,14.35c2.57,2.3,7.27,1,11.2-2.78l5.37,4.81c.62.55,1.85.08,2.75-1.06s1.14-2.51.53-3l-5.37-4.82C47.55,93.41,48,88.28,45.38,86ZM41.87,99.17c-3.18,4-7.59,5.61-9.84,3.59s-1.5-6.9,1.68-10.89,7.58-5.61,9.83-3.59S45.05,95.18,41.87,99.17Z"/><path id="Trazado_263" data-name="Trazado 263" class="cls-14" d="M12.86,165.86l1.23,1.78a.4.4,0,0,0,.52.07l2.74-1.18c.56-.24.78.32.38,1l-2,3.08a1,1,0,0,0-.2.72l.47,2.47a1.32,1.32,0,0,1-1,1.3l-2.46.13a1,1,0,0,0-.64.37l-2.45,2.71c-.5.56-1.1.47-1-.15l.47-3a.41.41,0,0,0-.2-.49l-2-.79c-.41-.16-.19-1,.38-1.4l2.74-2a1.59,1.59,0,0,0,.52-.68l1.23-3.19C11.88,165.92,12.61,165.5,12.86,165.86Z"/><path id="Trazado_264" data-name="Trazado 264" class="cls-14" d="M26.76,157.83,28,159.6a.39.39,0,0,0,.52.08l2.74-1.18c.57-.25.79.32.38,1l-2,3.08a1.08,1.08,0,0,0-.2.72l.47,2.46a1.32,1.32,0,0,1-1,1.31l-2.45.13a1,1,0,0,0-.64.37l-2.46,2.7c-.5.56-1.1.47-1-.15l.47-3a.41.41,0,0,0-.2-.49l-2-.79c-.41-.16-.19-1,.38-1.4l2.74-2a1.59,1.59,0,0,0,.52-.68l1.23-3.2C25.78,157.89,26.51,157.46,26.76,157.83Z"/><path id="Trazado_265" data-name="Trazado 265" class="cls-14" d="M40.67,149.8l1.22,1.77a.4.4,0,0,0,.52.08l2.74-1.18c.57-.25.79.32.39.95l-2,3.08a1.11,1.11,0,0,0-.2.73l.47,2.46a1.32,1.32,0,0,1-1,1.31l-2.45.12a1,1,0,0,0-.65.37l-2.45,2.71c-.5.56-1.1.47-1-.15l.47-3c0-.25,0-.43-.2-.49l-2-.79c-.41-.16-.19-1,.38-1.4l2.74-2a1.66,1.66,0,0,0,.52-.68l1.23-3.19C39.68,149.85,40.42,149.43,40.67,149.8Z"/><path id="Trazado_266" data-name="Trazado 266" class="cls-15" d="M54.57,141.77l1.23,1.77a.41.41,0,0,0,.52.08l2.74-1.19c.57-.24.79.33.38,1l-2,3.08a1.11,1.11,0,0,0-.2.73l.47,2.46a1.32,1.32,0,0,1-1,1.31l-2.45.12a1,1,0,0,0-.65.37l-2.45,2.71c-.5.56-1.1.47-1-.15l.47-3c0-.25,0-.43-.2-.49l-2-.79c-.41-.16-.18-1,.38-1.4l2.74-2a1.5,1.5,0,0,0,.52-.68l1.23-3.19C53.59,141.82,54.32,141.4,54.57,141.77Z"/><path id="Trazado_267" data-name="Trazado 267" class="cls-15" d="M68.48,133.73l1.23,1.78a.4.4,0,0,0,.52.07L73,134.4c.56-.24.79.32.38,1l-2,3.08a1.05,1.05,0,0,0-.19.73l.46,2.46a1.31,1.31,0,0,1-1,1.31l-2.45.13a1,1,0,0,0-.64.37l-2.45,2.7c-.51.56-1.1.47-1-.15l.46-3c0-.25,0-.43-.19-.49l-2-.79c-.41-.16-.18-1,.39-1.4l2.74-2a1.59,1.59,0,0,0,.52-.68l1.22-3.19C67.5,133.79,68.22,133.37,68.48,133.73Z"/><path id="Trazado_268" data-name="Trazado 268" class="cls-14" d="M217.29,25.58V46.74c0,7.4,5.19,16.41,11.61,20.12l2.71,1.56,6.44,15.52,6.44-8.07,2.71,1.56q.41.24.78.42c2.9,1.46,5.51,1.51,7.44.4l.15-.09c2-1.25,3.25-3.82,3.25-7.43V49.57c0-7.41-5.2-16.42-11.61-20.12L228.9,18.88c-3.15-1.82-6-2-8.08-.89l-.13.07C218.58,19.27,217.29,21.88,217.29,25.58Z"/><path id="Trazado_269" data-name="Trazado 269" class="cls-16" d="M264.83,72.8c2.11-1.21,3.4-3.82,3.4-7.51V44.13c0-7.41-5.19-16.42-11.61-20.12l-18.3-10.58c-3.21-1.85-6.11-2-8.21-.81L220.81,18c2.09-1.14,4.94-.93,8.08.89L247.2,29.45c6.41,3.7,11.61,12.71,11.61,20.13V70.73c0,3.61-1.23,6.18-3.25,7.42Z"/><path id="Trazado_270" data-name="Trazado 270" class="cls-16" d="M244.49,75.87l-6.44,8.07,9.42-5.44.51-.65q-.37-.18-.78-.42Z"/><path id="Trazado_271" data-name="Trazado 271" class="cls-17" d="M236.52,39.84a.62.62,0,0,0-.54-.09l-.54.23-2.94-1.7c-1.14-.66-2.11-.38-2.27.66l-.26,1.7,1.54.89.23-1.5c0-.35.38-.44.76-.22l3.26,1.88a.65.65,0,0,0,.54.09l.54-.23,2.42,1.4.54.85a1.74,1.74,0,0,0,.54.54l3.26,1.88a1.64,1.64,0,0,1,.76,1.1l.23,1.77,1.55.89-.27-2a4.93,4.93,0,0,0-2.27-3.28L240.66,43l-.54-.85a1.64,1.64,0,0,0-.54-.54Zm-7.64,1.7c-.42-.24-.76-.1-.76.32v1.53a1.6,1.6,0,0,0,.76,1.21l.13.07,1.19,7.82a3.32,3.32,0,0,0,1.5,2.15L244.4,62c.74.43,1.37.26,1.51-.41l1.18-6.44.13.07c.42.24.76.1.76-.32V53.34a1.6,1.6,0,0,0-.76-1.21Zm13,11.33a1.58,1.58,0,0,1,.76,1.2V57.9c0,.42-.34.56-.76.32a1.6,1.6,0,0,1-.76-1.21V53.19C241.11,52.77,241.45,52.63,241.87,52.87Zm-3.82-2.21a1.58,1.58,0,0,1,.76,1.2v3.83c0,.42-.34.57-.76.32a1.58,1.58,0,0,1-.76-1.2V51c0-.42.34-.57.76-.32Zm-3.82-2.21a1.6,1.6,0,0,1,.76,1.21v3.82c0,.42-.34.57-.76.33a1.61,1.61,0,0,1-.77-1.21V48.77c0-.42.35-.56.77-.32Z"/><path id="Trazado_272" data-name="Trazado 272" class="cls-18" d="M282.1,260.66l-48.69,28.11c-4.81,2.78-12.61,2.78-17.42,0l-89.43-51.62c-4.81-2.78-4.81-7.28,0-10.06L175.26,199c4.81-2.78,12.61-2.78,17.42,0l89.42,51.63C286.91,253.38,286.91,257.88,282.1,260.66Z"/><path id="Trazado_273" data-name="Trazado 273" class="cls-19" d="M296.58,287.49c-1.14-2-4.32-3.44-6.66-3.9a12.33,12.33,0,0,0-8.32,1.21c-1.69,1-2.53,2.1-2.53,3.36v1.43c0,1.72,1.69,3,3.18,3.88a13.3,13.3,0,0,0,8.21,1.5c2.29-.31,5.19-1.46,6.22-3.5a2.64,2.64,0,0,0,.3-1.17v-1.43A2.8,2.8,0,0,0,296.58,287.49Zm-6.9-5.66,12.4,7.16,1.52-.88v-1.43l-3.09-1.79,7.14.88,1.88-1.08v-1.43l-9.4-1.08c.08-3,.06-2.11.06-3.92l-2,1.14c0,1.81,0,.88,0,4.19l-7.06-4.08-1.52.88Zm25.74,15.53c-9,5.92-22.77,6.92-33.31,4.15-5.08-1.34-10.79-3.95-14.06-8.09-3.59-4.55-3.36-9.56,0-13.76,8.22-10.39,31.94-12.91,46.07-4.8h0a19.66,19.66,0,0,1,5.74,4.76c5,6.33,2.45,13.19-4.43,17.73Z"/><path id="Trazado_274" data-name="Trazado 274" class="cls-20" d="M259.16,284.84a19.59,19.59,0,0,0,5.76,4.76c9.7,5.57,24.15,6.2,34.88,2.45,4.14-1.44,8.47-3.81,11.18-7.24a10.94,10.94,0,0,0,2.59-6.86h0v7.41h0c0,6-5.38,10.46-10.86,13-10.35,4.71-25,4.71-35.36,0-5.46-2.5-10.81-6.94-10.81-12.93V278h0A11,11,0,0,0,259.16,284.84Z"/><path id="Trazado_275" data-name="Trazado 275" class="cls-21" d="M300.64,274.68v1.43l-1.88,1.09v-1.43Z"/><path id="Trazado_276" data-name="Trazado 276" class="cls-21" d="M298.76,275.77v1.43l-7.14-.89-.42-.24v-1.25Z"/><path id="Trazado_277" data-name="Trazado 277" class="cls-21" d="M294.72,278.1v1.43l-1.53.88V279Z"/><path id="Trazado_278" data-name="Trazado 278" class="cls-21" d="M293.2,279v1.43l-12.41-7.16v-1.43Z"/><path id="Trazado_279" data-name="Trazado 279" class="cls-22" d="M294.72,278.1l-1.53.88-12.4-7.16,1.52-.88,7.06,4.07a36.43,36.43,0,0,0,0-4.18l2-1.14-.1,3.91c.76.07-2.65-.3,9.43,1.08l-1.88,1.09-7.56-.94,0,1.21Z"/><path id="Trazado_280" data-name="Trazado 280" class="cls-23" d="M287.7,278.91c-1.15-2-4.32-3.43-6.67-3.89a12.29,12.29,0,0,0-8.31,1.2c-1.69,1-2.54,2.1-2.54,3.36V281c0,1.72,1.69,3,3.18,3.88a13.32,13.32,0,0,0,8.21,1.51c2.29-.32,5.19-1.46,6.22-3.51a2.51,2.51,0,0,0,.3-1.17v-1.43A2.93,2.93,0,0,0,287.7,278.91Zm-6.91-5.66,12.4,7.16,1.53-.87V278.1l-3.1-1.79,7.14.89,1.88-1.09v-1.43l-9.4-1.08c.08-3,.07-2.1.07-3.91l-2,1.14c0,1.8,0,.87,0,4.18l-7.06-4.07-1.52.88Zm25.75,15.53c-9,5.92-22.78,6.93-33.31,4.15-5.09-1.34-10.8-3.95-14.07-8.09-3.59-4.55-3.36-9.55,0-13.76,8.22-10.39,31.95-12.9,46.07-4.79h0a19.89,19.89,0,0,1,5.74,4.75C316,277.38,313.42,284.24,306.54,288.78Z"/><path id="Trazado_281" data-name="Trazado 281" class="cls-22" d="M285.88,280.56c.06-1.35-1.33-2.39-2.5-3.06a9.43,9.43,0,0,0-9.24-.47,3,3,0,0,0-1.8,2.43c0,1.27,1.64,2.4,2.74,3a9.37,9.37,0,0,0,9.05.34A3,3,0,0,0,285.88,280.56Zm2.21-.27c0,1.43-1.3,2.63-2.54,3.35a12.88,12.88,0,0,1-12.19-.18c-1.49-.87-3.18-2.17-3.18-3.88,0-1.26.85-2.38,2.54-3.36a12.76,12.76,0,0,1,12.36.3c1.4.81,3,2.15,3,3.77Z"/><path id="Trazado_282" data-name="Trazado 282" class="cls-23" d="M283.38,278.93a5.09,5.09,0,0,1,2.37,2.26c-.82,2.15-6,4-10.67,1.3a5.94,5.94,0,0,1-2.59-2.32C273.34,278,278.43,276.06,283.38,278.93Z"/><path id="Trazado_283" data-name="Trazado 283" class="cls-21" d="M285.88,280.32a2,2,0,0,1-.13.88,5.06,5.06,0,0,0-2.37-2.27c-4.94-2.86-10-1-10.89,1.24a1.44,1.44,0,0,1-.15-.71,3,3,0,0,1,1.8-2.42,9.4,9.4,0,0,1,9.24.46C285,278.42,285.81,279.36,285.88,280.32Z"/><path id="Trazado_284" data-name="Trazado 284" class="cls-21" d="M273.36,283.46a12.88,12.88,0,0,0,12.19.18c1.24-.72,2.54-1.93,2.54-3.35v1.44a2.67,2.67,0,0,1-.3,1.17c-1,2-3.93,3.18-6.22,3.5a13.31,13.31,0,0,1-8.21-1.51c-1.49-.85-3.18-2.16-3.18-3.88v-1.43C270.18,281.3,271.87,282.6,273.36,283.46Z"/><path id="Trazado_285" data-name="Trazado 285" class="cls-4" d="M189.78,178.39l28.09-17L214.65,160l-28.44,16.46Z"/><path id="Trazado_286" data-name="Trazado 286" class="cls-4" d="M174,168.73l28.09-17-3.22-1.43-28.45,16.46Z"/><path id="Trazado_287" data-name="Trazado 287" class="cls-16" d="M149,138.07l2.23,16.75,14.22-7.21Z"/><path id="Trazado_288" data-name="Trazado 288" class="cls-16" d="M142.68,80.86V127.8C143.93,128.53,171,144,171,144l10.55-5.72.75-46.65V58Z"/><path id="Trazado_289" data-name="Trazado 289" class="cls-4" d="M140.83,17.19h0a26.28,26.28,0,0,1,9.28,14.28q2.71,11.06,5.41,22.1L160,51q-2.53-10.35-5.06-20.7a31.29,31.29,0,0,0-11.17-17.11h0L135.27,7h0c-7.42-5.51-19.92-6.49-27.58-2h0l-19,11Q79.1,21.48,69.57,27h0c-3.91,2.21-6.67,6-6.44,10.45.21,4.07,2.83,7.6,6.09,9.95h0l8.49,6.21A26.34,26.34,0,0,1,87,67.9h0q3.42,14,6.85,28s.16,0,.19,0a10,10,0,0,1,2.09.31,4.25,4.25,0,0,0,1.84.27c.6-.2.82-1.14.67-1.83l-.36-1.45Q95.07,80,91.83,66.72A31.38,31.38,0,0,0,80.66,49.61h0q-4.26-3.09-8.49-6.2h0c-2.45-1.76-4.6-4.58-4-7.5a7.46,7.46,0,0,1,3.85-4.61h0l19.06-11,19-11h0C116,5.87,126.3,6.5,132.33,11h0Z"/><path id="Trazado_290" data-name="Trazado 290" class="cls-4" d="M111.1,92.44l-3,1.7q.85,7.36,1.72,14.72h0l3.37,1.94Z"/><path id="Trazado_291" data-name="Trazado 291" class="cls-4" d="M116.94,141.2l-3.47-2a16.38,16.38,0,0,0,4.23,7.65Q117.33,144,116.94,141.2Z"/><path id="Trazado_292" data-name="Trazado 292" class="cls-4" d="M125.47,106.41q-5,2.85-9.92,5.73l5.73,3.31,4.19-2.42Z"/><path id="Trazado_293" data-name="Trazado 293" class="cls-4" d="M115.62,131.26q-.78-5.82-1.55-11.65l-2.77,1.6,1.26,10.85,3.43,2C115.87,133.11,115.74,132.19,115.62,131.26Z"/><path id="Trazado_294" data-name="Trazado 294" class="cls-4" d="M122.08,156.1h0a2.89,2.89,0,0,0,.72,1.69,2.23,2.23,0,0,0,2.44.12c4.38-2.46,3.2-1.79,5.41-3.07l-9.46-5.46Q121.64,152.74,122.08,156.1Zm24.36,4.24v.43l2.63,1.52.46,3.45-15.74-9.09-3.56,2.06a25.31,25.31,0,0,1-5,2.48,5.67,5.67,0,0,1-.57.1c-3,.39-5.27-1.6-5.68-4.78h0c-.43-3.22-.85-6.44-1.28-9.66q-.37-2.82-.76-5.64l3.43,2h0c.09.71.19,1.42.28,2.13a8.52,8.52,0,0,0,1.11.78h0l12,6.95,1.83-1.06,3.13,1.81-1.83,1.05Q141.67,157.6,146.44,160.34Z"/><path id="Trazado_295" data-name="Trazado 295" class="cls-4" d="M117,137.69a2.56,2.56,0,0,0,2-.59c.25-.19.51-.42.46-.66s0-.28,0-.42q-1.09-8.15-2.17-16.28l-3.42-2,.24,1.85,1.56,11.65c.12.92.24,1.85.37,2.78s.25,1.86.37,2.79a.07.07,0,0,0,0,0A1,1,0,0,0,117,137.69Z"/><path id="Trazado_296" data-name="Trazado 296" class="cls-14" d="M125.47,124.49v15l17.21,9.94v-15Z"/><path id="Trazado_297" data-name="Trazado 297" class="cls-14" d="M125.47,113v4.84l17.21,9.93V80.86l-17.21-9.93Z"/><path id="Trazado_298" data-name="Trazado 298" class="cls-14" d="M125.47,70.93l17.21,9.93L182.3,58l-17.21-9.94L160,51l-4.47,2.58Z"/><path id="Trazado_299" data-name="Trazado 299" class="cls-14" d="M127.44,70.93l37.65-21.74L180.33,58,142.68,79.73Z"/><path id="Trazado_300" data-name="Trazado 300" class="cls-24" d="M130.67,237h0l3.77-2.17a4,4,0,0,0,1.38-1.44c1-1.65.86-4,.44-5.88l-4.19-2.42.06,3.74h0C133.32,232.84,132.55,235.83,130.67,237Z"/><path id="Trazado_301" data-name="Trazado 301" class="cls-25" d="M118.14,224A16.22,16.22,0,0,0,125,236.3c2.28,1.48,4.31,1.61,5.71.72,1.88-1.19,2.66-4.19,1.47-8.17l.05,3.08-.57.35-13-7.49-.06-3.38A7.27,7.27,0,0,0,118.14,224Z"/><path id="Trazado_302" data-name="Trazado 302" class="cls-16" d="M133,221a3.14,3.14,0,0,1,2.11-1.16,1.39,1.39,0,0,1,.63.18v0l-13-7.5a1.69,1.69,0,0,0-1.41,0l-.29.13A5.46,5.46,0,0,0,118.5,217v.29l.07,4.13.05,3.38,13,7.5-.13-7.81A5.42,5.42,0,0,1,133,221Z"/><path id="Trazado_303" data-name="Trazado 303" class="cls-26" d="M135.08,219.79A3.18,3.18,0,0,0,133,221a5.43,5.43,0,0,0-1.47,3.52l.13,7.81.57-.34-.05-3.09h0l-.06-3.73,0-1.44a3.43,3.43,0,0,1,.29-1,4,4,0,0,1,2-2.1,1.24,1.24,0,0,1,1,0h0l1.06.62a1.81,1.81,0,0,0-.39-1,1,1,0,0,0-.33-.25A1.35,1.35,0,0,0,135.08,219.79Z"/><path id="Trazado_304" data-name="Trazado 304" class="cls-16" d="M142.68,134.42v15l3.76,2.16v-9.1c-.29-2.14-.58-4.27-.86-6.41Z"/><path id="Trazado_305" data-name="Trazado 305" class="cls-16" d="M146.44,142.51v9.1c.43.26.87.51,1.31.76h0C147.31,149.08,146.88,145.8,146.44,142.51Z"/><path id="Trazado_306" data-name="Trazado 306" class="cls-16" d="M168.68,192.42v3.47l13,7.5v-7.93a4.47,4.47,0,0,1-1.92-4h0c0-1.33,0-2.66,0-4l-6.85-4a1.64,1.64,0,0,0-1.42,0,1.59,1.59,0,0,0-.27.12,5.47,5.47,0,0,0-2.54,4.33v4.47Z"/><path id="Trazado_307" data-name="Trazado 307" class="cls-4" d="M154.56,176.13c.8.78,2.18.34,3.13-.22h0l4.73-2.72L153,167.72c.3,2.24.59,4.48.89,6.72h0A2.93,2.93,0,0,0,154.56,176.13Zm14.5-2.73,10.71,6.19h0c0,1.21,0,2.41,0,3.61L165.54,175l-6.28,3.63c-4.13,2.41-8,.53-8.52-3.77h0c-.4-3-.81-6.07-1.21-9.11l-.46-3.44c-.12-.92-.25-1.84-.37-2.75l3.42,2c.12.91.25,1.83.37,2.75l16.19,9.35Z"/><path id="Trazado_308" data-name="Trazado 308" class="cls-24" d="M184.53,205.93a3.91,3.91,0,0,0,1.32-1.33c1-1.7.93-4.19.47-6.12l-4.08-2.35V200c1.19,4,.35,7-1.6,8.18h0l3.89-2.24Z"/><path id="Trazado_309" data-name="Trazado 309" class="cls-26" d="M182.24,195.75a3.81,3.81,0,0,1-.57-.29v7.93l.57-.34Z"/><path id="Trazado_310" data-name="Trazado 310" class="cls-25" d="M182.24,203.05l-.57.34-13-7.5v-3.47a7.19,7.19,0,0,0-.45,2.64,16.21,16.21,0,0,0,6.8,12.32c2.22,1.45,4.21,1.61,5.61.8,2-1.13,2.78-4.14,1.6-8.18Z"/><path id="Trazado_311" data-name="Trazado 311" class="cls-16" d="M185.88,191l-3-1.73v2.29a2.91,2.91,0,0,0,.08.66,3.79,3.79,0,0,1,1.82-1.3A1.55,1.55,0,0,1,185.88,191Z"/><path id="Trazado_312" data-name="Trazado 312" class="cls-4" d="M185.58,191.63a1.1,1.1,0,0,0-.92-.11,3.09,3.09,0,0,0-1.51,1.11.34.34,0,0,0,.08.09.65.65,0,0,0,.49.19,4.37,4.37,0,0,0,2.22-.7h0l.33-.19-.69-.39Z"/><path id="Trazado_313" data-name="Trazado 313" class="cls-4" d="M185.57,255.7a5.46,5.46,0,0,1,2.52-4.38,1.78,1.78,0,0,1,.29-.12h0l-52-30-1.06-.62h0a1.24,1.24,0,0,0-1,0,4,4,0,0,0-2,2.1,3.43,3.43,0,0,0-.29,1l0,1.44,4.19,2.42q24.64,14.22,49.3,28.47Z"/><path id="Trazado_314" data-name="Trazado 314" class="cls-4" d="M179.75,191.44h0c0-1.33,0-2.66,0-4s0-2.83,0-4.24c0-1.21,0-2.41,0-3.61v-2.11l3.12,1.81v2.1l10.89,6.29c.61-.35,1.22-.7,1.82-1.06a13.32,13.32,0,0,0,3.86,1.39l-2.56,1.48,14,8.07h0c1,.56,2.34,1,3.14.22a2.92,2.92,0,0,0,.71-1.68h0q.38-2.74.74-5.49c.33-2.47.66-5,1-7.42h0l3.42-2c-.41,3-.81,6.06-1.22,9.09l-.84,6.21h0c-.55,4.34-4.44,6.15-8.51,3.76h0l-15.54-9-4.4,2.53-1.88,1.09h0c-2,1.19-3.89,1.38-5.27.83a4.37,4.37,0,0,1-.57-.29A4.44,4.44,0,0,1,179.75,191.44Zm6.78.43,4.13-2.38L182.89,185c0,1.42,0,2.83,0,4.24v2.29a2.91,2.91,0,0,0,.08.66,1.16,1.16,0,0,0,.19.44.39.39,0,0,0,.08.1.65.65,0,0,0,.49.19,4.45,4.45,0,0,0,2.23-.71h0l.32-.18.26-.16Z"/><path id="Trazado_315" data-name="Trazado 315" class="cls-26" d="M183.15,192.63a3.09,3.09,0,0,1,1.51-1.11,1.1,1.1,0,0,1,.92.11h0l.69.39.26-.15a1.54,1.54,0,0,0-.63-.89h0a1.53,1.53,0,0,0-1.11-.09,3.83,3.83,0,0,0-1.81,1.31A1.31,1.31,0,0,0,183.15,192.63Z"/><path id="Trazado_316" data-name="Trazado 316" class="cls-4" d="M188.19,74.13c-.59,5.05-4.09,38.74-4.67,43.78l2.86,1.79c.45-3.83,4.32-40,4.76-43.86Z"/><path id="Trazado_317" data-name="Trazado 317" class="cls-24" d="M197.94,276h0l3.88-2.24c1.59-.92,2.13-2.88,2.13-4.71a13,13,0,0,0-.79-4.26,11.26,11.26,0,0,1-4-1h0l.06,3a13.33,13.33,0,0,1,.88,4.5C200.07,273.73,199.2,275.27,197.94,276Z"/><path id="Trazado_318" data-name="Trazado 318" class="cls-25" d="M185.66,261.36c-.9,4.79,2.78,11.86,7.52,14.33a6.11,6.11,0,0,0,2.76.79,3.88,3.88,0,0,0,2-.49c1.26-.73,2.13-2.27,2.13-4.7a12.88,12.88,0,0,0-.88-4.51l.07,3.88-.58.35-13-7.5Z"/><path id="Trazado_319" data-name="Trazado 319" class="cls-4" d="M199.15,263.75a11.16,11.16,0,0,0,4,1c5,.26,8.85-3.63,8.8-9.91v-.38c0-6.2-3.63-13.35-8.34-17.5h0L136.7,177.64c-3.94-3.47-6.49-9.2-6.47-13.33v-5.6a25.31,25.31,0,0,1-5,2.48,5.67,5.67,0,0,1-.57.1v3c0,5.8,3.28,13,8.35,17.51h0q33.45,29.69,66.92,59.35c3.86,3.4,6.49,9.11,6.47,13.33v.4c0,1.63-.43,3.85-2.06,4.26a3,3,0,0,1-1.07.05,5.12,5.12,0,0,1-1.22-.27h0a4.65,4.65,0,0,0-2.84,3.24,2.73,2.73,0,0,0-.07.7v.9Z"/><path id="Trazado_320" data-name="Trazado 320" class="cls-26" d="M203.27,259.2a1.36,1.36,0,0,0-.49-.52.88.88,0,0,0-.22-.1,1.75,1.75,0,0,0-1.27.13,4.09,4.09,0,0,0-1.66,1.48,5.28,5.28,0,0,0-1.08,3l.14,7.81.57-.35-.06-3.88-.06-3v-.91a2.79,2.79,0,0,1,.08-.7,4.66,4.66,0,0,1,2.83-3.24h0A5.82,5.82,0,0,0,203.27,259.2Z"/><path id="Trazado_321" data-name="Trazado 321" class="cls-16" d="M202.56,258.58a.88.88,0,0,1,.22.1h0l-13-7.5a1.66,1.66,0,0,0-1.41,0h0a1.48,1.48,0,0,0-.29.12,5.46,5.46,0,0,0-2.52,4.38v.3l.09,5.36,0,2.15,13,7.5-.13-7.81a5.2,5.2,0,0,1,1.07-3,4.11,4.11,0,0,1,1.67-1.48A1.75,1.75,0,0,1,202.56,258.58Z"/><path id="Trazado_322" data-name="Trazado 322" class="cls-4" d="M217.55,115.42a.89.89,0,0,1-.18-.63v0c.06-.49.11-1,.17-1.46-1.33-.77-29.47-15.74-30.8-16.51v4.29l25,14a60,60,0,0,1,6.53.93l0-.2A1.05,1.05,0,0,1,217.55,115.42Z"/><path id="Trazado_323" data-name="Trazado 323" class="cls-4" d="M218.32,116a27.36,27.36,0,0,1,7,1.84l-4.84-2.8v.11h0a.17.17,0,0,1-.1.13,1.71,1.71,0,0,1-.33.17,4.11,4.11,0,0,1-1.69.36Z"/><path id="Trazado_324" data-name="Trazado 324" class="cls-4" d="M220.49,115q1.2-10.42,2.41-20.85l-3-1.7-2.4,20.84c-.06.49-.12,1-.17,1.46v0a.89.89,0,0,0,.18.63,1.06,1.06,0,0,0,.8.37,4.15,4.15,0,0,0,1.7-.36,2.59,2.59,0,0,0,.33-.17c.06-.05.09-.09.09-.14h0Z"/><path id="Trazado_325" data-name="Trazado 325" class="cls-4" d="M233.41,164.8v2l2.79-1.61.3-2.16Z"/><path id="Trazado_326" data-name="Trazado 326" class="cls-4" d="M235.75,226.67a5.51,5.51,0,0,1,2.54-4.33,1.59,1.59,0,0,1,.27-.12h0L189.4,193.83l-1.88,1.09h0c-2,1.19-3.89,1.38-5.26.83v.38l4.07,2.35L235.76,227Z"/><path id="Trazado_327" data-name="Trazado 327" class="cls-4" d="M243.79,154.11a14.77,14.77,0,0,1-3.79,6.37c-.13.91-.25,1.82-.37,2.73l4.26-2.46h0a17.16,17.16,0,0,0,2.94-5.87h0c1-4.21,2.1-8.41,3.15-12.63l-3.77,2.17C245.4,147.65,244.6,150.89,243.79,154.11Z"/><path id="Trazado_328" data-name="Trazado 328" class="cls-24" d="M251.91,244.83c1.57-.9,2.13-2.85,2.13-4.7a12.34,12.34,0,0,0-.44-3.15c-.11-.4-.24-.79-.37-1.18a11.38,11.38,0,0,1-3.92-1V238a13,13,0,0,1,.85,4.42c0,2.44-.87,4-2.13,4.7h0l3.88-2.25Z"/><path id="Trazado_329" data-name="Trazado 329" class="cls-25" d="M235.75,232.42c-.92,4.83,2.81,12,7.57,14.38a6.08,6.08,0,0,0,2.76.76,3.92,3.92,0,0,0,1.95-.49c1.26-.72,2.13-2.26,2.13-4.7a13.08,13.08,0,0,0-.84-4.42v3.83l-.58.33-13-7.5Z"/><path id="Trazado_330" data-name="Trazado 330" class="cls-4" d="M219.49,184.83c8.7,7.72,21.92,19.63,30.63,27.35,3.85,3.4,6.49,9.11,6.47,13.34v.39c0,1.65-.44,3.86-2.07,4.27a3.2,3.2,0,0,1-1.07,0,5.83,5.83,0,0,1-1.25-.29h0a4.83,4.83,0,0,0-2.28,1.93,4,4,0,0,0-.61,2v.94a11.55,11.55,0,0,0,3.92,1h.39c4.9.12,8.59-3.74,8.54-9.92v-.37c0-6.3-3.71-13.43-8.35-17.51h0l-20.19-17.9a6.12,6.12,0,0,1-5.51-.66h0c-.7-.4-6.11-8.68-6.81-9.08l-1.36.85C219.26,181.51,220.16,184.59,219.49,184.83Z"/><path id="Trazado_331" data-name="Trazado 331" class="cls-4" d="M250.62,134.05a5.16,5.16,0,0,0,1.29-.37c.08-.05.23-.13.26-.21h0l0-.14q2.43-9.72,4.85-19.44l-2.82-1.62q-2.41,9.72-4.85,19.43l-.3,1.23h0a.85.85,0,0,0,.54,1.08l.16,0A2.37,2.37,0,0,0,250.62,134.05Z"/><path id="Trazado_332" data-name="Trazado 332" class="cls-4" d="M251.91,133.68a5.21,5.21,0,0,1-1.28.37,2.37,2.37,0,0,1-.84,0,.86.86,0,0,1-.74-1,.75.75,0,0,1,0-.16h0l.3-1.23-19.62-11.33c2.47,2-40.79-24.92-40.88-22.5,0,.64-.71,3.65-.71,4.29,4.65,2.69,54.53,32.3,59.18,35l5.73-3.31-.88-.51,0,.14h0C252.15,133.55,252,133.63,251.91,133.68Z"/><path id="Trazado_333" data-name="Trazado 333" class="cls-26" d="M251.49,229.73a4,4,0,0,0-1.66,1.46,5.3,5.3,0,0,0-1.09,3v7.94l.57-.33v-7.95a4,4,0,0,1,.61-2,4.9,4.9,0,0,1,2.28-1.94h0a6,6,0,0,0,1.25.29,1.23,1.23,0,0,0-.49-.52.81.81,0,0,0-.21-.1A1.72,1.72,0,0,0,251.49,229.73Z"/><path id="Trazado_334" data-name="Trazado 334" class="cls-16" d="M253,229.7q-6.51-3.73-13-7.5a1.64,1.64,0,0,0-1.42,0,1.59,1.59,0,0,0-.27.12,5.51,5.51,0,0,0-2.54,4.33v7.94l13,7.5v-7.94a5.3,5.3,0,0,1,1.09-3,4,4,0,0,1,1.66-1.46,1.72,1.72,0,0,1,1.26-.12.88.88,0,0,1,.22.1Z"/><path id="Trazado_335" data-name="Trazado 335" class="cls-4" d="M253.08,140.45l3.4,2,.57-4.26Z"/><path id="Trazado_336" data-name="Trazado 336" class="cls-26" d="M253.23,235.8c.13.39.26.78.37,1.18h0v-1.16Z"/><path id="Trazado_337" data-name="Trazado 337" class="cls-4" d="M255.5,155.65c.7.44,1.69.8,2.19.15a1.05,1.05,0,0,0,.21-.47s0-.09,0-.13c.12-.92.25-1.84.37-2.76.37-2.78.75-5.56,1.12-8.33.28-2.05.55-4.1.83-6.15l.24-1.78-3.43,2-.57,4.26-1.62,12c0,.16,0,.32-.06.48h0a.68.68,0,0,0,.27.44A2.67,2.67,0,0,0,255.5,155.65Z"/><path id="Trazado_338" data-name="Trazado 338" class="cls-27" d="M205.84,86.92l-7.47,4.31c0-1.8,0-3.59,0-5.4Z"/><path id="Trazado_339" data-name="Trazado 339" class="cls-28" d="M198.25,97.12a1.32,1.32,0,0,1,.63-.27,1,1,0,0,1,.86.29,1.81,1.81,0,0,1,.23,1.5A6.58,6.58,0,0,0,198.25,97.12Z"/><path id="Trazado_340" data-name="Trazado 340" class="cls-29" d="M196.49,81.52c1.06,2.45,1.63,3.78,1.87,4.31,0,1.81,0,3.61,0,5.4L196,92.6C196.34,84.93,196.38,84.29,196.49,81.52Z"/><path id="Trazado_341" data-name="Trazado 341" class="cls-28" d="M198,101a.91.91,0,0,1-.94-.51,1.57,1.57,0,0,0,.43-.15A3.24,3.24,0,0,1,198,101Z"/><path id="Trazado_342" data-name="Trazado 342" class="cls-28" d="M197.05,100.44a1.92,1.92,0,0,1-.15-.67,2.88,2.88,0,0,1,.58.52A1.57,1.57,0,0,1,197.05,100.44Z"/><path id="Trazado_343" data-name="Trazado 343" class="cls-30" d="M196.78,97.75c1-1.84,3.17-2.86,3.92-.91a3.87,3.87,0,0,1-.22,2.51h0a7,7,0,0,0-.49-.72c.19-.86,0-1.77-.94-1.82l-.15,0a1.4,1.4,0,0,0-.64.27,3.13,3.13,0,0,0-1,1.14,3,3,0,0,0-.37,1.52c.05.92.59,1.24,1.08,1.17a5.92,5.92,0,0,1,.43.83C196.37,102.71,195.34,100.43,196.78,97.75Z"/><path id="Trazado_344" data-name="Trazado 344" class="cls-27" d="M196.49,81.52c-.11,2.77-.15,3.46-.48,11.08q-15.18,8.75-30.36,17.52c-.52-1.21-1.76-4.08-1.87-4.32l-7.48-1.08Z"/><path id="Trazado_345" data-name="Trazado 345" class="cls-31" d="M196.12,100.22a1.71,1.71,0,0,0,.83,1.63l-1-.5a1.17,1.17,0,0,1-.37-.3c-.85-1-.42-2.72.32-4a3.71,3.71,0,0,1,1.5-1.54,1.82,1.82,0,0,1,1.59-.14c.3.14.58.31.88.46-.73-.3-2.15.15-3.09,1.87A4.77,4.77,0,0,0,196.12,100.22Z"/><path id="Trazado_346" data-name="Trazado 346" class="cls-28" d="M179.35,108a1,1,0,0,1,.83.27,1.75,1.75,0,0,1,.24,1.49,7.69,7.69,0,0,0-.62-.66c-.5-.45-.21-.11-.35-.79A1.86,1.86,0,0,0,179.35,108Z"/><path id="Trazado_347" data-name="Trazado 347" class="cls-28" d="M179.67,109.1c-.31-.29-.64-.57-1-.84a1.17,1.17,0,0,1,.66-.26A3.31,3.31,0,0,1,179.67,109.1Z"/><path id="Trazado_348" data-name="Trazado 348" class="cls-32" d="M178.69,108.26a7.64,7.64,0,0,1,2.17,2,1.1,1.1,0,0,0,.09.14s0,0,0,0c2.48,3.35,3.69,10.68,6.46,12.37a2.69,2.69,0,0,0,2,.28,8.11,8.11,0,0,0,2-.8s0,0,0,0a11.73,11.73,0,0,0,1.67-1.14c6.85-5.4,8-18.18,3.81-21.38a3.29,3.29,0,0,1,1.18-2.52c.19-.15.12-.13.24-.07,5.86,3.55,5.49,18.73-3,26-2.24,1.9-5.51,3.62-8.31,2.68-5.56-1.73-6-12.25-9.64-14.95A3.4,3.4,0,0,1,178.69,108.26Z"/><path id="Trazado_349" data-name="Trazado 349" class="cls-28" d="M178.49,112.09a1,1,0,0,1-1-.51,1.25,1.25,0,0,0,.47-.16A7.18,7.18,0,0,1,178.49,112.09Z"/><path id="Trazado_350" data-name="Trazado 350" class="cls-28" d="M178,111.42a1.25,1.25,0,0,1-.47.16,1.55,1.55,0,0,1-.14-.67A3,3,0,0,1,178,111.42Z"/><path id="Trazado_351" data-name="Trazado 351" class="cls-27" d="M208.41,86.51l-43.47,25.1,2.6,55L211,141.49Zm-10.93,34.4a16.21,16.21,0,0,1-4.43,3.86,10.81,10.81,0,0,1-3.69,1.32c-6.7.72-7.81-9-10.37-13.23a1.81,1.81,0,0,1-1.45.2.8.8,0,0,1-.16-.08h0l-1-.5a1.66,1.66,0,0,1-.83-1.67,5,5,0,0,1,2-4,1.65,1.65,0,0,1,1.84-.3l1,.51v0c1.05.38,1,2.2.52,3.32,0,0,0,0,0,0,1.87,2.51,3,7.28,4.75,10.41,1.09,1.83,2.22,2.77,4.23,2.1a12.85,12.85,0,0,0,6.29-5.3c3.39-5.29,3.83-12.31,2.21-15.87-1,.48-1.35.11-2.46-.42a1.12,1.12,0,0,1-.37-.31c-.86-1-.42-2.71.31-3.94a3.65,3.65,0,0,1,1.5-1.54,1.79,1.79,0,0,1,1.59-.14c.3.14.58.3.88.45a1.67,1.67,0,0,1,.83,1,3.87,3.87,0,0,1-.22,2.51h0l.11.15c3.16,5.19,1.82,15.51-3.1,21.4Z"/><path id="Trazado_352" data-name="Trazado 352" class="cls-30" d="M179.31,107a1.69,1.69,0,0,1,1.44.29c.72.65.6,2.16.19,3.12a4.15,4.15,0,0,0-.52-.67,1.79,1.79,0,0,0-.24-1.49,1,1,0,0,0-.83-.27,1.45,1.45,0,0,0-.87.43,3.07,3.07,0,0,0-1,3.15,1,1,0,0,0,1,.51,6.44,6.44,0,0,1,.5.78c-1.67.9-2.9-.47-2.35-2.45A4.5,4.5,0,0,1,179.31,107Z"/><path id="Trazado_353" data-name="Trazado 353" class="cls-31" d="M178.06,107.8a5.32,5.32,0,0,0-1.42,2.62,3,3,0,0,0,0,1.48,1.77,1.77,0,0,0,.75,1.08h0c-.12-.06-.49-.27-1-.5a1.65,1.65,0,0,1-.84-1.67,5,5,0,0,1,2-4,1.65,1.65,0,0,1,1.84-.3l1,.51,0,0a1.84,1.84,0,0,0-1.11-.1A2.71,2.71,0,0,0,178.06,107.8Z"/><path id="Trazado_354" data-name="Trazado 354" class="cls-29" d="M164.94,111.61l2.6,55-4.84-6.67V106.43Z"/><path id="Trazado_355" data-name="Trazado 355" class="cls-33" d="M162.7,106.43l-9-1.3L197.2,80l2.24,5.18,9,1.3c-26.83,15.48-34.13,19.71-43.47,25.1Zm-6.4-1.71,7.48,1.08c.11.24,1.35,3.12,1.87,4.32l40.19-23.2c-2.49-.37-5-.72-7.48-1.08-.23-.52-.59-1.35-1.87-4.32l-40.19,23.2Z"/><path id="Trazado_356" data-name="Trazado 356" class="cls-27" d="M162.7,106.43v53.48l-11.56-2.79,2.59-52Z"/><path id="Trazado_357" data-name="Trazado 357" class="cls-34" d="M226.07,132.9c-7.63-.89-15.59-2.14-15.59-2.14l-2.07-44.25s-20,11.6-27.27,15.69c-3,1.68-5.89,3.64-9.22,4.81.25-.63,3.1-2.3,3.1-2.3l21-12.12,2.37-1.36s-1.73-9.29-1.89-9.72L156.3,104.72c.39-.09,7.16,1.49,9.35,5.4,1.76,3.14,1.33,10,.69,21.95a2.58,2.58,0,0,1-2.7,2.43l-.26,0c-2.39-.38-2.27,1.55-2.27,1.55l1.59.48,4.42,19.44.42,10.64s21.17,3.79,27.82,3.51a22.5,22.5,0,0,0,11.89-3.76c1.84-1.25,3.29-2.77,3.36-5.18,2.07-1.21,4.09-2.41,6.11-3.57,4.84-2.76,9.34-6.21,15-7.19a6.16,6.16,0,0,0,1.09-.39,3.21,3.21,0,0,0,2.24-2.11,36.09,36.09,0,0,0,.37-3.59A10.66,10.66,0,0,0,226.07,132.9ZM180.19,167c1.71-.69,7.56-1.12,11.58-.69C188.08,167.74,184.34,168.69,180.19,167Zm20-53.86a10,10,0,0,1-.29-1.54,38.55,38.55,0,0,0-1.41-10.68,2.23,2.23,0,0,1,.82-2.8,13.49,13.49,0,0,1,1.93,2.85C201.92,105.17,201.92,109,200.21,113.13Z"/><path id="Trazado_358" data-name="Trazado 358" class="cls-35" d="M170.27,107.16h0l-1,.57C169.6,106.8,170,106.24,170.27,107.16Z"/><path id="Trazado_359" data-name="Trazado 359" class="cls-36" d="M168.47,136.69a.47.47,0,0,1-.53.4h0c-7.16-1.11-6.73-1-6.82-1.07a.35.35,0,0,1-.21-.22c-.31-1.24-.66-5.73-.75-7a78.7,78.7,0,0,1,.67-18.4,22.5,22.5,0,0,1,1.19-4.63c.2-.38.45-.69.87-.62,7.35,1.13,6.85,1,7.1,1.22a1.71,1.71,0,0,1,.36.77l-.06,0c-.4-1.26-.92.21-1.26,1.49a49.21,49.21,0,0,0-1.13,6.71A91.7,91.7,0,0,0,168.47,136.69Z"/><path id="Trazado_360" data-name="Trazado 360" class="cls-11" d="M234.18,115.64v8l-4.13-4Z"/><path id="Trazado_361" data-name="Trazado 361" class="cls-37" d="M232.16,116.31l-3.43,3.3c0,1.11,0,2.21,0,3.31H186.3c0-1.1,0-2.2,0-3.31l-3.43-3.3Z"/><path id="Trazado_362" data-name="Trazado 362" class="cls-11" d="M232.16,122.92h-3.42c0-1.1,0-2.2,0-3.31Z"/><path id="Trazado_363" data-name="Trazado 363" class="cls-38" d="M221.71,130.22c0-.32,0-.45,0-.67,0-1.19.05-1.31-.08-1.6a1.23,1.23,0,0,0-.32-.42,1.51,1.51,0,0,1,1,1.89A1.49,1.49,0,0,1,221.71,130.22Z"/><path id="Trazado_364" data-name="Trazado 364" class="cls-39" d="M217.57,129a2.89,2.89,0,0,1,3.91-2.26,2.5,2.5,0,0,1,1.87,2.28,2.55,2.55,0,0,1-1.69,2.23s.05-.66.05-1a1.63,1.63,0,0,0,.55-.67c.61-1.42-1.21-2.67-2.64-2h0c-1.25.63-1.41,1.91-.47,2.64,0,.1,0,.68,0,1A2.46,2.46,0,0,1,217.57,129Z"/><path id="Trazado_365" data-name="Trazado 365" class="cls-40" d="M219.19,126.78a2.63,2.63,0,0,0-1.62,2.17v-.61a2.44,2.44,0,0,1,1-1.83,3.3,3.3,0,0,1,3.89,0,2.4,2.4,0,0,1,.93,1.8V129C223.3,127,220.88,126,219.19,126.78Z"/><path id="Trazado_366" data-name="Trazado 366" class="cls-37" d="M180.87,123.59V171.8h53.31V123.59ZM223.34,129a2.54,2.54,0,0,1-1.68,2.23c-.28,5-1.71,10.56-5.56,13.69a12.73,12.73,0,0,1-10.52,2.26c-7.37-1.57-9.88-8.5-10.32-16.08a2.56,2.56,0,0,1-1.67-2.22v-.65a2.42,2.42,0,0,1,.95-1.8,3.29,3.29,0,0,1,3.89,0,2.43,2.43,0,0,1,.93,1.8v.65a2.43,2.43,0,0,1-1.53,2.16,27.54,27.54,0,0,0,.66,4.88c.83,3.67,2.79,7.27,6.38,8.41a11.17,11.17,0,0,0,8.12-.43c3.6-1.8,5.14-5.93,5.79-9.92a28.31,28.31,0,0,0,.31-2.82,2.43,2.43,0,0,1-1.52-2.15v-.65a2.41,2.41,0,0,1,1-1.82,3.29,3.29,0,0,1,3.89,0,2.39,2.39,0,0,1,.93,1.79Z"/><path id="Trazado_367" data-name="Trazado 367" class="cls-38" d="M197.76,128.24a1.11,1.11,0,0,0-.44-.86,1.78,1.78,0,0,1,1.08,1.47,1.54,1.54,0,0,1-.61,1.19C197.78,129.91,197.76,128.38,197.76,128.24Z"/><path id="Trazado_368" data-name="Trazado 368" class="cls-41" d="M219.17,129.48v-.08s0,.09,0,.13C219.16,130,219.15,129.6,219.17,129.48Zm-24-.06c0-1.21-.06-1.3.08-1.6a1.28,1.28,0,0,1,.29-.4,2,2,0,0,1,1.74,0,1,1,0,0,1,.44.87,33.22,33.22,0,0,0,.73,7.64c1.17,5.12,4,8.73,9.25,9,5.38.32,9.67-2.49,11-10.89,0-.12.25-1.68.3-2.8,0-.08,0-.68,0-1a1.47,1.47,0,0,1-.6-1.19,1.91,1.91,0,0,1,2.2-1.61,1.69,1.69,0,0,1,.44.12l.15.06a1.07,1.07,0,0,1,.32.41c.14.3.08.42.08,1.61a30.31,30.31,0,0,1-1.38,8.82c-1.71,5.12-5.22,8.55-10.63,9-10.36.85-14.51-7.69-14.51-18Z"/><path id="Trazado_369" data-name="Trazado 369" class="cls-38" d="M195.58,127.42a1.09,1.09,0,0,0-.38.79c0,.59,0,1.3,0,1.87h0a1.49,1.49,0,0,1-.4-2.08A1.52,1.52,0,0,1,195.58,127.42Z"/><path id="Trazado_370" data-name="Trazado 370" class="cls-39" d="M193.59,128.85a2.54,2.54,0,0,1,1.89-2.3,2.88,2.88,0,0,1,3.72,1.67,2.91,2.91,0,0,1,.16.63,2.45,2.45,0,0,1-1.53,2.17c0-.21,0-.45,0-.66,0-.47-.1-.18.24-.56a1.57,1.57,0,0,0,.36-1,1.78,1.78,0,0,0-1.08-1.47c-1.42-.65-3.24.63-2.64,2a1.54,1.54,0,0,0,.54.67h0c0,.74,0,.89,0,1A2.56,2.56,0,0,1,193.59,128.85Z"/><path id="Trazado_371" data-name="Trazado 371" class="cls-40" d="M193.59,128.21a2.48,2.48,0,0,1,.94-1.81,3.06,3.06,0,0,1,1.95-.63,2.67,2.67,0,0,1,2.88,2.44v.64a2.61,2.61,0,0,0-1.58-2.18c-1.72-.81-4.14.23-4.19,2.18Z"/><path id="Trazado_372" data-name="Trazado 372" class="cls-11" d="M186.31,119.61c0,1.11,0,2.21,0,3.31h-3.42C186.6,119.32,185.87,120.05,186.31,119.61Z"/><path id="Trazado_373" data-name="Trazado 373" class="cls-11" d="M185,119.61l-4.12,4v-8Z"/><path id="Trazado_374" data-name="Trazado 374" class="cls-42" d="M182.88,122.92h49.28l-3.43-3.31,3.43-3.3H182.88c1.14,1.09,2.29,2.19,3.43,3.3C185.84,120.08,186.67,119.25,182.88,122.92Zm-2,.67,4.12-4-4.12-4h53.31l-4.13,4,4.13,4Z"/><path id="Trazado_375" data-name="Trazado 375" class="cls-43" d="M180.87,151c0-.33,0-4.87,0-10.12v11.39C180.87,151.79,180.86,151.38,180.87,151Z"/><path id="Trazado_376" data-name="Trazado 376" class="cls-44" d="M255.09,167.65a42.15,42.15,0,0,0,1.84-5.6c-3.43-.19,3.3.2,0,0-2.33-.14-4.78.14-6.55-2a2.08,2.08,0,0,0-1.16-.49,29.52,29.52,0,0,0-4.47-.91c-2.71-.2-5.45-.14-8.18-.22-.64,0-2.5-.36-2.5-.36s.29-30.62.11-34.51H180.87s0,27,0,27.37,0,.83,0,1.26c0,1.14.08,2.29,0,3.47V164c0,.85,0,1.7,0,2.56v2.71a27.58,27.58,0,0,0,.2,3.14c1.12,0,2.12.09,3.13.09,12.71,0,25.39,0,38.1,0a242.68,242.68,0,0,0,24.71-.84,5.5,5.5,0,0,1,1.34.2,9.56,9.56,0,0,1-5.46,1.45c-12.09.22-13.27.13-14.57.29-.24,0-.45.35-.74.58.87.76,1.73.51,2.55.51q5.49,0,11,0a37,37,0,0,0,4.34-.19c2.1-.27,4.32-.51,5.88-2.13a2.8,2.8,0,0,1,2.21-.92c11.74-.55-3.82.52,0,0C252.18,170.06,256.17,168.74,255.09,167.65Zm-61.31-39.93c1.89-2.27,3.2-2.34,5.32-.23a4.85,4.85,0,0,0-5.32.23Zm28,2.74c-.75,2.88-1.41,5.78-2.3,8.6a11.59,11.59,0,0,1-4.27,6.18,9.74,9.74,0,0,1-6.63,1.89c.12-1.85.11-1.92,1.64-2.1a8.36,8.36,0,0,0,7-5.2A31.93,31.93,0,0,0,219,134a36.53,36.53,0,0,0,.47-4.29c0-.25,0-.61.14-.73.34-.32.8-.73,1.18-.71s.8.53,1,.91a2.16,2.16,0,0,1,0,1.26Zm-3-3.47c1.36-1.29,2.33-1.3,3.91,0Zm22.71,34.11c-2.22,0-4.56.33-7.12-.88,4.68-.85,11-.39,14,1C245.88,162,243.68,161.1,241.49,161.1Z"/><path id="Trazado_377" data-name="Trazado 377" class="cls-4" d="M148.77,156a2.6,2.6,0,0,0,2-.59c.19-.14.47-.38.47-.61h0l-.06-.47q-1.08-8.13-2.17-16.27l-3.42-2c.29,2.13.57,4.27.86,6.41.44,3.28.87,6.57,1.31,9.86.13.94.25,1.88.38,2.82v0A1,1,0,0,0,148.77,156Z"/><path id="Trazado_378" data-name="Trazado 378" class="cls-4" d="M182.92,173.14v-.46c0-2.43,0-4.86,0-7.29s0-5.15,0-7.72l-3.13-1.8,0,11.33v3.67c0,.83,0,1.66,0,2.49h0a1.12,1.12,0,0,0,.1.48c.28.57.91.61,1.52.43s1.51-.66,1.51-1.13Z"/><path id="Trazado_379" data-name="Trazado 379" class="cls-4" d="M254.24,112.27c.94.53,1.88,1.08,2.82,1.62l13.33,7.7h0a3.28,3.28,0,0,1,1,.79c.19.24.17.31.17.33a.11.11,0,0,1,0,.05,1.55,1.55,0,0,1-.46.59,4.15,4.15,0,0,1-.68.48h0l-17.31,10-5.73,3.31q-7,4-13.94,8.05L207.92,159.9h0a11,11,0,0,1-9.62,0h0l-3.83-2.21-25.77-14.88L146.44,130l-3.76-2.17-17.21-9.94-4.19-2.42-5.73-3.3h0l-2.31-1.34-3.38-2h0l-11.65-6.72h0a3.74,3.74,0,0,1-1-.79c-.19-.24-.17-.31-.17-.33s0,0,0-.05a1.63,1.63,0,0,1,.45-.59,4,4,0,0,1,.68-.48h0l9.94-5.74,2.95-1.71,14.38-8.29V77.52L98.31,93.2c.11.49.23,1,.35,1.45.15.69-.07,1.64-.67,1.84a4.43,4.43,0,0,1-1.84-.27,9.77,9.77,0,0,0-2.09-.31s-.2,0-.19,0a6.66,6.66,0,0,0-2.55,5,7.21,7.21,0,0,0,4,6.09h0l14.47,8.36,4,2.31,3.43,2,8.22,4.75,17.21,9.93,2.9,1.68,3.42,2,19.69,11.36,11.14,6.44,3.13,1.8,6.67,3.86,4.83,2.78,1,.56h0a16.67,16.67,0,0,0,15.36,0h0l8.85-5.11,3.42-2,10.35-6h0l5-2.87h0l3.43-2,4.39-2.54,3.77-2.17h0l3.1-1.79,4-2.29,3.43-2,12.77-7.37h0a6.62,6.62,0,0,0,0-12.18h0L182.3,64.13v6.62l5.89,3.4,2.95,1.71L220,92.49l3,1.7Z"/><path id="Trazado_380" data-name="Trazado 380" class="cls-4" d="M257.69,155.8c-.5.65-1.49.29-2.19-.15a3.19,3.19,0,0,1-.43-.32.68.68,0,0,1-.27-.44h0c0-.16,0-.32.07-.48l-11,6.33h0l-4.27,2.47c-.13.94-.25,1.9-.38,2.84a1.1,1.1,0,0,1-.22.52c-.5.65-1.49.29-2.19-.15a3.25,3.25,0,0,1-.42-.31.65.65,0,0,1-.27-.45h0l.06-.48-2.79,1.61L220.89,174c-.13.92-.25,1.84-.38,2.76h0s0,.08,0,.12a1.16,1.16,0,0,1-.21.48c-.51.65-1.51.3-2.2-.14-.24-.16-.69-.48-.69-.77v0l.06-.44-9.57,5.53h0a11,11,0,0,1-9.61,0h0l-3.8-2.2-11.54-6.66v.46c0,.48-1,1-1.5,1.14s-1.24.14-1.52-.44a1.1,1.1,0,0,1-.1-.47h0c0-.83,0-1.66,0-2.49-1.06-.61-2.12-1.23-3.18-1.83l-7.93-4.58-17.52-10.12.06.47h0c0,.23-.29.47-.48.61a2.59,2.59,0,0,1-2,.59,1,1,0,0,1-.64-.82h0c-.13-.94-.26-1.88-.38-2.82h0l-1.31-.76-3.76-2.17-17.21-9.93-6.06-3.5h0l.06.42c0,.24-.21.48-.47.67a2.63,2.63,0,0,1-2,.59,1,1,0,0,1-.65-.81v0c-.13-.94-.25-1.87-.38-2.8l-3.42-2-8.08-4.66h0a3.37,3.37,0,0,1-1-.79c-.19-.24-.17-.31-.17-.33s0,0,0,0a1.78,1.78,0,0,1,.46-.59,4.63,4.63,0,0,1,.68-.48h0l6.81-3.94,2.77-1.6-.24-1.85-4-2.31-8.2,4.73a6.62,6.62,0,0,0,0,12.17h0l11.84,6.84,3.48,2,3.42,2h0l15.25,8.8,3.13,1.8,7.69,4.45,2.27,1.3,3.42,2,16.56,9.57,2.2,1.27,8.9,5.13,3.12,1.81,12.48,7.2h0l.23.13a13.93,13.93,0,0,0,3.86,1.39,17.19,17.19,0,0,0,2.69.33,15.75,15.75,0,0,0,8.59-1.85h0l5.73-3.3h0l3.42-2,13.49-7.78,1.83-1.06,3.42-2h0l15.24-8.79,3.42-2,9.66-5.58h0a6.62,6.62,0,0,0,0-12.18h0L260.24,138c-.28,2.05-.55,4.1-.83,6.15l4.71,2.71h0a3.55,3.55,0,0,1,1,.79c.19.24.17.31.17.33a.11.11,0,0,1,0,0,1.55,1.55,0,0,1-.46.59,4.15,4.15,0,0,1-.68.48h0l-5.83,3.36c-.12.93-.25,1.85-.37,2.77,0,0,0,.08,0,.13A1.2,1.2,0,0,1,257.69,155.8Z"/><path id="Trazado_381" data-name="Trazado 381" class="cls-4" d="M218.09,177.25c.68.44,1.69.79,2.19.15a1.09,1.09,0,0,0,.21-.48.5.5,0,0,1,0-.12h0c.12-.92.25-1.85.37-2.76q1.1-8.13,2.18-16.25l-3.42,2L217.45,176l-.06.44v0C217.39,176.77,217.84,177.1,218.09,177.25Z"/><path id="Trazado_382" data-name="Trazado 382" class="cls-4" d="M236.14,165.66a.7.7,0,0,0,.28.45,4.12,4.12,0,0,0,.41.32c.71.43,1.7.79,2.2.14a1.09,1.09,0,0,0,.21-.51l.39-2.85c.12-.91.24-1.82.37-2.73q.9-6.76,1.82-13.52l-3.43,2h0L236.5,163l-.3,2.16-.06.48Z"/><path id="Trazado_383" data-name="Trazado 383" class="cls-4" d="M228.11,189.45a6.09,6.09,0,0,0,5.51.66,5.28,5.28,0,0,0,3-4.42h0q.81-6,1.61-11.94l.45-3.35-3.42,2-1.74,12.91h0a2.92,2.92,0,0,1-.71,1.69c-.8.77-2.18.34-3.14-.22h0c-.17-.1-8.2-6.28-8.37-6.38-1,.7,5.83,7.37,4.71,7.88l2.1,1.2h0Z"/><path id="Trazado_384" data-name="Trazado 384" class="cls-4" d="M238.66,170.39l-.45,3.35,8.53,4.92h0c4.08,2.39,8,.59,8.52-3.75h0q1-7.65,2.06-15.3l-3.42,2-1.74,12.91h0a2.86,2.86,0,0,1-.72,1.68c-.8.78-2.17.34-3.13-.22h0Z"/><path id="Trazado_385" data-name="Trazado 385" class="cls-16" d="M125.71,352.1v-1.55c31.92-18.43,30.27-17.38,30.67-17.9a1.69,1.69,0,0,0,.35-.94v1.58a1.85,1.85,0,0,1-.69,1.29C155.81,334.75,158.35,333.27,125.71,352.1Z"/><path id="Trazado_386" data-name="Trazado 386" class="cls-45" d="M144.7,330.92l-4.07,2.35-12.24-7.07,4.09-2.35Z"/><path id="Trazado_387" data-name="Trazado 387" class="cls-45" d="M128.75,321.69l-4.07,2.36L112.44,317l4.07-2.34Z"/><path id="Trazado_388" data-name="Trazado 388" class="cls-14" d="M126.93,341.21a4,4,0,0,1-2.24-.46,1.24,1.24,0,0,1-.76-1.31c.07-.54.63-1.12,1.65-1.71a6.62,6.62,0,0,1,2.93-1,3.89,3.89,0,0,1,2.24.44,1.27,1.27,0,0,1,.79,1.33c-.09.55-.68,1.14-1.78,1.77A6.15,6.15,0,0,1,126.93,341.21Z"/><path id="Trazado_389" data-name="Trazado 389" class="cls-46" d="M125.71,350.55v1.57l-10.88,6.27v-1.56Z"/><path id="Trazado_390" data-name="Trazado 390" class="cls-47" d="M50.94,307.39Q88.32,329,125.71,350.55l-10.88,6.28L40.09,313.66Z"/><path id="Trazado_391" data-name="Trazado 391" class="cls-16" d="M124.69,340.75a4,4,0,0,0,2.24.46,6.15,6.15,0,0,0,2.83-.92c1.1-.63,1.68-1.22,1.78-1.76a1.28,1.28,0,0,0-.79-1.34,4,4,0,0,0-2.24-.44,6.62,6.62,0,0,0-2.93,1c-1,.59-1.58,1.17-1.65,1.71A1.24,1.24,0,0,0,124.69,340.75Zm-2.23-2.31c.78-1.25,2.83-2.17,4.29-2.52a6.85,6.85,0,0,1,5,.56c.74.42,1.32,1.06,1.1,1.89l4-2.28,1.35.78-11,6.37-1.25-.73c2.41-1.37.09.28-2.41-1.18C122.29,340.65,121.72,339.59,122.46,338.44Z"/><path id="Trazado_392" data-name="Trazado 392" class="cls-16" d="M115.54,336.54l8-4.61,1.22.72-1.21.69a7.37,7.37,0,0,1,2-.15,2.38,2.38,0,0,1,2.08,1.4l-1.73.46c-.38-1-1.88-1.27-3-.91-1.33.39-1.53.63-6,3.18Z"/><path id="Trazado_393" data-name="Trazado 393" class="cls-45" d="M112.8,312.49l-4.09,2.36-12.22-7.07,4.07-2.36Z"/><path id="Trazado_394" data-name="Trazado 394" class="cls-14" d="M112.2,333.21c-.78-.13-2.49-.73-2.57-1.51-.07-.58.67-.95,1.32-1,1.54-.16,2.69,1,5.15,1.56A5,5,0,0,1,112.2,333.21Z"/><path id="Trazado_395" data-name="Trazado 395" class="cls-16" d="M111.91,330.73c-1.68-.35-3.32.78-1.45,1.86a5.28,5.28,0,0,0,3.57.59,7.9,7.9,0,0,0,2.07-.94C114.38,331.82,112.8,330.91,111.91,330.73Zm-4.22.76c-.06-1,1.23-1.65,2.27-1.83,2.78-.46,4.5,1.25,7.2,2,.41-.23,1.18-.61,1.15-1.1-.12-.86-2-1.69-2.83-1.78a5,5,0,0,0-1.87.31l-1.13-.87a6,6,0,0,1,4-.24,8.36,8.36,0,0,1,3.51,2,1,1,0,0,1,.08,1.48,1,1,0,0,1-.23.19c-.69.56-4.14,2.36-5.29,3.24a2.18,2.18,0,0,0-.63.75l-1.4-.82a2.25,2.25,0,0,1,.71-.73,8.75,8.75,0,0,1-4.1-1c-.89-.51-1.35-1-1.4-1.53Z"/><path id="Trazado_396" data-name="Trazado 396" class="cls-16" d="M101.2,321.81a11.39,11.39,0,0,1,7.49-1.4c3.55.62,7,2.93,4.48,5.52l-1.76-.63c1-1.1.94-2.1-.65-3a7.38,7.38,0,0,0-5.58-.63,9.7,9.7,0,0,0-4.51,2.68c-.88,1.2-.18,2.31,1.06,3a7,7,0,0,0,6,.23l1.1,1.05a9.85,9.85,0,0,1-8.25-.5,4.54,4.54,0,0,1-2.17-2.09C97.79,324.34,99.62,322.73,101.2,321.81Z"/><path id="Trazado_397" data-name="Trazado 397" class="cls-45" d="M96.84,303.27l-4.08,2.35-12.24-7.05,4.08-2.35Z"/><path id="Trazado_398" data-name="Trazado 398" class="cls-14" d="M155.61,330.14c.54.31,1.22,1,1.12,1.57a2,2,0,0,1-1.12,1.58l-29.9,17.26Q88.33,329,50.94,307.39c32.57-18.82,30.15-17.54,31.23-17.77a6.06,6.06,0,0,1,4.12.5Zm-27.22-3.94,12.24,7.07,4.07-2.35-12.22-7.07Zm-4.2,10.73c-2.71,1.58-2.53,3.35-.73,4.39,2.49,1.47,4.8-.17,2.4,1.19l1.26.73,11-6.38-1.35-.78-4,2.29C133.38,336.35,128.7,334.34,124.19,336.93Zm-.66-5-8,4.61,1.36.78c4.51-2.58,4.67-2.8,6-3.18,1.14-.37,2.62-.06,3,.91l1.73-.46a2.38,2.38,0,0,0-2.09-1.4,7.33,7.33,0,0,0-2,.15l1.2-.69ZM112.44,317l12.24,7.07,4.07-2.36-12.24-7.05Zm-3.81,13.14c-1.29.75-1.37,1.84.45,2.9a8.75,8.75,0,0,0,4.1,1,2.35,2.35,0,0,0-.71.73l1.41.81c.33-.66.91-1,2.92-2.18.54-.3,2.51-1.4,3-1.8a1.06,1.06,0,0,0,.34-1.45,1,1,0,0,0-.19-.22,8.42,8.42,0,0,0-3.51-2,6,6,0,0,0-4,.24l1.14.86a5.15,5.15,0,0,1,1.86-.3c.88.08,2.72.91,2.83,1.78,0,.49-.75.89-1.15,1.1-1.5-.4-3.14-1.31-4.29-1.71A5.36,5.36,0,0,0,108.63,330.12Zm.23-1.48-1.1-1.05a7,7,0,0,1-6-.24c-1.23-.72-1.94-1.82-1.06-3a9.62,9.62,0,0,1,4.51-2.68,7.34,7.34,0,0,1,5.58.63c1.59.92,1.63,1.92.65,3l1.76.63c2.53-2.59-.93-4.9-4.48-5.53a11.46,11.46,0,0,0-7.49,1.41c-1.58.92-3.41,2.53-2.76,4.24a4.45,4.45,0,0,0,2.16,2.08,9.84,9.84,0,0,0,8.26.51Zm-21-21c-.24-.8-1-1.19-1.71-1.58-1.43-.8-2-1.18-4.12-2.37-.76-.43-1.52-.85-2.29-1.31a10.1,10.1,0,0,0-1.86-1,6.43,6.43,0,0,0-3.14-.22,14.19,14.19,0,0,0-4.23,2.1c-1.83,1.14-1.82,1.06-2.77,1.6-1.39.85-1.4,1.94-.49,2.79.41.35,6.35,3.67,7.53,4.39a6.28,6.28,0,0,0,3.42,1.29c3,.19,4.63-1.65,7.87-3.39.63-.32,1.5-.74,1.76-1.53A1.27,1.27,0,0,0,87.84,307.68Zm4.92-2.06,4.08-2.35-12.23-7-4.09,2.35Zm20,6.87-12.24-7.07-4.07,2.36,12.22,7.07Z"/><path id="Trazado_399" data-name="Trazado 399" class="cls-48" d="M72.47,310.78c-3.94-2.28-3.45-2-4.12-2.39s-1.5-.79-1.7-1.58a1.47,1.47,0,0,1,.44-1.44,5.77,5.77,0,0,1,1.34-.86c3.18-1.67,4.88-3.59,7.87-3.39a6.37,6.37,0,0,1,3.42,1.3c.78.46,7,3.95,7.53,4.39a1.48,1.48,0,0,1,.56,1.64c-.26.78-1.11,1.2-1.76,1.53-3.23,1.73-4.89,3.58-7.87,3.39C76.32,313.25,76.22,312.86,72.47,310.78Z"/><path id="Trazado_400" data-name="Trazado 400" class="cls-14" d="M38.72,317.59c-1.59-.93-1.43-2.37,0-3.13l1.35-.8c.17,0-.8-.46,74.76,43.17l-1.36.78a6,6,0,0,1-4.13.5C108.22,357.86,112.91,360.43,38.72,317.59Z"/><path id="Trazado_401" data-name="Trazado 401" class="cls-16" d="M37.58,317.59V316a1.6,1.6,0,0,0,.36.93c.38.5-4.15-2.21,70.09,40.66a6.06,6.06,0,0,0,4.14.5,8.81,8.81,0,0,0,2.66-1.27v1.55l-1.36.79a5.92,5.92,0,0,1-4.13.5c-1.06-.23,3.47,2.25-70.62-40.53A1.89,1.89,0,0,1,37.58,317.59Z"/><path id="Trazado_402" data-name="Trazado 402" class="cls-16" d="M165.09,49.19V66.56L142.68,79.73l-15.24-8.8Z"/><path id="Trazado_403" data-name="Trazado 403" class="cls-11" d="M182.88,116.31h49.28a46.43,46.43,0,0,1-3.43,3.3l3.43,3.31H182.88l3.24-3.26Z"/><path id="Trazado_404" data-name="Trazado 404" class="cls-11" d="M234.18,123.59l-4.13-4c1.19-1,3-3,4.13-4Z"/><path id="Trazado_405" data-name="Trazado 405" class="cls-49" d="M376.43,206.13c3.71,5,2.76,10.7-2.53,13.77s-13.94,2.63-20.34-1.79a13.73,13.73,0,0,1-5.82-7.66,8.16,8.16,0,0,1,1.18-6.8c1.46-2.11,4.23-4,8.35-4.7C364.49,197.77,372.56,200.92,376.43,206.13Zm-6,5.42a2.41,2.41,0,0,0,1-2.18,3.74,3.74,0,0,0-1.17-2.1l.68-.39-.81-.72-.68.39a7.09,7.09,0,0,0-2.82-1.38,4.93,4.93,0,0,0-3.49.5,2.17,2.17,0,0,0-1.21,2.69,6.3,6.3,0,0,0,1.05,1.92l-4.51,2.61a1.86,1.86,0,0,1-.55-1.71,2.83,2.83,0,0,1,1.12-1.47l-1.65-1.07a3.2,3.2,0,0,0-1.32,1.56,2.29,2.29,0,0,0,0,1.63,6.16,6.16,0,0,0,1.19,1.75l-1.42.82.81.72,1.44-.83a6.48,6.48,0,0,0,3.4,1.47,5.18,5.18,0,0,0,3.36-.62,2.49,2.49,0,0,0,1.41-2,3,3,0,0,0-.34-1.34,12.46,12.46,0,0,0-.95-1.45l4.09-2.37a1.55,1.55,0,0,1,0,2.19,1.6,1.6,0,0,1-.35.28l1.64,1.13Z"/><path id="Trazado_406" data-name="Trazado 406" class="cls-50" d="M371.51,209.37a2.41,2.41,0,0,1-1,2.18l-1.64-1.13a1.55,1.55,0,0,0,.58-2.11,1.91,1.91,0,0,0-.27-.35l-4.09,2.37a13.9,13.9,0,0,1,.95,1.45,2.83,2.83,0,0,1,.33,1.34,2.46,2.46,0,0,1-1.4,2,5.21,5.21,0,0,1-3.37.62,6.51,6.51,0,0,1-3.4-1.47l-1.43.83-.81-.72,1.42-.82a5.88,5.88,0,0,1-1.19-1.76,2.26,2.26,0,0,1,0-1.62,3.2,3.2,0,0,1,1.32-1.56l1.65,1.07a2.83,2.83,0,0,0-1.12,1.47,1.85,1.85,0,0,0,.54,1.71l4.52-2.61a6.09,6.09,0,0,1-1.05-1.92,2.16,2.16,0,0,1,1.21-2.69,4.91,4.91,0,0,1,3.48-.5,7,7,0,0,1,2.83,1.38l.68-.39.81.71-.68.4A3.65,3.65,0,0,1,371.51,209.37Zm-7.08.13,3.92-2.26c-2.13-1.47-4.29-.55-4.47.63a2.58,2.58,0,0,0,.54,1.63Zm-.12,3.41a3,3,0,0,0-.64-1.79l-4.32,2.49a4,4,0,0,0,2,.76,3.4,3.4,0,0,0,2.05-.41,1.61,1.61,0,0,0,.87-1.05Z"/><path id="Trazado_407" data-name="Trazado 407" class="cls-49" d="M368.35,207.24l-3.92,2.26a2.48,2.48,0,0,1-.55-1.63C364.06,206.69,366.22,205.77,368.35,207.24Z"/><path id="Trazado_408" data-name="Trazado 408" class="cls-49" d="M363.67,211.12a3.05,3.05,0,0,1,.64,1.79,1.59,1.59,0,0,1-.88,1.05,3.37,3.37,0,0,1-2,.41,4,4,0,0,1-2-.76Z"/><path id="Trazado_409" data-name="Trazado 409" class="cls-50" d="M329.13,206.48c-.2-5.18,5.94-9.84,14.79-11a32.25,32.25,0,0,1,13.29.92,21,21,0,0,0-4.69,1.05,27,27,0,0,0-9.77.29,16.7,16.7,0,0,0-8,3.9c-3.19,3.11-2.89,7,.65,9.91a18.25,18.25,0,0,0,8.21,3.48,12.93,12.93,0,0,0,.46,1.23c.16.39.38.79.45.94A24.17,24.17,0,0,1,333.09,213a11.12,11.12,0,0,1-3-3.27A7.23,7.23,0,0,1,329.13,206.48Z"/><path id="Trazado_410" data-name="Trazado 410" class="cls-50" d="M345.88,202.22c1.79-2.59,5.19-4.91,10.15-5.71,8.63-1.42,18.52,2.31,23.27,8.73,4.53,6.1,3.33,13-3.07,16.73s-16.91,3.2-24.7-2.17c-4.12-2.84-6.32-6.31-7.08-9.32A9.93,9.93,0,0,1,345.88,202.22Zm28,17.68c5.28-3.07,6.24-8.76,2.53-13.77-3.87-5.21-11.94-8.36-19.16-7.19-4.12.67-6.9,2.6-8.35,4.7a8.16,8.16,0,0,0-1.18,6.8,13.75,13.75,0,0,0,5.82,7.67c6.4,4.42,15,4.86,20.34,1.79Z"/><path id="Trazado_411" data-name="Trazado 411" class="cls-49" d="M344.14,206.44l-.57,2.13a1.11,1.11,0,0,1-.27-1A2.29,2.29,0,0,1,344.14,206.44Z"/><path id="Trazado_412" data-name="Trazado 412" class="cls-49" d="M343.61,215a18.25,18.25,0,0,1-8.21-3.48c-3.55-2.93-3.84-6.8-.65-9.91a16.7,16.7,0,0,1,8-3.9,27,27,0,0,1,9.77-.29c-3.81,1.37-7.1,4.07-8.1,8l-.21.75-1.51-.59a3.22,3.22,0,0,0-1.31,1.4,1.48,1.48,0,0,0,.05,1.3,4.36,4.36,0,0,0,1.25,1.28l-1.42.82.84.48,1.08-.62s0,.19,0,.25a10.41,10.41,0,0,0,.25,3.77C343.48,214.54,343.58,214.89,343.61,215Z"/><path id="Trazado_413" data-name="Trazado 413" class="cls-50" d="M344.21,206.16c0,.1,0,.19-.07.28a2.29,2.29,0,0,0-.84,1.1,1.11,1.11,0,0,0,.27,1,11.74,11.74,0,0,0-.38,1.66l-1.08.62-.84-.48,1.42-.82a4.52,4.52,0,0,1-1.26-1.28,1.48,1.48,0,0,1,0-1.3,3.17,3.17,0,0,1,1.31-1.4Z"/><path id="Trazado_414" data-name="Trazado 414" class="cls-49" d="M344.21,206.16l0,0a10.39,10.39,0,0,0,.2,4.3c.75,3,2.95,6.47,7.07,9.31,7.8,5.38,18.31,5.9,24.71,2.17a11.17,11.17,0,0,0,5.42-6.54c-.33,1.21-.66,2.43-1,3.64a10.16,10.16,0,0,1-1.25,2.84c-.22.32-.45.64-.69.94a14.75,14.75,0,0,1-7.86,4.69c-8.18,2.1-18.1-.9-23.55-6.59a16.32,16.32,0,0,1-2.9-4,12,12,0,0,1-1.31-4.5,10,10,0,0,1,.05-2A34,34,0,0,1,344.21,206.16Z"/><path id="Trazado_415" data-name="Trazado 415" class="cls-49" d="M299.85,184.47v-4.21a6.64,6.64,0,0,0,0,.77,7.91,7.91,0,0,0,1.75,3.87,12.62,12.62,0,0,0,.86.93,17.64,17.64,0,0,0,6.86,4c.11,0,.5.17.63.2,6.82,2.12,15.76,1.76,22-1.53,3.29-1.71,6.37-4.58,6.37-8.26v4.57c0,3-2.08,5.51-4.59,7.2a25.14,25.14,0,0,1-12.22,3.83h0a32.05,32.05,0,0,1-11.28-1.14,18.89,18.89,0,0,1-7.86-4.3A7.89,7.89,0,0,1,299.85,184.47Z"/><path id="Trazado_416" data-name="Trazado 416" class="cls-50" d="M335.93,190.22c-.83,2.5-3,4.44-5.3,5.77-8.29,4.78-22.09,4.22-29.1-1.23a29.82,29.82,0,0,0,11.31,2.2c5,.78,10.87.19,15.42-2.39a20.7,20.7,0,0,0,5.55-2.6,13.24,13.24,0,0,0,2.12-1.75Z"/><path id="Trazado_417" data-name="Trazado 417" class="cls-49" d="M329.14,211.17c0-.22,0,.08,0-4.69a7.26,7.26,0,0,0,1,3.26,11,11,0,0,0,3,3.27,24.17,24.17,0,0,0,11.43,4.14,16.81,16.81,0,0,0,2.8,3.8c.36.37.71.7,1.05,1-5.6,0-12.5-1.53-16.51-5.41A8.21,8.21,0,0,1,329.14,211.17Z"/><path id="Trazado_418" data-name="Trazado 418" class="cls-49" d="M312.84,197a31.39,31.39,0,0,0,8.73-1.15,29.88,29.88,0,0,0,6.69-1.23C323.73,197.13,317.86,197.74,312.84,197Z"/><path id="Trazado_419" data-name="Trazado 419" class="cls-49" d="M293.77,185.56a2.44,2.44,0,0,0,0,.27v-4.58a7.34,7.34,0,0,0,1.48,4.28,16.11,16.11,0,0,0,7.55,5.15h0a19,19,0,0,0,7.52,4,31.94,31.94,0,0,0,11.26,1.14c-7.68,2.21-16.67,1.1-22.12-2.08a11.51,11.51,0,0,1-5.24-5.5A6.53,6.53,0,0,1,293.77,185.56Z"/><path id="Trazado_420" data-name="Trazado 420" class="cls-49" d="M299.85,180.19v-4l0,0a7.63,7.63,0,0,0,1.73,4.11c5.59,7.05,21.65,8.7,31.15,3.23a13.07,13.07,0,0,0,3.88-3.21,7.44,7.44,0,0,0,1.77-4.66v4.58c0,3.69-3.09,6.57-6.37,8.27a27.94,27.94,0,0,1-11.94,2.84,31.45,31.45,0,0,1-10.72-1.51c-3-1-6.34-2.86-8.1-5.4A7.25,7.25,0,0,1,299.85,180.19Z"/><path id="Trazado_421" data-name="Trazado 421" class="cls-50" d="M336.65,171a7,7,0,0,1,0,9.29,13.07,13.07,0,0,1-3.88,3.21c-9.5,5.47-25.56,3.82-31.15-3.23a6.94,6.94,0,0,1-1.13-7.44,11.7,11.7,0,0,1,5-5.07c6.47-3.72,16.21-4.22,23.58-1.65A16.6,16.6,0,0,1,336.65,171Zm-3.11,8.47a5.79,5.79,0,0,0,0-7.66c-4.59-5.78-17.79-7.17-25.64-2.66a11,11,0,0,0-3.2,2.65,5.78,5.78,0,0,0,0,7.65c4.59,5.79,17.8,7.17,25.63,2.67a11.1,11.1,0,0,0,3.21-2.65Z"/><path id="Trazado_422" data-name="Trazado 422" class="cls-49" d="M333.55,171.8a5.78,5.78,0,0,1,0,7.65,10.94,10.94,0,0,1-3.21,2.65c-7.83,4.5-21,3.12-25.63-2.67a5.78,5.78,0,0,1,0-7.65,11,11,0,0,1,3.2-2.65C315.76,164.62,329,166,333.55,171.8Zm-10.72,1.4,2.09-.08a2.34,2.34,0,0,0-1.33-1.8,6.94,6.94,0,0,0-2.68-.72c0-.19,0-.37.08-.55l-1.18-.06c0,.18-.06.37-.08.55a8.34,8.34,0,0,0-3.09.49,2.56,2.56,0,0,0-1.8,1.92c-.15,1.06.68,1.79,1.69,2.19a12.08,12.08,0,0,0,2.44.67c-.18,1.22-.35,2.45-.53,3.67a3.34,3.34,0,0,1-1.92-.78,2.11,2.11,0,0,1-.63-1.4l-2,.12a2.17,2.17,0,0,0,.58,1.55,3.53,3.53,0,0,0,1.49,1,10.74,10.74,0,0,0,2.38.51l-.16,1.15,1.17.06c.06-.39.12-.78.17-1.17a7.38,7.38,0,0,0,3.55-.69,2.67,2.67,0,0,0,1.61-1.94,1.92,1.92,0,0,0-1-1.88,5.06,5.06,0,0,0-1.44-.65c-.32-.1-1-.24-1.95-.44l.48-3.33a3.55,3.55,0,0,1,1.47.55A1.55,1.55,0,0,1,322.83,173.2Z"/><path id="Trazado_423" data-name="Trazado 423" class="cls-50" d="M324.92,173.12l-2.1.08a1.49,1.49,0,0,0-.59-1.08,3.25,3.25,0,0,0-1.47-.55l-.48,3.33c1,.19,1.64.33,2,.43a5.19,5.19,0,0,1,1.44.65,1.94,1.94,0,0,1,1,1.88A2.65,2.65,0,0,1,323,179.8a7.5,7.5,0,0,1-3.55.7c-.06.39-.11.77-.17,1.16l-1.18,0,.17-1.16a11.32,11.32,0,0,1-2.38-.5,3.76,3.76,0,0,1-1.5-1,2.19,2.19,0,0,1-.57-1.56l2-.12a2.07,2.07,0,0,0,.63,1.4,3.32,3.32,0,0,0,1.92.79c.17-1.23.35-2.45.53-3.68a12.17,12.17,0,0,1-2.45-.67c-1-.4-1.84-1.12-1.68-2.19a2.57,2.57,0,0,1,1.8-1.91,8.34,8.34,0,0,1,3.09-.49c0-.18,0-.37.08-.55l1.18.06c0,.18-.05.36-.08.55a7,7,0,0,1,2.69.72A2.37,2.37,0,0,1,324.92,173.12Zm-2.35,4.73a1.09,1.09,0,0,0-.39-1,5.83,5.83,0,0,0-2.05-.79l-.51,3.52a4.39,4.39,0,0,0,2-.49,1.68,1.68,0,0,0,.95-1.2Zm-3.44-3.15c.15-1.07.31-2.13.46-3.2a4.43,4.43,0,0,0-1.92.45,1.43,1.43,0,0,0-.82,1c-.15,1.08,1.22,1.51,2.29,1.75Z"/><path id="Trazado_424" data-name="Trazado 424" class="cls-49" d="M322.18,176.81a1.08,1.08,0,0,1,.4,1,1.67,1.67,0,0,1-.94,1.2,4.39,4.39,0,0,1-2,.49l.5-3.51A5.56,5.56,0,0,1,322.18,176.81Z"/><path id="Trazado_425" data-name="Trazado 425" class="cls-49" d="M319.6,171.5c-.16,1.07-.31,2.13-.46,3.2-1.07-.24-2.44-.67-2.28-1.75a1.41,1.41,0,0,1,.82-1A4.4,4.4,0,0,1,319.6,171.5Z"/><path id="Trazado_426" data-name="Trazado 426" class="cls-50" d="M302.79,190.68a16.11,16.11,0,0,1-7.55-5.15c-2.2-3.05-2-6.6.92-9.65a15.23,15.23,0,0,1,4.31-3.06,6.61,6.61,0,0,0-.62,2.8v.54c-3.68,3.17-3.55,7.32.25,10.4a8.64,8.64,0,0,0,2,3.46C302.36,190.28,302.77,190.66,302.79,190.68Z"/><path id="Trazado_427" data-name="Trazado 427" class="cls-49" d="M299.88,185.44a7.15,7.15,0,0,0,.22,1.12c-3.79-3.09-3.93-7.23-.25-10.4C299.85,185.27,299.83,185.08,299.88,185.44Z"/><path id="Trazado_428" data-name="Trazado 428" class="cls-49" d="M297.81,192.65a17.62,17.62,0,0,0,3.31,1.92c.39.19.39.17.41.19,7,5.45,20.81,6,29.1,1.23,2.3-1.33,4.47-3.27,5.3-5.77h0l.35-.37v2.83a1.62,1.62,0,0,0,0-.22,6.75,6.75,0,0,1-.7,3.24,9.4,9.4,0,0,1-1.3,1.94c-.28.32-.58.63-.89.92-8,7.51-27,6.75-33.6-.87a7.58,7.58,0,0,1-2-5.06v0Z"/><path id="Trazado_429" data-name="Trazado 429" class="cls-49" d="M9.89,282.26v-4l0,0a7.56,7.56,0,0,0,1.73,4.11c5.59,7.05,21.65,8.7,31.15,3.23a13.19,13.19,0,0,0,3.88-3.21,7.5,7.5,0,0,0,1.77-4.66v4.58c0,3.69-3.09,6.57-6.38,8.27a27.9,27.9,0,0,1-11.93,2.84,31.51,31.51,0,0,1-10.73-1.51c-2.95-1-6.33-2.86-8.09-5.4A7.33,7.33,0,0,1,9.89,282.26Z"/><path id="Trazado_430" data-name="Trazado 430" class="cls-50" d="M46.69,273.05a7,7,0,0,1,0,9.3,13.51,13.51,0,0,1-3.88,3.21c-9.5,5.47-25.56,3.82-31.15-3.23a7,7,0,0,1-1.14-7.44,11.67,11.67,0,0,1,5-5.08c6.48-3.72,16.22-4.22,23.58-1.65A16.71,16.71,0,0,1,46.69,273.05Zm-3.1,8.47a5.79,5.79,0,0,0,0-7.65C39,268.08,25.81,266.7,18,271.2a10.9,10.9,0,0,0-3.2,2.65,5.77,5.77,0,0,0,0,7.65c4.59,5.8,17.79,7.17,25.63,2.67a11.07,11.07,0,0,0,3.21-2.65Z"/><path id="Trazado_431" data-name="Trazado 431" class="cls-49" d="M43.6,273.87a5.79,5.79,0,0,1,0,7.65,10.94,10.94,0,0,1-3.21,2.65c-7.84,4.5-21,3.13-25.63-2.66a5.78,5.78,0,0,1,0-7.66A11.06,11.06,0,0,1,18,271.2C25.81,266.7,39,268.08,43.6,273.87Zm-10.72,1.41L35,275.2a2.33,2.33,0,0,0-1.33-1.8,6.81,6.81,0,0,0-2.68-.72c0-.19.05-.37.08-.55l-1.18-.06c0,.18-.05.37-.08.55a8.54,8.54,0,0,0-3.09.48,2.61,2.61,0,0,0-1.8,1.93c-.15,1.06.68,1.79,1.69,2.18a12.29,12.29,0,0,0,2.44.68c-.17,1.22-.35,2.45-.53,3.67a3.35,3.35,0,0,1-1.92-.79,2.06,2.06,0,0,1-.62-1.4l-2.05.12a2.21,2.21,0,0,0,.58,1.56A3.73,3.73,0,0,0,26,282a11.46,11.46,0,0,0,2.38.5l-.16,1.16,1.18.05c.05-.39.11-.78.17-1.17a7.31,7.31,0,0,0,3.54-.69,2.63,2.63,0,0,0,1.61-1.94,1.92,1.92,0,0,0-1-1.88,5.06,5.06,0,0,0-1.44-.65c-.31-.1-1-.24-1.95-.43l.48-3.33a3.25,3.25,0,0,1,1.47.55A1.53,1.53,0,0,1,32.88,275.28Z"/><path id="Trazado_432" data-name="Trazado 432" class="cls-50" d="M35,275.2l-2.09.08a1.55,1.55,0,0,0-.6-1.09,3.5,3.5,0,0,0-1.47-.55c-.15,1.11-.31,2.22-.47,3.33,1,.2,1.63.34,1.95.44a5.19,5.19,0,0,1,1.44.65,1.94,1.94,0,0,1,1,1.88,2.68,2.68,0,0,1-1.61,1.94,7.38,7.38,0,0,1-3.55.69c-.06.39-.11.78-.17,1.17l-1.18-.06.17-1.15A10.74,10.74,0,0,1,26,282a3.56,3.56,0,0,1-1.5-1,2.16,2.16,0,0,1-.57-1.55l2-.12a2.07,2.07,0,0,0,.63,1.4,3.32,3.32,0,0,0,1.92.79c.18-1.23.35-2.45.53-3.68a11.3,11.3,0,0,1-2.44-.67c-1-.39-1.85-1.12-1.69-2.19a2.58,2.58,0,0,1,1.8-1.92,8.28,8.28,0,0,1,3.08-.48c0-.19.06-.37.08-.55l1.18.05c0,.19-.05.37-.08.55a6.91,6.91,0,0,1,2.68.73A2.32,2.32,0,0,1,35,275.2Zm-2.35,4.73a1.08,1.08,0,0,0-.39-1,5.57,5.57,0,0,0-2-.79l-.51,3.52a4.28,4.28,0,0,0,2-.5,1.65,1.65,0,0,0,.94-1.2Zm-3.44-3.16c.15-1.06.31-2.13.46-3.19a4.22,4.22,0,0,0-1.91.45,1.39,1.39,0,0,0-.82,1c-.16,1.08,1.2,1.5,2.27,1.74Z"/><path id="Trazado_433" data-name="Trazado 433" class="cls-49" d="M32.23,278.89a1.07,1.07,0,0,1,.39,1,1.65,1.65,0,0,1-.94,1.2,4.28,4.28,0,0,1-2,.5l.51-3.52A5.47,5.47,0,0,1,32.23,278.89Z"/><path id="Trazado_434" data-name="Trazado 434" class="cls-49" d="M29.64,273.58c-.15,1.06-.3,2.13-.46,3.19-1.07-.24-2.43-.66-2.27-1.74a1.39,1.39,0,0,1,.82-1A4.22,4.22,0,0,1,29.64,273.58Z"/><path id="Trazado_435" data-name="Trazado 435" class="cls-49" d="M203.25,363.84c3.71,5,2.76,10.69-2.53,13.76s-13.94,2.63-20.34-1.78a13.72,13.72,0,0,1-5.82-7.67,8.21,8.21,0,0,1,1.18-6.8c1.46-2.1,4.24-4,8.35-4.7C191.31,355.47,199.38,358.62,203.25,363.84Zm-5.95,5.42a2.42,2.42,0,0,0,1-2.19,3.72,3.72,0,0,0-1.17-2.1l.68-.39-.8-.71-.68.39a7.06,7.06,0,0,0-2.83-1.38,4.93,4.93,0,0,0-3.49.49,2.19,2.19,0,0,0-1.21,2.7,6.57,6.57,0,0,0,1.06,1.92l-4.52,2.61a1.84,1.84,0,0,1-.54-1.72,2.81,2.81,0,0,1,1.11-1.47l-1.65-1.06a3.25,3.25,0,0,0-1.32,1.56,2.21,2.21,0,0,0,0,1.62,6,6,0,0,0,1.19,1.76l-1.42.82.81.71L185,372a6.61,6.61,0,0,0,3.4,1.48,5.34,5.34,0,0,0,3.37-.62,2.49,2.49,0,0,0,1.4-2,2.82,2.82,0,0,0-.33-1.33,14,14,0,0,0-1-1.46l4.09-2.36a1.56,1.56,0,0,1,0,2.19,1.49,1.49,0,0,1-.35.27l1.63,1.14Z"/><path id="Trazado_436" data-name="Trazado 436" class="cls-50" d="M198.33,367.07a2.44,2.44,0,0,1-1,2.19l-1.63-1.13a1.56,1.56,0,0,0,.58-2.12,1.81,1.81,0,0,0-.28-.34L191.87,368a13.13,13.13,0,0,1,1,1.46,2.94,2.94,0,0,1,.33,1.33,2.51,2.51,0,0,1-1.4,2,5.27,5.27,0,0,1-3.37.61A6.51,6.51,0,0,1,185,372l-1.43.83-.81-.71,1.42-.82a6.39,6.39,0,0,1-1.2-1.76,2.29,2.29,0,0,1,0-1.63,3.3,3.3,0,0,1,1.32-1.56l1.65,1.07a2.83,2.83,0,0,0-1.12,1.47,1.85,1.85,0,0,0,.55,1.71l4.51-2.6a6.47,6.47,0,0,1-1-1.93,2.18,2.18,0,0,1,1.21-2.69,4.92,4.92,0,0,1,3.49-.49,7,7,0,0,1,2.82,1.38l.68-.4.81.72-.68.39A3.75,3.75,0,0,1,198.33,367.07Zm-7.08.14,3.92-2.27c-2.13-1.46-4.29-.54-4.47.64a2.53,2.53,0,0,0,.55,1.63Zm-.12,3.4a3.1,3.1,0,0,0-.64-1.79l-4.32,2.5a4.2,4.2,0,0,0,2,.76,3.37,3.37,0,0,0,2-.42,1.57,1.57,0,0,0,.88-1.05Z"/><path id="Trazado_437" data-name="Trazado 437" class="cls-49" d="M195.17,364.94l-3.92,2.27a2.55,2.55,0,0,1-.55-1.63C190.88,364.39,193,363.47,195.17,364.94Z"/><path id="Trazado_438" data-name="Trazado 438" class="cls-49" d="M190.49,368.82a3.1,3.1,0,0,1,.64,1.79,1.57,1.57,0,0,1-.88,1.05,3.37,3.37,0,0,1-2,.42,4.2,4.2,0,0,1-2-.76Z"/><path id="Trazado_439" data-name="Trazado 439" class="cls-50" d="M156,364.18c-.2-5.18,5.94-9.83,14.8-11.05a32.21,32.21,0,0,1,13.28.92,20.76,20.76,0,0,0-4.68,1.06,27,27,0,0,0-9.78.28,16.88,16.88,0,0,0-8,3.9c-3.19,3.12-2.89,7,.65,9.91a18.38,18.38,0,0,0,8.21,3.49c.13.41.29.82.46,1.22s.38.8.45.94a24,24,0,0,1-11.42-4.14,10.77,10.77,0,0,1-3-3.27A7.19,7.19,0,0,1,156,364.18Z"/><path id="Trazado_440" data-name="Trazado 440" class="cls-50" d="M172.7,359.92c1.79-2.59,5.19-4.9,10.15-5.71,8.63-1.42,18.52,2.31,23.27,8.73,4.53,6.1,3.33,13-3.07,16.73s-16.91,3.2-24.7-2.17c-4.12-2.84-6.32-6.31-7.08-9.32A10,10,0,0,1,172.7,359.92Zm28,17.68c5.28-3.07,6.24-8.76,2.53-13.76-3.87-5.22-11.94-8.36-19.16-7.19-4.12.67-6.9,2.59-8.35,4.7a8.16,8.16,0,0,0-1.18,6.8,13.73,13.73,0,0,0,5.82,7.66c6.4,4.42,15,4.87,20.34,1.79Z"/><path id="Trazado_441" data-name="Trazado 441" class="cls-49" d="M171,364.15l-.57,2.13a1.12,1.12,0,0,1-.27-1A2.24,2.24,0,0,1,171,364.15Z"/><path id="Trazado_442" data-name="Trazado 442" class="cls-49" d="M170.43,372.69a18.38,18.38,0,0,1-8.21-3.49c-3.55-2.93-3.84-6.8-.65-9.91a16.88,16.88,0,0,1,8-3.9,27,27,0,0,1,9.78-.28c-3.81,1.37-7.11,4.06-8.11,8l-.21.76-1.51-.6a3.3,3.3,0,0,0-1.31,1.41,1.49,1.49,0,0,0,0,1.3,4.45,4.45,0,0,0,1.25,1.27l-1.42.82.84.48,1.08-.62s0,.2,0,.25a10.48,10.48,0,0,0,.25,3.78C170.3,372.24,170.4,372.6,170.43,372.69Z"/><path id="Trazado_443" data-name="Trazado 443" class="cls-50" d="M171,363.87l-.08.28a2.24,2.24,0,0,0-.84,1.1,1.12,1.12,0,0,0,.27,1,13.16,13.16,0,0,0-.38,1.65l-1.08.62-.84-.48,1.42-.82a4.45,4.45,0,0,1-1.25-1.27,1.45,1.45,0,0,1,0-1.3,3.28,3.28,0,0,1,1.3-1.41Z"/><path id="Trazado_444" data-name="Trazado 444" class="cls-49" d="M171,363.87h0a10.44,10.44,0,0,0,.19,4.31c.76,3,3,6.47,7.08,9.31,7.79,5.38,18.3,5.89,24.7,2.17a11.18,11.18,0,0,0,5.42-6.55c-.33,1.21-.65,2.43-1,3.64a9.78,9.78,0,0,1-1.26,2.84,10.42,10.42,0,0,1-.69.95,14.73,14.73,0,0,1-7.85,4.68c-8.18,2.1-18.1-.9-23.56-6.58a16.66,16.66,0,0,1-2.89-4,12,12,0,0,1-1.31-4.5,10.07,10.07,0,0,1,0-2A33.46,33.46,0,0,1,171,363.87Z"/><path id="Trazado_445" data-name="Trazado 445" class="cls-49" d="M156,368.88c0-.22,0,.08,0-4.7a7.19,7.19,0,0,0,1,3.26,11,11,0,0,0,3,3.27,24,24,0,0,0,11.43,4.14,16.77,16.77,0,0,0,2.79,3.8c.37.38.71.7,1.05,1-5.6,0-12.5-1.54-16.5-5.42A8.19,8.19,0,0,1,156,368.88Z"/></g></svg>