<svg id="Capa_1" data-name="Capa 1" xmlns="http://www.w3.org/2000/svg" xmlns:xlink="http://www.w3.org/1999/xlink" viewBox="0 0 324.29 407.67"><defs><style>.cls-1,.cls-2,.cls-33,.cls-34,.cls-35,.cls-36,.cls-37,.cls-38,.cls-39,.cls-40,.cls-41,.cls-42,.cls-43,.cls-44,.cls-45,.cls-46,.cls-50,.cls-61,.cls-62,.cls-63,.cls-64,.cls-65,.cls-66,.cls-67,.cls-68,.cls-69,.cls-70,.cls-71,.cls-74,.cls-75,.cls-77,.cls-78,.cls-79,.cls-80,.cls-81,.cls-82,.cls-83,.cls-84,.cls-85,.cls-86,.cls-87,.cls-91{isolation:isolate;}.cls-1,.cls-44,.cls-45,.cls-46{opacity:0.9;}.cls-1{fill:url(#Degradado_sin_nombre_32);}.cls-2,.cls-50,.cls-71,.cls-74,.cls-75,.cls-91{opacity:0.95;}.cls-2{fill:url(#Degradado_sin_nombre_46);}.cls-3{opacity:0.2;}.cls-4{fill:#5b58a3;}.cls-5,.cls-60{fill:#afb6e5;}.cls-6{fill:url(#Degradado_sin_nombre_3);}.cls-7{fill:url(#Degradado_sin_nombre_4);}.cls-8{fill:url(#Degradado_sin_nombre_5);}.cls-9{fill:url(#Degradado_sin_nombre_6);}.cls-10{fill:url(#Degradado_sin_nombre_7);}.cls-11{fill:url(#Degradado_sin_nombre_8);}.cls-12{fill:url(#Degradado_sin_nombre_9);}.cls-13{fill:url(#Degradado_sin_nombre_10);}.cls-14{fill:url(#Degradado_sin_nombre_11);}.cls-15{fill:url(#Degradado_sin_nombre_12);}.cls-16{fill:url(#Degradado_sin_nombre_13);}.cls-17{fill:url(#Degradado_sin_nombre_14);}.cls-18{fill:url(#Degradado_sin_nombre_15);}.cls-19{fill:url(#Degradado_sin_nombre_16);}.cls-20{fill:url(#Degradado_sin_nombre_17);}.cls-21{fill:url(#Degradado_sin_nombre_18);}.cls-22{fill:url(#Degradado_sin_nombre_19);}.cls-23{fill:url(#Degradado_sin_nombre_20);}.cls-24{fill:url(#Degradado_sin_nombre_21);}.cls-25{fill:url(#Degradado_sin_nombre_22);}.cls-26{fill:url(#Degradado_sin_nombre_23);}.cls-27,.cls-44,.cls-91{fill:#fff;}.cls-28{fill:url(#Degradado_sin_nombre_26);}.cls-29{fill:url(#Degradado_sin_nombre_25);}.cls-30{fill:url(#Degradado_sin_nombre_26-2);}.cls-31{fill:url(#Degradado_sin_nombre_27);}.cls-32{opacity:0.3;}.cls-33{fill:#9ba0d5;opacity:0.24;}.cls-34{fill:#9599d0;opacity:0.31;}.cls-35{fill:#8f93cc;opacity:0.38;}.cls-36{fill:#8a8cc7;opacity:0.45;}.cls-37{fill:#8486c3;opacity:0.51;}.cls-38{fill:#7e7fbe;opacity:0.58;}.cls-39{fill:#7879ba;opacity:0.65;}.cls-40,.cls-68{fill:#7272b5;}.cls-40{opacity:0.72;}.cls-41{fill:#6c6cb1;opacity:0.79;}.cls-42{fill:#6765ac;opacity:0.86;}.cls-43{fill:#615fa8;opacity:0.93;}.cls-45{fill:url(#Degradado_sin_nombre_32-2);}.cls-46{fill:url(#Degradado_sin_nombre_29);}.cls-47{fill:url(#Degradado_sin_nombre_48);}.cls-48{fill:url(#Degradado_sin_nombre_31);}.cls-49{fill:url(#Degradado_sin_nombre_32-3);}.cls-50{fill:url(#Degradado_sin_nombre_46-2);}.cls-51{fill:url(#Degradado_sin_nombre_51);}.cls-52{fill:url(#Degradado_sin_nombre_50);}.cls-53{fill:#ced3f4;}.cls-54{fill:url(#Degradado_sin_nombre_41);}.cls-55{fill:url(#Degradado_sin_nombre_40);}.cls-56{fill:url(#Degradado_sin_nombre_38);}.cls-57{fill:url(#Degradado_sin_nombre_39);}.cls-58{fill:url(#Degradado_sin_nombre_40-2);}.cls-59{fill:url(#Degradado_sin_nombre_41-2);}.cls-60{fill-opacity:0;}.cls-61{fill:#a7addf;opacity:0.09;}.cls-62{fill:#a0a5d9;opacity:0.18;}.cls-63{fill:#989cd3;opacity:0.27;}.cls-64{fill:#9094cd;opacity:0.36;}.cls-65{fill:#898bc7;opacity:0.46;}.cls-66{fill:#8183c1;opacity:0.55;}.cls-67{fill:#7a7abb;opacity:0.64;}.cls-68{opacity:0.73;}.cls-69{fill:#6a69af;opacity:0.82;}.cls-70{fill:#6361a9;opacity:0.91;}.cls-71{fill:url(#Degradado_sin_nombre_46-3);}.cls-72{fill:url(#Degradado_sin_nombre_48-2);}.cls-73{fill:url(#Degradado_sin_nombre_44);}.cls-74{fill:url(#Degradado_sin_nombre_46-4);}.cls-75{fill:url(#Degradado_sin_nombre_46-5);}.cls-76{fill:#dcdff4;}.cls-77{fill:#8f92cc;opacity:0.38;}.cls-78{fill:#8a8dc8;opacity:0.44;}.cls-79{fill:#8687c5;opacity:0.49;}.cls-80{fill:#8182c1;opacity:0.55;}.cls-81{fill:#7c7dbd;opacity:0.61;}.cls-82{fill:#7778b9;opacity:0.66;}.cls-83{fill:#7372b6;opacity:0.72;}.cls-84{fill:#6e6db2;opacity:0.77;}.cls-85{fill:#6968ae;opacity:0.83;}.cls-86{fill:#6463aa;opacity:0.89;}.cls-87{fill:#605da7;opacity:0.94;}.cls-88{fill:url(#Degradado_sin_nombre_49);}.cls-89{fill:url(#Degradado_sin_nombre_48-3);}.cls-90{fill:url(#Degradado_sin_nombre_49-2);}.cls-92{fill:url(#Degradado_sin_nombre_50-2);}.cls-93{fill:url(#Degradado_sin_nombre_51-2);}</style><linearGradient id="Degradado_sin_nombre_32" x1="-992.65" y1="1011.91" x2="-992.54" y2="1011.12" gradientTransform="matrix(109.11, 0, 0, -270.02, 108548.64, 273178.43)" gradientUnits="userSpaceOnUse"><stop offset="0.03" stop-color="#bb6df3"/><stop offset="0.38" stop-color="#976df3"/><stop offset="0.56" stop-color="#836df3"/><stop offset="0.69" stop-color="#786ff3"/><stop offset="0.93" stop-color="#5c74f6"/><stop offset="1" stop-color="#5277f7"/></linearGradient><linearGradient id="Degradado_sin_nombre_46" x1="-992.37" y1="1011.13" x2="-991.84" y2="1010.3" gradientTransform="matrix(109.11, 0, 0, -197.43, 108368.77, 199904.18)" gradientUnits="userSpaceOnUse"><stop offset="0.01" stop-color="#2be9a3"/><stop offset="0.29" stop-color="#07ccbf"/><stop offset="0.34" stop-color="#00c7c5"/><stop offset="0.44" stop-color="#08beca"/><stop offset="0.59" stop-color="#20a6d9"/><stop offset="0.77" stop-color="#4780f0"/><stop offset="0.82" stop-color="#5277f7"/></linearGradient><linearGradient id="Degradado_sin_nombre_3" x1="-994.09" y1="1011.52" x2="-993.26" y2="1010.53" gradientTransform="matrix(152.69, 0, 0, -395.03, 151881.68, 399584.15)" gradientUnits="userSpaceOnUse"><stop offset="0" stop-color="#b0b7e6"/><stop offset="0.19" stop-color="#b2b8e6"/><stop offset="0.28" stop-color="#b3b9e6"/><stop offset="0.41" stop-color="#afb6e5"/><stop offset="0.91" stop-color="#afb6e5"/><stop offset="1" stop-color="#b0b7e6"/></linearGradient><linearGradient id="Degradado_sin_nombre_4" x1="-994.08" y1="1011.52" x2="-993.26" y2="1010.53" gradientTransform="matrix(152.44, 0, 0, -394.94, 151629.69, 399490.62)" gradientUnits="userSpaceOnUse"><stop offset="0" stop-color="#b2b9e6"/><stop offset="0.19" stop-color="#b4bbe7"/><stop offset="0.28" stop-color="#b7bde7"/><stop offset="0.41" stop-color="#afb6e5"/><stop offset="0.91" stop-color="#afb6e5"/><stop offset="1" stop-color="#b2b9e6"/></linearGradient><linearGradient id="Degradado_sin_nombre_5" x1="-994.08" y1="1011.52" x2="-993.25" y2="1010.54" gradientTransform="matrix(152.2, 0, 0, -394.85, 151385.1, 399398.77)" gradientUnits="userSpaceOnUse"><stop offset="0" stop-color="#b3bae7"/><stop offset="0.19" stop-color="#b7bde9"/><stop offset="0.28" stop-color="#bac0e9"/><stop offset="0.41" stop-color="#afb6e5"/><stop offset="0.91" stop-color="#afb6e5"/><stop offset="1" stop-color="#b3bae7"/></linearGradient><linearGradient id="Degradado_sin_nombre_6" x1="-994.08" y1="1011.52" x2="-993.25" y2="1010.54" gradientTransform="matrix(151.95, 0, 0, -394.75, 151139.68, 399300.52)" gradientUnits="userSpaceOnUse"><stop offset="0" stop-color="#b5bbe8"/><stop offset="0.19" stop-color="#b9c0ea"/><stop offset="0.28" stop-color="#bec4ea"/><stop offset="0.41" stop-color="#afb6e5"/><stop offset="0.91" stop-color="#afb6e5"/><stop offset="1" stop-color="#b5bbe8"/></linearGradient><linearGradient id="Degradado_sin_nombre_7" x1="-994.07" y1="1011.52" x2="-993.24" y2="1010.54" gradientTransform="matrix(151.7, 0, 0, -394.66, 150886.7, 399209.77)" gradientUnits="userSpaceOnUse"><stop offset="0" stop-color="#b6bde8"/><stop offset="0.19" stop-color="#bcc2eb"/><stop offset="0.28" stop-color="#c2c7eb"/><stop offset="0.41" stop-color="#afb6e5"/><stop offset="0.91" stop-color="#afb6e5"/><stop offset="1" stop-color="#b6bde8"/></linearGradient><linearGradient id="Degradado_sin_nombre_8" x1="-994.07" y1="1011.52" x2="-993.24" y2="1010.54" gradientTransform="matrix(151.45, 0, 0, -394.57, 150638.12, 399115.85)" gradientUnits="userSpaceOnUse"><stop offset="0" stop-color="#b8bee9"/><stop offset="0.19" stop-color="#bec5ec"/><stop offset="0.28" stop-color="#c6cbec"/><stop offset="0.39" stop-color="#b2b9e6"/><stop offset="0.41" stop-color="#afb6e5"/><stop offset="0.91" stop-color="#afb6e5"/><stop offset="1" stop-color="#b8bee9"/></linearGradient><linearGradient id="Degradado_sin_nombre_9" x1="-994.07" y1="1011.52" x2="-993.24" y2="1010.54" gradientTransform="matrix(151.2, 0, 0, -394.47, 150389.12, 399021.55)" gradientUnits="userSpaceOnUse"><stop offset="0" stop-color="#b9bfea"/><stop offset="0.19" stop-color="#c1c7ee"/><stop offset="0.28" stop-color="#caceee"/><stop offset="0.38" stop-color="#b6bce7"/><stop offset="0.41" stop-color="#afb6e5"/><stop offset="0.91" stop-color="#afb6e5"/><stop offset="1" stop-color="#b9bfea"/></linearGradient><linearGradient id="Degradado_sin_nombre_10" x1="-994.07" y1="1011.53" x2="-993.23" y2="1010.54" gradientTransform="matrix(150.95, 0, 0, -394.38, 150139.7, 398927.99)" gradientUnits="userSpaceOnUse"><stop offset="0" stop-color="#bac1ea"/><stop offset="0.19" stop-color="#c4c9ef"/><stop offset="0.28" stop-color="#cdd2ef"/><stop offset="0.37" stop-color="#b9bfe8"/><stop offset="0.41" stop-color="#afb6e5"/><stop offset="0.91" stop-color="#afb6e5"/><stop offset="1" stop-color="#b9c0e9"/><stop offset="1" stop-color="#bac1ea"/></linearGradient><linearGradient id="Degradado_sin_nombre_11" x1="-994.06" y1="1011.53" x2="-993.23" y2="1010.54" gradientTransform="matrix(150.7, 0, 0, -394.29, 149894.1, 398836.85)" gradientUnits="userSpaceOnUse"><stop offset="0" stop-color="#bcc2eb"/><stop offset="0.19" stop-color="#c6ccf0"/><stop offset="0.28" stop-color="#d0d4f0"/><stop offset="0.28" stop-color="#d1d5f0"/><stop offset="0.36" stop-color="#bdc3e9"/><stop offset="0.41" stop-color="#afb6e5"/><stop offset="0.91" stop-color="#afb6e5"/><stop offset="0.99" stop-color="#b9c0ea"/><stop offset="1" stop-color="#bcc2eb"/></linearGradient><linearGradient id="Degradado_sin_nombre_12" x1="-994.06" y1="1011.53" x2="-993.22" y2="1010.54" gradientTransform="matrix(150.45, 0, 0, -394.2, 149643.11, 398740.7)" gradientUnits="userSpaceOnUse"><stop offset="0" stop-color="#bdc3ec"/><stop offset="0.19" stop-color="#c9cef1"/><stop offset="0.27" stop-color="#d3d7f1"/><stop offset="0.28" stop-color="#d5d9f1"/><stop offset="0.35" stop-color="#c1c6ea"/><stop offset="0.41" stop-color="#afb6e5"/><stop offset="0.91" stop-color="#afb6e5"/><stop offset="0.98" stop-color="#b9c0ea"/><stop offset="1" stop-color="#bdc3ec"/></linearGradient><linearGradient id="Degradado_sin_nombre_13" x1="-994.06" y1="1011.53" x2="-993.22" y2="1010.54" gradientTransform="matrix(150.2, 0, 0, -394.1, 149393.71, 398647.17)" gradientUnits="userSpaceOnUse"><stop offset="0" stop-color="#bfc5ec"/><stop offset="0.19" stop-color="#cbd1f3"/><stop offset="0.26" stop-color="#d5d8f3"/><stop offset="0.28" stop-color="#d9dcf3"/><stop offset="0.35" stop-color="#c5caec"/><stop offset="0.41" stop-color="#afb6e5"/><stop offset="0.91" stop-color="#afb6e5"/><stop offset="0.98" stop-color="#b9c0e9"/><stop offset="1" stop-color="#bfc5ec"/></linearGradient><linearGradient id="Degradado_sin_nombre_14" x1="-994.05" y1="1011.53" x2="-993.21" y2="1010.54" gradientTransform="matrix(149.95, 0, 0, -394.01, 149144.71, 398553.22)" gradientUnits="userSpaceOnUse"><stop offset="0" stop-color="#c0c6ed"/><stop offset="0.19" stop-color="#ced3f4"/><stop offset="0.26" stop-color="#d8dbf4"/><stop offset="0.28" stop-color="#dde0f4"/><stop offset="0.34" stop-color="#c9ceed"/><stop offset="0.41" stop-color="#afb6e5"/><stop offset="0.91" stop-color="#afb6e5"/><stop offset="0.97" stop-color="#b9c0ea"/><stop offset="1" stop-color="#c0c6ed"/></linearGradient><linearGradient id="Degradado_sin_nombre_15" x1="-994.05" y1="1011.53" x2="-993.21" y2="1010.54" gradientTransform="matrix(149.7, 0, 0, -393.92, 148896.14, 398459.91)" gradientUnits="userSpaceOnUse"><stop offset="0" stop-color="#c2c7ee"/><stop offset="0.19" stop-color="#d0d6f5"/><stop offset="0.25" stop-color="#daddf5"/><stop offset="0.28" stop-color="#e1e3f5"/><stop offset="0.34" stop-color="#cdd1ee"/><stop offset="0.41" stop-color="#afb6e5"/><stop offset="0.91" stop-color="#afb6e5"/><stop offset="0.97" stop-color="#b9bfea"/><stop offset="1" stop-color="#c2c7ee"/></linearGradient><linearGradient id="Degradado_sin_nombre_16" x1="-994.05" y1="1011.53" x2="-993.2" y2="1010.54" gradientTransform="matrix(149.45, 0, 0, -393.83, 148647.15, 398366.35)" gradientUnits="userSpaceOnUse"><stop offset="0" stop-color="#c3c9ee"/><stop offset="0.19" stop-color="#d3d8f6"/><stop offset="0.25" stop-color="#dde0f6"/><stop offset="0.28" stop-color="#e4e7f6"/><stop offset="0.34" stop-color="#d0d4ef"/><stop offset="0.41" stop-color="#afb6e5"/><stop offset="0.91" stop-color="#afb6e5"/><stop offset="0.97" stop-color="#b9c0e9"/><stop offset="1" stop-color="#c3c9ee"/></linearGradient><linearGradient id="Degradado_sin_nombre_17" x1="-994.04" y1="1011.53" x2="-993.2" y2="1010.55" gradientTransform="matrix(149.19, 0, 0, -393.73, 148394.75, 398272.43)" gradientUnits="userSpaceOnUse"><stop offset="0" stop-color="#c4caef"/><stop offset="0.19" stop-color="#d6daf8"/><stop offset="0.25" stop-color="#e0e2f8"/><stop offset="0.28" stop-color="#e8eaf8"/><stop offset="0.33" stop-color="#d4d8f1"/><stop offset="0.41" stop-color="#afb6e5"/><stop offset="0.91" stop-color="#afb6e5"/><stop offset="0.96" stop-color="#b9c0ea"/><stop offset="1" stop-color="#c4caef"/></linearGradient><linearGradient id="Degradado_sin_nombre_18" x1="-994.04" y1="1011.53" x2="-993.19" y2="1010.55" gradientTransform="matrix(148.95, 0, 0, -393.64, 148150.15, 398175.57)" gradientUnits="userSpaceOnUse"><stop offset="0" stop-color="#c6cbf0"/><stop offset="0.19" stop-color="#d8ddf9"/><stop offset="0.25" stop-color="#e2e5f9"/><stop offset="0.28" stop-color="#eceef9"/><stop offset="0.33" stop-color="#d8dbf2"/><stop offset="0.41" stop-color="#afb6e5"/><stop offset="0.91" stop-color="#afb6e5"/><stop offset="0.96" stop-color="#b9bfea"/><stop offset="1" stop-color="#c6cbf0"/></linearGradient><linearGradient id="Degradado_sin_nombre_19" x1="-994.04" y1="1011.54" x2="-993.19" y2="1010.55" gradientTransform="matrix(148.7, 0, 0, -393.55, 147904.74, 398086.27)" gradientUnits="userSpaceOnUse"><stop offset="0" stop-color="#c7cdf0"/><stop offset="0.19" stop-color="#dbdffa"/><stop offset="0.24" stop-color="#e5e7fa"/><stop offset="0.28" stop-color="#f0f1fa"/><stop offset="0.33" stop-color="#dcdff3"/><stop offset="0.41" stop-color="#afb6e5"/><stop offset="0.91" stop-color="#afb6e5"/><stop offset="0.96" stop-color="#b9c0e9"/><stop offset="1" stop-color="#c7cdf0"/></linearGradient><linearGradient id="Degradado_sin_nombre_20" x1="-994.03" y1="1011.54" x2="-993.18" y2="1010.55" gradientTransform="matrix(148.45, 0, 0, -393.46, 147651.75, 397992.31)" gradientUnits="userSpaceOnUse"><stop offset="0" stop-color="#c9cef1"/><stop offset="0.19" stop-color="#dde2fb"/><stop offset="0.24" stop-color="#e7eafb"/><stop offset="0.28" stop-color="#f4f5fb"/><stop offset="0.33" stop-color="#e0e3f4"/><stop offset="0.41" stop-color="#afb6e5"/><stop offset="0.91" stop-color="#afb6e5"/><stop offset="0.95" stop-color="#b9c0ea"/><stop offset="1" stop-color="#c9cef1"/></linearGradient><linearGradient id="Degradado_sin_nombre_21" x1="-994.03" y1="1011.54" x2="-993.18" y2="1010.55" gradientTransform="matrix(148.2, 0, 0, -393.36, 147402.77, 397899.01)" gradientUnits="userSpaceOnUse"><stop offset="0" stop-color="#cacff2"/><stop offset="0.19" stop-color="#e0e4fd"/><stop offset="0.24" stop-color="#eaecfd"/><stop offset="0.28" stop-color="#f7f8fd"/><stop offset="0.32" stop-color="#e3e5f6"/><stop offset="0.41" stop-color="#b0b7e5"/><stop offset="0.41" stop-color="#afb6e5"/><stop offset="0.91" stop-color="#afb6e5"/><stop offset="0.95" stop-color="#b9c0ea"/><stop offset="1" stop-color="#cacff2"/></linearGradient><linearGradient id="Degradado_sin_nombre_22" x1="-994.03" y1="1011.54" x2="-993.17" y2="1010.55" gradientTransform="matrix(147.95, 0, 0, -393.27, 147153.76, 397808.23)" gradientUnits="userSpaceOnUse"><stop offset="0" stop-color="#ccd1f2"/><stop offset="0.19" stop-color="#e2e7fe"/><stop offset="0.24" stop-color="#eceffe"/><stop offset="0.28" stop-color="#fbfcfe"/><stop offset="0.32" stop-color="#e7e9f7"/><stop offset="0.4" stop-color="#b4bbe6"/><stop offset="0.41" stop-color="#afb6e5"/><stop offset="0.91" stop-color="#afb6e5"/><stop offset="0.95" stop-color="#b9c0e9"/><stop offset="1" stop-color="#ccd1f2"/></linearGradient><linearGradient id="Degradado_sin_nombre_23" x1="-994.02" y1="1011.54" x2="-993.17" y2="1010.55" gradientTransform="matrix(147.71, 0, 0, -393.18, 146912.74, 397716.58)" gradientUnits="userSpaceOnUse"><stop offset="0" stop-color="#cdd2f3"/><stop offset="0.19" stop-color="#e5e9ff"/><stop offset="0.24" stop-color="#eff1ff"/><stop offset="0.28" stop-color="#fff"/><stop offset="0.32" stop-color="#ebedf8"/><stop offset="0.4" stop-color="#b8bee8"/><stop offset="0.41" stop-color="#afb6e5"/><stop offset="0.91" stop-color="#afb6e5"/><stop offset="0.95" stop-color="#b9c0ea"/><stop offset="1" stop-color="#cdd2f3"/></linearGradient><linearGradient id="Degradado_sin_nombre_26" x1="-995.4" y1="1010.72" x2="-992.2" y2="1011.19" gradientTransform="matrix(138.68, 0, 0, -384.57, 137927.73, 389014.54)" gradientUnits="userSpaceOnUse"><stop offset="0" stop-color="#afb6e5"/><stop offset="0.14" stop-color="#b5bce8"/><stop offset="0.35" stop-color="#c7cdf0"/><stop offset="0.58" stop-color="#e5e9ff"/><stop offset="0.85" stop-color="#f4f6ff"/><stop offset="1" stop-color="#fff"/></linearGradient><linearGradient id="Degradado_sin_nombre_25" x1="-993.84" y1="1011.56" x2="-992.27" y2="1010.53" gradientTransform="matrix(125.04, 0, 0, -364.4, 124332.79, 368633.04)" gradientUnits="userSpaceOnUse"><stop offset="0.01" stop-color="#273b98"/><stop offset="0.23" stop-color="#2e2ba2"/><stop offset="0.4" stop-color="#361cac"/><stop offset="0.77" stop-color="#440b88"/><stop offset="1" stop-color="#4e0070"/></linearGradient><linearGradient id="Degradado_sin_nombre_26-2" x1="-941.62" y1="1012.82" x2="-947.69" y2="1013.74" gradientTransform="matrix(10.53, 0, 0, -37.28, 10152.8, 38020.42)" xlink:href="#Degradado_sin_nombre_26"/><linearGradient id="Degradado_sin_nombre_27" x1="-992.77" y1="1010.67" x2="-992.4" y2="1011.59" gradientTransform="matrix(109.1, 0, 0, -256.82, 108453.66, 259909.21)" gradientUnits="userSpaceOnUse"><stop offset="0" stop-color="#5277f7"/><stop offset="0.09" stop-color="#5a76f6"/><stop offset="0.24" stop-color="#7273f5"/><stop offset="0.42" stop-color="#9970f4"/><stop offset="0.56" stop-color="#bb6df3"/><stop offset="1" stop-color="#f36dd4"/></linearGradient><linearGradient id="Degradado_sin_nombre_32-2" x1="-993.04" y1="1011.61" x2="-993.82" y2="1013.41" gradientTransform="matrix(127.23, 0, 0, -143.85, 126559.27, 145801.44)" xlink:href="#Degradado_sin_nombre_32"/><linearGradient id="Degradado_sin_nombre_29" x1="-993.08" y1="1011.72" x2="-993.97" y2="1012.68" gradientTransform="matrix(127.23, 0, 0, -143.85, 126559.27, 145801.44)" gradientUnits="userSpaceOnUse"><stop offset="0.03" stop-color="#bb6df3"/><stop offset="0.6" stop-color="#5b41e0"/><stop offset="0.71" stop-color="#594be4"/><stop offset="0.91" stop-color="#5467f0"/><stop offset="1" stop-color="#5277f7"/></linearGradient><radialGradient id="Degradado_sin_nombre_48" cx="-1001.37" cy="1012.45" r="1.36" gradientTransform="translate(-87768.58 88846.89) rotate(180) scale(87.66 87.67)" gradientUnits="userSpaceOnUse"><stop offset="0" stop-color="#711f56"/><stop offset="0.16" stop-color="#6b1d51"/><stop offset="0.36" stop-color="#5c1946"/><stop offset="0.58" stop-color="#421232"/><stop offset="0.82" stop-color="#1f0818"/><stop offset="1"/></radialGradient><radialGradient id="Degradado_sin_nombre_31" cx="-1001.47" cy="1011.42" r="0.22" gradientTransform="translate(-91559.82 199233.61) rotate(180) scale(85.87 196.63)" gradientUnits="userSpaceOnUse"><stop offset="0" stop-color="#836df3"/><stop offset="0.11" stop-color="#6554bc"/><stop offset="0.23" stop-color="#4a3e8b"/><stop offset="0.36" stop-color="#332b60"/><stop offset="0.48" stop-color="#211b3d"/><stop offset="0.61" stop-color="#120f22"/><stop offset="0.73" stop-color="#08060f"/><stop offset="0.86" stop-color="#020103"/><stop offset="1"/></radialGradient><linearGradient id="Degradado_sin_nombre_32-3" x1="-986.11" y1="1017.8" x2="-985.32" y2="1015.44" gradientTransform="matrix(36.89, 0, 0, -47.04, 36636.95, 47871.02)" xlink:href="#Degradado_sin_nombre_32"/><linearGradient id="Degradado_sin_nombre_46-2" x1="-984.18" y1="1012.59" x2="-982.72" y2="1009.41" gradientTransform="matrix(36.89, 0, 0, -47.04, 36354.31, 47905.37)" xlink:href="#Degradado_sin_nombre_46"/><linearGradient id="Degradado_sin_nombre_51" x1="-966.38" y1="1020.49" x2="-965.4" y2="1020.88" gradientTransform="matrix(21.34, 0, 0, -27.92, 20859.4, 28583)" gradientUnits="userSpaceOnUse"><stop offset="0.08" stop-color="#b4f759"/><stop offset="0.14" stop-color="#adf65c"/><stop offset="0.24" stop-color="#99f467"/><stop offset="0.35" stop-color="#7af178"/><stop offset="0.48" stop-color="#4eec8f"/><stop offset="0.58" stop-color="#2be9a3"/><stop offset="0.69" stop-color="#24e3a8"/><stop offset="0.87" stop-color="#10d4b7"/><stop offset="0.98" stop-color="#00c7c5"/></linearGradient><linearGradient id="Degradado_sin_nombre_50" x1="-976.59" y1="1026.72" x2="-975.8" y2="1025.64" gradientTransform="matrix(15.97, 0, 0, -24.69, 15790.74, 25282.82)" gradientUnits="userSpaceOnUse"><stop offset="0.06" stop-color="#f36dd4"/><stop offset="0.2" stop-color="#e86dd9"/><stop offset="0.43" stop-color="#cc6de9"/><stop offset="0.55" stop-color="#bb6df3"/><stop offset="1" stop-color="#836df3"/></linearGradient><linearGradient id="Degradado_sin_nombre_41" x1="-990" y1="1013.99" x2="-989.31" y2="1013.08" gradientTransform="matrix(53.18, 0, 0, -117.77, 52794.58, 119335.06)" gradientUnits="userSpaceOnUse"><stop offset="0" stop-color="#836df3"/><stop offset="0.14" stop-color="#8b6df3"/><stop offset="0.38" stop-color="#a36df3"/><stop offset="0.56" stop-color="#bb6df3"/><stop offset="1" stop-color="#f36dd4"/></linearGradient><linearGradient id="Degradado_sin_nombre_40" x1="-987.19" y1="1012.68" x2="-987.15" y2="1011.81" gradientTransform="matrix(46.02, 0, 0, -108.35, 45665.16, 109803.13)" gradientUnits="userSpaceOnUse"><stop offset="0" stop-color="#6cf"/><stop offset="0.45" stop-color="#5da8fb"/><stop offset="1" stop-color="#5277f7"/></linearGradient><linearGradient id="Degradado_sin_nombre_38" x1="-991.25" y1="1011.81" x2="-991.86" y2="1011.52" gradientTransform="matrix(66.61, 0, 0, -90.96, 66163.85, 92231.39)" gradientUnits="userSpaceOnUse"><stop offset="0" stop-color="#dfed72"/><stop offset="0.44" stop-color="#b4f759"/><stop offset="0.57" stop-color="#adf65c"/><stop offset="0.76" stop-color="#99f466"/><stop offset="0.98" stop-color="#7af177"/><stop offset="1" stop-color="#78f179"/></linearGradient><linearGradient id="Degradado_sin_nombre_39" x1="-914.79" y1="1033.13" x2="-915.66" y2="1030.36" gradientTransform="matrix(5.22, 0, 0, -6.7, 4978.07, 7127.33)" gradientUnits="userSpaceOnUse"><stop offset="0" stop-color="#ffe585"/><stop offset="0.28" stop-color="#dbed70"/><stop offset="0.55" stop-color="#b4f759"/><stop offset="0.66" stop-color="#adf65c"/><stop offset="0.81" stop-color="#99f466"/><stop offset="0.99" stop-color="#7af177"/><stop offset="1" stop-color="#78f179"/></linearGradient><linearGradient id="Degradado_sin_nombre_40-2" x1="-915.25" y1="1031.53" x2="-916.1" y2="1028.72" gradientTransform="matrix(5.22, 0, 0, -6.7, 4978.07, 7136.25)" xlink:href="#Degradado_sin_nombre_40"/><linearGradient id="Degradado_sin_nombre_41-2" x1="-914.27" y1="1034.7" x2="-914.85" y2="1031.63" gradientTransform="matrix(5.22, 0, 0, -6.7, 4978.07, 7143.63)" xlink:href="#Degradado_sin_nombre_41"/><linearGradient id="Degradado_sin_nombre_46-3" x1="-992.73" y1="1012.14" x2="-991.73" y2="1012.14" gradientTransform="matrix(118.14, 0, 0, -105.07, 117409.27, 106534.98)" xlink:href="#Degradado_sin_nombre_46"/><radialGradient id="Degradado_sin_nombre_48-2" cx="-1001.67" cy="1012.57" r="1.35" gradientTransform="translate(-82478.2 83771.2) rotate(180) scale(82.58 82.56)" xlink:href="#Degradado_sin_nombre_48"/><radialGradient id="Degradado_sin_nombre_44" cx="-1002.76" cy="1012.03" r="0.3" gradientTransform="translate(-67932.77 114507.09) rotate(180) scale(68.27 112.95)" gradientUnits="userSpaceOnUse"><stop offset="0" stop-color="#00c7c5"/><stop offset="0.03" stop-color="#00bcba"/><stop offset="0.16" stop-color="#008b89"/><stop offset="0.29" stop-color="#00605f"/><stop offset="0.43" stop-color="#003d3c"/><stop offset="0.57" stop-color="#022"/><stop offset="0.71" stop-color="#000f0f"/><stop offset="0.85" stop-color="#000303"/><stop offset="1"/></radialGradient><linearGradient id="Degradado_sin_nombre_46-4" x1="-989.05" y1="999.58" x2="-989.69" y2="1001.78" gradientTransform="matrix(50.21, 0, 0, -28.99, 49818.86, 29195.15)" xlink:href="#Degradado_sin_nombre_46"/><linearGradient id="Degradado_sin_nombre_46-5" x1="-970.01" y1="1012.73" x2="-971.71" y2="1013.95" gradientTransform="matrix(17.81, 0, 0, -43.32, 17451.35, 44130.24)" xlink:href="#Degradado_sin_nombre_46"/><linearGradient id="Degradado_sin_nombre_49" x1="-992.02" y1="1014.28" x2="-991" y2="1013.35" gradientTransform="matrix(71.85, 0, 0, -70.35, 71377.96, 71526.72)" gradientUnits="userSpaceOnUse"><stop offset="0" stop-color="#fffa84"/><stop offset="0.39" stop-color="#c7f764"/><stop offset="0.52" stop-color="#b4f759"/><stop offset="0.83" stop-color="#88f270"/><stop offset="1" stop-color="#6ef07f"/></linearGradient><radialGradient id="Degradado_sin_nombre_48-3" cx="-1004.73" cy="1013.82" r="1.35" gradientTransform="translate(-51904.99 52661.26) rotate(180) scale(51.66 51.69)" xlink:href="#Degradado_sin_nombre_48"/><linearGradient id="Degradado_sin_nombre_49-2" x1="-987.05" y1="1014.97" x2="-985.76" y2="1014.21" gradientTransform="matrix(36.6, 0, 0, -54.53, 36237.45, 55544.52)" xlink:href="#Degradado_sin_nombre_49"/><linearGradient id="Degradado_sin_nombre_50-2" x1="-972.89" y1="1034.63" x2="-971.29" y2="1033.47" gradientTransform="matrix(9.76, 0, 0, -17.8, 9591.54, 18325.46)" xlink:href="#Degradado_sin_nombre_50"/><linearGradient id="Degradado_sin_nombre_51-2" x1="-932.56" y1="1020.05" x2="-930.4" y2="1020.35" gradientTransform="matrix(10.74, 0, 0, -26.25, 10292.43, 26895.34)" xlink:href="#Degradado_sin_nombre_51"/></defs><g id="Grupo_49" data-name="Grupo 49"><path id="Trazado_1334" data-name="Trazado 1334" class="cls-1" d="M200.19,271.59a.62.62,0,0,1-.32-.84.64.64,0,0,1,.83-.32,8.19,8.19,0,0,0,3.25.64h.2a.67.67,0,0,1,.65.63.65.65,0,0,1-.63.65h-.23A9.28,9.28,0,0,1,200.19,271.59Zm7.11-.37a.64.64,0,0,1,.4-.81A18.3,18.3,0,0,0,211,268.9l0,0a.62.62,0,0,1,.85.23h0a.65.65,0,0,1-.25.88,19.58,19.58,0,0,1-3.55,1.62.71.71,0,0,1-.2,0,.65.65,0,0,1-.6-.44ZM197,269.12a11,11,0,0,1-1.9-3.55.62.62,0,0,1,.44-.78.64.64,0,0,1,.77.38,9.78,9.78,0,0,0,1.68,3.15.63.63,0,0,1-.09.89.63.63,0,0,1-.9-.09Zm17.17-1.27a.63.63,0,0,1,.23-.87h0l3.3-1.9a.64.64,0,1,1,.64,1.1h0l-3.31,1.9a.64.64,0,0,1-.87-.23Zm6.62-3.81a.64.64,0,0,1,.23-.87l3.31-1.9a.64.64,0,1,1,.64,1.1h0l-3.31,1.9a.63.63,0,0,1-.87-.23Zm-26.44-2.36c0-.52-.06-1.06-.06-1.61v-2.25a.64.64,0,1,1,1.28,0v2.25c0,.52,0,1,0,1.51a.64.64,0,0,1-.58.69h-.06a.64.64,0,0,1-.63-.59Zm33-1.45a.64.64,0,0,1,.24-.87h0l3.31-1.9a.64.64,0,0,1,.72,1.05l-.09.05-3.31,1.9a.64.64,0,0,1-.87-.23Zm6.62-3.81a.64.64,0,0,1,.23-.87h0l3.31-1.9a.64.64,0,0,1,.89.17.63.63,0,0,1-.17.88l-.08.05-3.31,1.9a.64.64,0,0,1-.87-.23ZM194.24,254v-3.82a.64.64,0,0,1,1.28,0V254a.64.64,0,0,1-1.28,0Zm46.35-1.38a.63.63,0,0,1,.23-.87l3.31-1.9a.63.63,0,1,1,.63,1.1l-3.3,1.9a.62.62,0,0,1-.32.09.65.65,0,0,1-.55-.33Zm6.61-3.81a.64.64,0,0,1,.24-.87l3.3-1.9a.64.64,0,0,1,.64,1.1l-3.31,1.9a.7.7,0,0,1-.32.09.64.64,0,0,1-.55-.33Zm-53-2.44v-3.82a.64.64,0,0,1,1.28,0v3.82a.64.64,0,0,1-1.28,0ZM253.82,245a.63.63,0,0,1,.23-.87l3.31-1.9a.63.63,0,0,1,.87.23.65.65,0,0,1-.23.88h0l-3.31,1.9a.64.64,0,0,1-.87-.24Zm6.61-3.81a.64.64,0,0,1,.24-.87h0l3.31-1.9a.63.63,0,1,1,.63,1.1l-3.31,1.9a.64.64,0,0,1-.87-.23Zm-66.19-2.46v-3.82a.64.64,0,1,1,1.27,0v3.82a.64.64,0,1,1-1.27,0Zm72.81-1.35a.64.64,0,0,1,.23-.87h0l3.31-1.9a.64.64,0,0,1,.89.17.63.63,0,0,1-.17.88l-.08.05-3.31,1.9a.62.62,0,0,1-.32.09.65.65,0,0,1-.55-.32Zm6.61-3.81a.64.64,0,0,1,.24-.87h0l3.31-1.9a.64.64,0,0,1,.72,1l-.09.05-3.3,1.9a.63.63,0,0,1-.87-.23Zm-79.42-2.47v-3.82a.64.64,0,1,1,1.27,0v3.82a.64.64,0,0,1-1.27,0Zm86-1.34a.63.63,0,0,1,.24-.87h0l3.31-1.9a.64.64,0,1,1,.72,1l-.08.05-3.31,1.9a.64.64,0,0,1-.87-.24Zm6.61-3.81a.64.64,0,0,1,.18-.88h0A26.89,26.89,0,0,0,290,222.8a.64.64,0,0,1,.9.06.64.64,0,0,1-.06.9,27.6,27.6,0,0,1-3.1,2.37.53.53,0,0,1-.35.1.62.62,0,0,1-.52-.28Zm-92.65-2.49v-3.82a.64.64,0,0,1,1.27,0v3.82a.64.64,0,1,1-1.27,0Zm98.5-2.4a.63.63,0,0,1-.05-.9h0a34.48,34.48,0,0,0,2.36-2.91.64.64,0,0,1,1,.75c-.76,1.05-1.58,2.05-2.44,3a.63.63,0,0,1-.9,0Zm-98.5-5.24V212a.64.64,0,1,1,1.27,0v3.81a.64.64,0,1,1-1.27,0ZM297.35,215a.64.64,0,0,1-.23-.88c.64-1.07,1.24-2.19,1.77-3.31a.63.63,0,0,1,.84-.33.64.64,0,0,1,.32.84v0c-.55,1.16-1.16,2.31-1.82,3.42a.64.64,0,0,1-.87.23Zm-103.11-6.8v-3.82a.64.64,0,1,1,1.27,0v3.82a.64.64,0,1,1-1.27,0Zm106.46-.05a.64.64,0,0,1-.39-.81h0a34.54,34.54,0,0,0,1.06-3.6.63.63,0,0,1,.77-.46.65.65,0,0,1,.47.75,34.6,34.6,0,0,1-1.09,3.73.63.63,0,0,1-.6.43.71.71,0,0,1-.21,0Zm-106.46-7.58v-3.82a.64.64,0,0,1,1.28,0v3.82a.64.64,0,0,1-1.28,0Zm108.3.19a.62.62,0,0,1-.57-.69c.06-.72.1-1.43.1-2.11V196.3a.63.63,0,0,1,.63-.63.64.64,0,0,1,.64.63V198c0,.72,0,1.47-.1,2.23a.65.65,0,0,1-.63.58Zm-108.3-7.82v-3.82a.64.64,0,0,1,1.28,0v3.82a.64.64,0,0,1-1.28,0Zm107.83-.44v-3.82a.64.64,0,1,1,1.27,0v3.82a.64.64,0,1,1-1.27,0Zm-107.83-7.2v-3.82a.64.64,0,1,1,1.28,0v3.82a.64.64,0,1,1-1.28,0Zm107.83-.44V181a.64.64,0,1,1,1.27,0v3.82a.64.64,0,1,1-1.27,0Zm-107.83-7.19v-3.82a.64.64,0,0,1,1.28,0v3.82a.64.64,0,0,1-1.28,0Zm107.83-.44V173.4a.64.64,0,1,1,1.27,0v3.82a.64.64,0,0,1-1.27,0ZM194.24,170v-3.81a.64.64,0,0,1,1.28,0V170a.64.64,0,0,1-1.28,0Zm107.83-.43v-3.82a.64.64,0,1,1,1.27,0v3.82a.64.64,0,1,1-1.27,0Zm-107.83-7.2v-3.82a.64.64,0,1,1,1.28,0v3.82a.64.64,0,1,1-1.28,0ZM302.07,162v-3.82a.64.64,0,1,1,1.27,0V162a.64.64,0,1,1-1.27,0Zm-107.83-7.19v-3.82a.64.64,0,1,1,1.28,0v3.82a.64.64,0,0,1-1.28,0Zm107.83-.44V150.5a.64.64,0,1,1,1.27,0v3.82a.64.64,0,0,1-1.27,0Zm-107.83-7.2V143.3a.64.64,0,0,1,1.28,0v3.82a.64.64,0,0,1-1.28,0Zm107.83-.44v-3.81a.64.64,0,1,1,1.27,0v3.81a.64.64,0,1,1-1.27,0Zm-107.83-7.19v-3.82a.64.64,0,1,1,1.28,0v3.82a.64.64,0,0,1-1.28,0Zm107.83-.44v-3.82a.64.64,0,1,1,1.27,0v3.82a.64.64,0,1,1-1.27,0Zm-107.83-7.2V128a.64.64,0,1,1,1.28,0v3.81a.64.64,0,1,1-1.28,0Zm107.83-.44V127.6a.64.64,0,1,1,1.27,0v3.81a.64.64,0,1,1-1.27,0Zm-107.83-7.19V120.4a.64.64,0,0,1,1.28,0h0v3.82a.64.64,0,0,1-1.28,0Zm107.83-.44V120a.64.64,0,1,1,1.27,0v3.82a.64.64,0,1,1-1.27,0Zm-107.83-7.19v-3.82a.64.64,0,0,1,1.28,0v3.82a.64.64,0,0,1-1.28,0Zm107.83-.44v-3.82a.64.64,0,1,1,1.27,0v3.82a.64.64,0,1,1-1.27,0ZM194.24,109v-3.82a.64.64,0,0,1,1.28,0V109a.64.64,0,0,1-1.28,0Zm107.83-.44V104.7a.64.64,0,1,1,1.27,0v3.81a.64.64,0,1,1-1.27,0Zm-107.83-7.19V97.5a.64.64,0,0,1,1.28,0v3.82a.64.64,0,0,1-1.28,0Zm107.83-.44V97.06a.64.64,0,1,1,1.27,0v3.82a.64.64,0,0,1-1.27,0Zm-107.83-7.2V89.87a.64.64,0,0,1,1.28,0v3.81a.64.64,0,0,1-1.28,0Zm107.83-.44V89.43a.64.64,0,1,1,1.27,0v3.81a.64.64,0,1,1-1.27,0ZM194.24,86.05V82.23a.64.64,0,0,1,1.28,0v3.82a.64.64,0,0,1-1.28,0Zm107.83-.44V81.79a.64.64,0,1,1,1.27,0v3.82a.64.64,0,0,1-1.27,0ZM194.24,78.42V76.73c0-.71,0-1.44.1-2.19A.62.62,0,0,1,195,74a.64.64,0,0,1,.58.69c-.06.7-.1,1.4-.1,2.07v1.68a.64.64,0,1,1-1.27,0ZM302.07,78V74.16a.64.64,0,1,1,1.27,0V78a.64.64,0,0,1-1.27,0ZM195.44,71.46a.65.65,0,0,1-.48-.77h0A37,37,0,0,1,196.05,67a.64.64,0,0,1,1.2.42A32.22,32.22,0,0,0,196.2,71a.62.62,0,0,1-.62.49Zm106.63-1.12V66.53a.64.64,0,1,1,1.27,0v3.81a.64.64,0,1,1-1.27,0ZM197.83,64.22a.64.64,0,0,1-.3-.85h0c.54-1.15,1.15-2.3,1.81-3.42a.63.63,0,0,1,.87-.23.64.64,0,0,1,.23.88h0c-.64,1.08-1.24,2.2-1.76,3.31a.64.64,0,0,1-.85.31Zm104.24-1.51V58.89a.64.64,0,1,1,1.27,0v3.82a.64.64,0,1,1-1.27,0ZM201.62,57.6a.63.63,0,0,1-.14-.89,35.38,35.38,0,0,1,2.44-3,.64.64,0,0,1,1,.82l0,0a34.62,34.62,0,0,0-2.36,2.92.66.66,0,0,1-.9.14Zm100.45-2.53V51.26a.64.64,0,1,1,1.27,0v3.81a.64.64,0,1,1-1.27,0Zm-95.45-3.22a.64.64,0,0,1,.06-.9,27.41,27.41,0,0,1,3.1-2.38.64.64,0,0,1,.7,1.06,26.06,26.06,0,0,0-2.95,2.28.64.64,0,0,1-.9-.06Zm95.45-4.41V43.62a.64.64,0,0,1,1.27,0v3.82a.64.64,0,1,1-1.27,0Zm-89.21,0a.63.63,0,0,1,.23-.87l3.31-1.9a.64.64,0,1,1,.64,1.1l-3.31,1.9a.63.63,0,0,1-.87-.23Zm6.61-3.81a.64.64,0,0,1,.24-.87L223,40.9a.63.63,0,1,1,.63,1.1h0l-3.31,1.9A.56.56,0,0,1,220,44,.65.65,0,0,1,219.47,43.67Zm82.6-3.86V36a.64.64,0,0,1,1.28,0v3.82a.64.64,0,0,1-1.28,0Zm-76,0a.64.64,0,0,1,.24-.87h0l3.31-1.9a.64.64,0,0,1,.72,1l-.09,0L227,40.09a.62.62,0,0,1-.86-.23Zm6.62-3.81a.64.64,0,0,1,.23-.87h0l3.3-1.9a.64.64,0,0,1,.89.17.63.63,0,0,1-.17.88l-.08.05-3.31,1.9a.64.64,0,0,1-.87-.23Zm69.36-3.88V28.36a.64.64,0,0,1,1.28,0h0v3.81a.64.64,0,0,1-1.28,0Zm-62.74.07a.64.64,0,0,1,.23-.87l3.31-1.9a.64.64,0,0,1,.63,1.11h0l-3.3,1.9a.72.72,0,0,1-.32.08.65.65,0,0,1-.56-.32Zm6.61-3.8a.64.64,0,0,1,.23-.87h0l3.31-1.9a.63.63,0,0,1,.88.16.64.64,0,0,1-.16.89l-.09.05-3.31,1.9a.64.64,0,0,1-.87-.24h0Zm56.13-3.9V20.72a.64.64,0,0,1,1.28,0v3.82a.64.64,0,0,1-1.28,0Zm-49.51.08a.64.64,0,0,1,.23-.87l3.31-1.9a.64.64,0,0,1,.64,1.11l-3.31,1.9a.64.64,0,0,1-.87-.24Zm6.61-3.8a.64.64,0,0,1,.24-.87h0l3.31-1.9a.63.63,0,0,1,.88.16.64.64,0,0,1-.16.89l-.09,0L260,21.05a.63.63,0,0,1-.86-.24h0Zm42.9-3.92V14.61c0-.5,0-1-.05-1.47a.64.64,0,1,1,1.27-.1c0,.51.06,1,.06,1.57V16.9a.64.64,0,0,1-1.28,0ZM265.79,17a.64.64,0,0,1,.24-.87l3.31-1.9a.63.63,0,0,1,.88.16.64.64,0,0,1-.16.89l-.09.05-3.31,1.9a.64.64,0,0,1-.87-.24Zm6.62-3.81a.64.64,0,0,1,.23-.87h0l3.31-1.9a.64.64,0,0,1,.64,1.1h0l-3.31,1.9a.62.62,0,0,1-.32.09.65.65,0,0,1-.56-.32Zm28.93-3.66a9.92,9.92,0,0,0-1.66-3.15.63.63,0,0,1,.14-.89.64.64,0,0,1,.85.09,11.17,11.17,0,0,1,1.88,3.56.63.63,0,0,1-.4.8.64.64,0,0,1-.81-.4ZM279,9.39a.64.64,0,0,1,.23-.87h0l3.31-1.9a.64.64,0,0,1,.72,1l-.09,0-3.3,1.9a.63.63,0,0,1-.87-.23Zm6.64-3.83a.66.66,0,0,1,.27-.88A19.27,19.27,0,0,1,289.52,3a.64.64,0,0,1,.81.41.63.63,0,0,1-.41.8,18.75,18.75,0,0,0-3.35,1.53l-.06,0a.61.61,0,0,1-.3.08.65.65,0,0,1-.54-.33Zm11.25-1.3a8.18,8.18,0,0,0-3.28-.66h-.17a.63.63,0,0,1-.65-.63.64.64,0,0,1,.63-.64h.19a9.36,9.36,0,0,1,3.8.77.64.64,0,0,1,.37.82.65.65,0,0,1-.83.37l-.05,0Z"/><path id="Trazado_1335" data-name="Trazado 1335" class="cls-2" d="M28.69,314.46a.64.64,0,0,1,.62-.66,11.6,11.6,0,0,0,3.55-.65.64.64,0,0,1,.46,1.19l-.06,0a13.44,13.44,0,0,1-3.93.72h0A.63.63,0,0,1,28.69,314.46Zm-3.34-.13a8.56,8.56,0,0,1-3.24-2.48.63.63,0,0,1,.09-.89.63.63,0,0,1,.9.09,7.34,7.34,0,0,0,2.76,2.11.64.64,0,0,1,.33.84.64.64,0,0,1-.58.38.58.58,0,0,1-.26-.05ZM36,312.48a.64.64,0,0,1,.24-.87l3.31-1.9a.64.64,0,0,1,.71,1.06l-.08.05-3.31,1.9a.64.64,0,0,1-.87-.24Zm6.62-3.8a.64.64,0,0,1,.24-.87l3.3-1.9a.64.64,0,0,1,.64,1.1h0l-3.31,1.9a.64.64,0,0,1-.87-.23Zm-22.38-.38a16.53,16.53,0,0,1-.74-3.88.63.63,0,0,1,.58-.69h0a.65.65,0,0,1,.69.59,14.54,14.54,0,0,0,.69,3.58.64.64,0,0,1-.61.84.63.63,0,0,1-.61-.44Zm29-3.43a.63.63,0,0,1,.23-.87l3.31-1.9a.63.63,0,0,1,.88.16.64.64,0,0,1-.16.89l-.09.05-3.3,1.9a.64.64,0,0,1-.87-.23h0Zm6.61-3.81a.64.64,0,0,1,.23-.87h0l3.31-1.9A.64.64,0,0,1,60,299.4l-3.31,1.9a.64.64,0,0,1-.87-.24Zm-36.41-.51v-3.81a.64.64,0,1,1,1.27,0v3.81a.64.64,0,1,1-1.27,0Zm43-3.3a.64.64,0,0,1,.24-.87l3.31-1.9a.64.64,0,1,1,.63,1.11h0l-3.31,1.9a.63.63,0,0,1-.86-.24h0Zm6.62-3.8a.63.63,0,0,1,.23-.87h0l3.3-1.9a.64.64,0,1,1,.72,1.05l-.08,0-3.31,1.9a.64.64,0,0,1-.87-.24h0Zm-49.64-.53V289.1a.64.64,0,1,1,1.27,0v3.82a.64.64,0,1,1-1.27,0Zm56.25-3.28a.64.64,0,0,1,.24-.87l3.31-1.9a.63.63,0,1,1,.63,1.1h0l-3.31,1.9a.62.62,0,0,1-.86-.23h0Zm6.62-3.81a.64.64,0,0,1,.23-.87h0l3.3-1.9a.64.64,0,0,1,.89.17.63.63,0,0,1-.17.88l-.08.05-3.31,1.9a.64.64,0,0,1-.87-.23Zm-62.87-.54v-3.82a.64.64,0,1,1,1.27,0v3.82a.64.64,0,0,1-1.27,0ZM88.89,282a.65.65,0,0,1,.24-.87l3.31-1.9a.64.64,0,1,1,.63,1.11h0l-3.3,1.9a.64.64,0,0,1-.87-.23Zm6.62-3.8a.63.63,0,0,1,.23-.87h0l3.3-1.91a.64.64,0,0,1,.72,1.05l-.09.05-3.3,1.9a.63.63,0,0,1-.87-.23h0Zm-76.1-.57v-3.81a.64.64,0,0,1,1.28,0v3.82a.64.64,0,0,1-1.28,0Zm82.72-3.24a.63.63,0,0,1,.23-.87h0l3.31-1.9a.64.64,0,1,1,.72,1.05l-.08.05-3.31,1.9a.64.64,0,0,1-.87-.24Zm6.61-3.81a.64.64,0,0,1,.24-.87h0l2.12-1.22c.38-.22.76-.45,1.13-.7a.64.64,0,0,1,.7,1.07c-.39.25-.79.5-1.19.73l-2.13,1.23a.64.64,0,0,1-.87-.23h0ZM19.41,270V266.2a.64.64,0,0,1,1.28,0V270a.64.64,0,1,1-1.28,0Zm95.72-3.58a.64.64,0,0,1,.05-.9h0a30,30,0,0,0,2.66-2.63.63.63,0,0,1,.9,0,.65.65,0,0,1,.05.87A34,34,0,0,1,116,266.5a.63.63,0,0,1-.42.16A.62.62,0,0,1,115.13,266.44Zm-95.72-4.05v-3.82a.64.64,0,0,1,.63-.64.64.64,0,0,1,.64.64v3.82A.64.64,0,0,1,20,263a.63.63,0,0,1-.63-.63Zm100.93-1.5a.63.63,0,0,1-.13-.89c.73-1,1.42-2.05,2.07-3.13a.63.63,0,0,1,.87-.23.64.64,0,0,1,.23.88c-.67,1.12-1.39,2.21-2.14,3.24a.64.64,0,0,1-.89.13ZM19.41,254.76v-3.82a.63.63,0,0,1,.63-.63.64.64,0,0,1,.64.63v3.82a.64.64,0,0,1-.64.64.64.64,0,0,1-.63-.64Zm104.94-.36a.63.63,0,0,1-.3-.84h0c.54-1.15,1-2.31,1.43-3.47a.64.64,0,0,1,1.2.43c-.43,1.19-.93,2.4-1.48,3.58a.65.65,0,0,1-.58.37A.52.52,0,0,1,124.35,254.4ZM19.41,247.13v-3.82a.64.64,0,0,1,.63-.64.64.64,0,0,1,.64.64v3.82a.64.64,0,0,1-.64.63A.63.63,0,0,1,19.41,247.13Zm107.6.14a.64.64,0,0,1-.48-.77h0a28.51,28.51,0,0,0,.6-3.68.63.63,0,0,1,.71-.55.64.64,0,0,1,.56.67,29.7,29.7,0,0,1-.63,3.85.64.64,0,0,1-.62.49Zm-107.6-7.78v-3.81A.64.64,0,0,1,20,235a.64.64,0,0,1,.64.64v3.81a.64.64,0,0,1-.64.64A.63.63,0,0,1,19.41,239.49Zm107.82-.42v-3.82a.64.64,0,0,1,1.28,0v3.82a.64.64,0,0,1-1.28,0Zm-107.82-7.2V228a.63.63,0,0,1,.63-.63.64.64,0,0,1,.64.63v3.82a.64.64,0,0,1-.64.64.64.64,0,0,1-.63-.64h0Zm107.82-.43v-3.82a.64.64,0,0,1,1.28,0v3.82a.64.64,0,0,1-1.28,0Zm-107.82-7.2v-3.82a.63.63,0,0,1,.63-.63.64.64,0,0,1,.64.63v3.82a.64.64,0,0,1-.64.64A.64.64,0,0,1,19.41,224.24Zm107.82-.43V220a.64.64,0,0,1,1.28,0v3.81a.64.64,0,1,1-1.28,0Zm-107.82-7.2v-3.82a.63.63,0,0,1,.63-.63.64.64,0,0,1,.64.63v3.82a.64.64,0,0,1-.64.64.64.64,0,0,1-.63-.64Zm107.82-.43v-3.81a.64.64,0,0,1,1.28,0v3.81a.64.64,0,1,1-1.28,0ZM19.41,209v-3.81a.63.63,0,0,1,.63-.64.64.64,0,0,1,.64.64V209a.64.64,0,0,1-.64.64.64.64,0,0,1-.63-.64Zm107.82-.43v-3.81a.64.64,0,0,1,1.28,0v3.81a.64.64,0,1,1-1.28,0Zm-107.82-7.2v-3.81a.64.64,0,0,1,.63-.64.64.64,0,0,1,.64.64v3.81A.64.64,0,0,1,20,202a.63.63,0,0,1-.63-.64Zm107.82-.42v-3.82a.64.64,0,0,1,1.28,0v3.82a.64.64,0,0,1-1.28,0Zm-107.82-7.2V192c0-.72,0-1.47.1-2.21a.64.64,0,0,1,.69-.58.62.62,0,0,1,.57.69c-.06.71-.1,1.41-.1,2.1v1.66a.64.64,0,0,1-1.27,0h0Zm107.82-.43v-3.82a.64.64,0,1,1,1.28,0v3.82a.64.64,0,0,1-1.28,0ZM20.61,186.74a.64.64,0,0,1-.48-.76h0a37,37,0,0,1,1.09-3.73.65.65,0,0,1,.79-.45.64.64,0,0,1,.44.79.13.13,0,0,1,0,.08,35,35,0,0,0-1.05,3.59.63.63,0,0,1-.62.5Zm106.62-1.1v-3.82a.64.64,0,0,1,1.28,0v3.82a.64.64,0,0,1-1.28,0ZM23,179.51a.63.63,0,0,1-.3-.85c.54-1.15,1.15-2.31,1.81-3.42a.64.64,0,1,1,1.1.65c-.64,1.08-1.23,2.2-1.76,3.32a.64.64,0,0,1-.84.3h0ZM127.23,178v-3.82a.64.64,0,0,1,1.28,0V178a.64.64,0,0,1-1.28,0ZM26.79,172.89a.65.65,0,0,1-.14-.89h0c.77-1.05,1.58-2.05,2.45-3a.64.64,0,0,1,1,.84l0,0c-.83.93-1.62,1.9-2.36,2.91a.62.62,0,0,1-.51.26A.64.64,0,0,1,26.79,172.89Zm100.44-2.52v-3.81a.64.64,0,0,1,1.28,0v3.81a.64.64,0,1,1-1.28,0ZM31.8,167.14a.64.64,0,0,1,.06-.9,28.54,28.54,0,0,1,3.1-2.37.64.64,0,0,1,.7,1.06,27.3,27.3,0,0,0-3,2.27.64.64,0,0,1-.9-.06Zm95.43-4.4v-3.81a.64.64,0,0,1,1.28,0v3.81a.64.64,0,1,1-1.28,0Zm-89.19,0a.63.63,0,0,1,.23-.87l3.31-1.9a.64.64,0,1,1,.67,1.08l0,0L38.91,163A.65.65,0,0,1,38,162.78ZM44.65,159a.64.64,0,0,1,.24-.87l3.3-1.9a.64.64,0,0,1,.64,1.11h0l-3.31,1.9a.64.64,0,0,1-.87-.24Zm82.58-3.86v-3.82a.64.64,0,0,1,1.28,0v3.82a.64.64,0,1,1-1.28,0Zm-76,.06a.63.63,0,0,1,.23-.87l3.31-1.9a.63.63,0,1,1,.63,1.1l-3.3,1.9a.62.62,0,0,1-.32.09.64.64,0,0,1-.55-.32Zm6.61-3.81a.64.64,0,0,1,.24-.87l3.31-1.9a.63.63,0,0,1,.63,1.1l-3.31,1.9A.64.64,0,0,1,57.88,151.36Zm69.35-3.88v-3.82a.64.64,0,1,1,1.28,0v3.82a.64.64,0,0,1-1.28,0Zm-62.73.07a.63.63,0,0,1,.23-.87h0l3.31-1.9a.64.64,0,1,1,.72,1.05l-.09,0-3.3,1.9a.63.63,0,0,1-.87-.23Zm6.61-3.81a.64.64,0,0,1,.24-.87l3.31-1.9a.64.64,0,0,1,.63,1.11L72,144a.65.65,0,0,1-.87-.23Zm56.12-3.9V136a.64.64,0,0,1,1.28,0v3.81a.64.64,0,1,1-1.28,0Zm-49.5.1a.65.65,0,0,1,.23-.88l3.31-1.9a.64.64,0,0,1,.64,1.11h0l-3.31,1.9a.64.64,0,0,1-.87-.24Zm6.61-3.81a.64.64,0,0,1,.23-.87h0l3.3-1.9a.64.64,0,1,1,.71,1.06l-.07,0-3.31,1.9a.64.64,0,0,1-.87-.24h0Zm42.89-3.92v-2.28c0-.51,0-1,0-1.49a.64.64,0,0,1,.59-.68.65.65,0,0,1,.68.59c0,.51.06,1,.06,1.58v2.28a.64.64,0,1,1-1.28,0ZM91,132.32a.63.63,0,0,1,.23-.87l3.31-1.9a.64.64,0,1,1,.67,1.08l0,0-3.31,1.9a.65.65,0,0,1-.87-.24Zm6.61-3.81a.64.64,0,0,1,.24-.87h0l3.31-1.9a.64.64,0,1,1,.63,1.11l-3.31,1.9a.64.64,0,0,1-.87-.24Zm28.93-3.65a10,10,0,0,0-1.67-3.15.64.64,0,0,1,.06-.9.64.64,0,0,1,.9.06l0,0a11.15,11.15,0,0,1,1.89,3.55.63.63,0,0,1-.41.8.64.64,0,0,1-.2,0,.63.63,0,0,1-.6-.43Zm-22.31-.15a.63.63,0,0,1,.23-.87h0l3.31-1.9a.64.64,0,1,1,.72,1l-.08.05-3.31,1.9a.72.72,0,0,1-.32.08.63.63,0,0,1-.55-.31Zm6.64-3.83a.68.68,0,0,1,.27-.89,19.59,19.59,0,0,1,3.58-1.63.64.64,0,1,1,.4,1.21,18.08,18.08,0,0,0-3.35,1.53l-.06,0a.59.59,0,0,1-.29.07.63.63,0,0,1-.55-.33Zm11.25-1.3a8.1,8.1,0,0,0-3.29-.66h-.17a.64.64,0,0,1-.64-.63.63.63,0,0,1,.63-.64h.19a9.19,9.19,0,0,1,3.8.76.64.64,0,0,1,.36.83.62.62,0,0,1-.82.36l0,0Z"/><g id="Grupo_29" data-name="Grupo 29" class="cls-3"><path id="Trazado_1336" data-name="Trazado 1336" class="cls-4" d="M109.67,403.45l114.71-65.29c5-2.87,4.34-7.88-1.39-11.19l-9.35-4.57c-5.74-3.31-14.42-3.67-19.39-.8L79.54,386.88c-5,2.87-4.34,7.88,1.39,11.19l9.35,4.57C96,406,104.7,406.31,109.67,403.45Z"/></g><g id="Grupo_31" data-name="Grupo 31"><g id="Grupo_30" data-name="Grupo 30"><path id="Trazado_1337" data-name="Trazado 1337" class="cls-5" d="M104.7,396l101.37-58.52c11.43-6.6,20.7-24.32,20.7-39.56v-270c0-7.75,6.37-9.46,2.51-12.25-.15-.1-15.47-7-15.64-7-4.15-1.59-8.6-2.3-14,.82L98.28,68c-11.44,6.6-20.7,24.32-20.7,39.56v270c0,8.1,2.61,13.87,6.78,16.52.25.15,17.4,8.08,17.67,8.17C105.72,403.42,99.7,398.86,104.7,396Z"/><path id="Trazado_1338" data-name="Trazado 1338" class="cls-6" d="M104.7,396l101.37-58.52c11.43-6.6,20.7-24.32,20.7-39.56v-270c0-7.75,6.37-9.46,2.51-12.25-.15-.1-15.22-6.88-15.39-6.95-4.15-1.59-8.6-2.3-14,.82L98.53,68.07c-11.44,6.6-20.7,24.31-20.7,39.56v270c0,8.1,2.61,13.87,6.78,16.52.25.16,17.15,8,17.42,8.08C105.72,403.42,99.7,398.86,104.7,396Z"/><path id="Trazado_1339" data-name="Trazado 1339" class="cls-7" d="M104.69,396l101.37-58.52c11.44-6.6,20.7-24.32,20.7-39.56v-270c0-7.75,6.38-9.46,2.52-12.25-.15-.1-15-6.79-15.14-6.85-4.16-1.6-8.6-2.3-14,.81L98.78,68.16c-11.44,6.6-20.7,24.31-20.7,39.56v270c0,8.1,2.61,13.88,6.78,16.52.25.16,16.9,7.9,17.17,8C105.72,403.42,99.7,398.86,104.69,396Z"/><path id="Trazado_1340" data-name="Trazado 1340" class="cls-8" d="M104.7,396l101.37-58.52c11.43-6.6,20.7-24.32,20.7-39.56v-270c0-7.75,6.37-9.46,2.51-12.25-.15-.1-14.72-6.7-14.89-6.76-4.15-1.59-8.6-2.3-14,.81L99,68.25c-11.44,6.6-20.7,24.31-20.7,39.56v270c0,8.1,2.61,13.88,6.78,16.52.25.16,16.65,7.81,16.92,7.9C105.72,403.42,99.7,398.86,104.7,396Z"/><path id="Trazado_1341" data-name="Trazado 1341" class="cls-9" d="M104.7,396l101.37-58.52c11.44-6.6,20.7-24.32,20.7-39.56v-270c0-7.75,6.37-9.46,2.51-12.25-.14-.1-14.47-6.6-14.63-6.67-4.16-1.59-8.6-2.3-14,.82L99.28,68.34c-11.44,6.6-20.7,24.32-20.7,39.56v270c0,8.1,2.61,13.87,6.78,16.52.25.15,16.39,7.71,16.67,7.8C105.72,403.42,99.7,398.86,104.7,396Z"/><path id="Trazado_1342" data-name="Trazado 1342" class="cls-10" d="M104.7,396l101.37-58.52c11.43-6.6,20.7-24.32,20.7-39.56v-270c0-7.75,6.37-9.46,2.51-12.25-.15-.1-14.22-6.51-14.39-6.58-4.15-1.59-8.6-2.3-14,.82L99.53,68.44C88.09,75,78.83,92.75,78.83,108V378c0,8.1,2.61,13.88,6.78,16.52.25.16,16.15,7.62,16.42,7.71C105.72,403.42,99.7,398.86,104.7,396Z"/><path id="Trazado_1343" data-name="Trazado 1343" class="cls-11" d="M104.7,396l101.37-58.52c11.43-6.6,20.7-24.32,20.7-39.56v-270c0-7.75,6.37-9.46,2.51-12.25-.15-.1-14-6.42-14.14-6.48-4.15-1.6-8.6-2.3-14,.81L99.78,68.53c-11.44,6.6-20.7,24.31-20.7,39.56v270c0,8.1,2.61,13.88,6.78,16.52.25.16,15.9,7.53,16.17,7.62C105.72,403.42,99.7,398.86,104.7,396Z"/><path id="Trazado_1344" data-name="Trazado 1344" class="cls-12" d="M104.7,396l101.37-58.52c11.43-6.6,20.7-24.32,20.7-39.56v-270c0-7.76,6.37-9.47,2.51-12.26-.15-.1-13.72-6.33-13.89-6.39-4.15-1.59-8.6-2.3-14,.82L100,68.62c-11.44,6.6-20.7,24.31-20.7,39.56v270c0,8.1,2.61,13.88,6.78,16.52.25.16,15.65,7.44,15.92,7.53C105.72,403.42,99.7,398.86,104.7,396Z"/><path id="Trazado_1345" data-name="Trazado 1345" class="cls-13" d="M104.7,396l101.37-58.52c11.43-6.6,20.7-24.32,20.7-39.56v-270c0-7.76,6.37-9.47,2.51-12.26-.15-.1-13.47-6.23-13.64-6.3-4.16-1.59-8.6-2.3-14,.82L100.28,68.71c-11.44,6.6-20.7,24.32-20.7,39.56v270c0,8.1,2.61,13.87,6.78,16.52.25.15,15.4,7.34,15.67,7.43C105.72,403.42,99.7,398.86,104.7,396Z"/><path id="Trazado_1346" data-name="Trazado 1346" class="cls-14" d="M104.7,396l101.37-58.52c11.43-6.6,20.7-24.32,20.7-39.56v-270c0-7.76,6.37-9.47,2.51-12.26-.14-.1-13.22-6.14-13.39-6.2-4.15-1.6-8.6-2.3-14,.81L100.53,68.81c-11.44,6.6-20.7,24.31-20.7,39.56v270c0,8.1,2.61,13.88,6.78,16.52.25.16,15.15,7.25,15.42,7.34C105.72,403.42,99.7,398.86,104.7,396Z"/><path id="Trazado_1347" data-name="Trazado 1347" class="cls-15" d="M104.7,396l101.37-58.52c11.43-6.6,20.7-24.32,20.7-39.56v-270c0-7.76,6.37-9.47,2.51-12.26-.15-.1-13-6.05-13.14-6.11-4.15-1.59-8.6-2.3-14,.81L100.78,68.9c-11.44,6.6-20.7,24.31-20.7,39.56v270c0,8.1,2.61,13.88,6.78,16.52.25.16,14.9,7.16,15.17,7.25C105.72,403.42,99.7,398.86,104.7,396Z"/><path id="Trazado_1348" data-name="Trazado 1348" class="cls-16" d="M104.7,396l101.37-58.52c11.43-6.6,20.7-24.32,20.7-39.56v-270c0-7.76,6.37-9.47,2.51-12.26-.15-.1-12.72-5.95-12.89-6-4.16-1.59-8.6-2.3-14,.82L101,69c-11.43,6.6-20.7,24.31-20.7,39.56v270c0,8.1,2.62,13.87,6.79,16.52.25.15,14.64,7.06,14.92,7.15C105.72,403.42,99.7,398.86,104.7,396Z"/><path id="Trazado_1349" data-name="Trazado 1349" class="cls-17" d="M104.7,396l101.37-58.52c11.43-6.6,20.7-24.32,20.7-39.56v-270c0-7.76,6.37-9.47,2.51-12.26-.15-.1-12.47-5.86-12.64-5.93-4.16-1.59-8.6-2.3-14,.82L101.27,69.08c-11.43,6.6-20.7,24.32-20.7,39.56v270c0,8.1,2.62,13.87,6.79,16.52.25.15,14.4,7,14.67,7.06C105.72,403.42,99.7,398.86,104.7,396Z"/><path id="Trazado_1350" data-name="Trazado 1350" class="cls-18" d="M104.7,396l101.37-58.52c11.43-6.6,20.7-24.32,20.7-39.56v-270c0-7.76,6.37-9.47,2.51-12.26-.15-.1-12.22-5.77-12.39-5.83-4.16-1.6-8.6-2.3-14,.81L101.52,69.18c-11.43,6.6-20.7,24.31-20.7,39.56v270c0,8.1,2.62,13.88,6.79,16.52.25.16,14.15,6.88,14.42,7C105.72,403.42,99.7,398.86,104.7,396Z"/><path id="Trazado_1351" data-name="Trazado 1351" class="cls-19" d="M104.7,396l101.37-58.52c11.43-6.6,20.7-24.32,20.7-39.56v-270c0-7.76,6.37-9.47,2.51-12.26-.15-.1-12-5.68-12.14-5.74-4.16-1.59-8.6-2.3-14,.81L101.77,69.27c-11.43,6.6-20.7,24.31-20.7,39.56v270c0,8.1,2.62,13.88,6.79,16.52.25.16,13.9,6.79,14.17,6.88C105.72,403.42,99.7,398.86,104.7,396Z"/><path id="Trazado_1352" data-name="Trazado 1352" class="cls-20" d="M104.69,396l101.37-58.52c11.44-6.6,20.7-24.32,20.7-39.56v-270c0-7.76,6.38-9.47,2.52-12.26-.15-.1-11.72-5.58-11.89-5.65-4.16-1.59-8.6-2.3-14,.82L102,69.36c-11.43,6.6-20.7,24.32-20.7,39.56v270c0,8.1,2.62,13.87,6.79,16.52.25.15,13.65,6.69,13.92,6.78C105.72,403.42,99.7,398.86,104.69,396Z"/><path id="Trazado_1353" data-name="Trazado 1353" class="cls-21" d="M104.7,396l101.37-58.52c11.43-6.6,20.7-24.32,20.7-39.56v-270c0-7.76,6.37-9.47,2.51-12.26-.15-.1-11.47-5.49-11.64-5.56-4.16-1.59-8.6-2.3-14,.82L102.27,69.46c-11.43,6.6-20.7,24.31-20.7,39.56V379c0,8.1,2.62,13.88,6.79,16.52.25.16,13.4,6.6,13.67,6.7C105.72,403.42,99.7,398.86,104.7,396Z"/><path id="Trazado_1354" data-name="Trazado 1354" class="cls-22" d="M104.7,396l101.37-58.52c11.44-6.6,20.7-24.32,20.7-39.56v-270c0-7.76,6.37-9.47,2.51-12.26-.14-.1-11.22-5.4-11.39-5.46-4.15-1.6-8.6-2.3-14,.81L102.52,69.55c-11.43,6.6-20.7,24.31-20.7,39.56v270c0,8.1,2.62,13.88,6.79,16.52.25.16,13.15,6.51,13.42,6.6C105.72,403.42,99.7,398.86,104.7,396Z"/><path id="Trazado_1355" data-name="Trazado 1355" class="cls-23" d="M104.7,396l101.37-58.52c11.43-6.6,20.7-24.32,20.7-39.56v-270c0-7.76,6.37-9.47,2.51-12.26-.15-.1-11-5.31-11.14-5.37-4.16-1.59-8.6-2.3-14,.82L102.77,69.64C91.34,76.24,82.07,94,82.07,109.2v270c0,8.1,2.62,13.88,6.79,16.52.25.16,12.9,6.42,13.17,6.51C105.72,403.42,99.7,398.86,104.7,396Z"/><path id="Trazado_1356" data-name="Trazado 1356" class="cls-24" d="M104.7,396l101.37-58.52c11.43-6.6,20.7-24.32,20.7-39.56v-270c0-7.76,6.37-9.47,2.51-12.26-.15-.1-10.72-5.21-10.89-5.28-4.16-1.59-8.6-2.3-14,.82L103,69.73c-11.43,6.6-20.7,24.32-20.7,39.56v270c0,8.1,2.62,13.87,6.79,16.52.25.15,12.65,6.32,12.92,6.41C105.72,403.42,99.7,398.86,104.7,396Z"/><path id="Trazado_1357" data-name="Trazado 1357" class="cls-25" d="M104.7,396l101.37-58.52c11.43-6.6,20.7-24.32,20.7-39.56v-270c0-7.76,6.37-9.47,2.51-12.26-.15-.1-10.47-5.12-10.64-5.19-4.16-1.59-8.6-2.3-14,.82L103.27,69.83c-11.43,6.6-20.7,24.31-20.7,39.56v270c0,8.1,2.62,13.88,6.79,16.52.25.16,12.4,6.23,12.67,6.33C105.72,403.42,99.7,398.86,104.7,396Z"/><path id="Trazado_1358" data-name="Trazado 1358" class="cls-26" d="M104.7,396l101.37-58.52c11.43-6.6,20.7-24.32,20.7-39.56v-270c0-7.76,6.37-9.47,2.51-12.26-.15-.1-10.22-5-10.39-5.1-4.16-1.59-8.6-2.3-14,.82L103.52,69.92c-11.43,6.6-20.7,24.31-20.7,39.55v270c0,8.1,2.61,13.88,6.78,16.52.25.16,12.15,6.14,12.42,6.23C105.72,403.42,99.7,398.86,104.7,396Z"/></g><path id="Trazado_1359" data-name="Trazado 1359" class="cls-27" d="M114.37,400.55,215.75,342c11.43-6.6,20.7-24.31,20.7-39.56V32.5c0-15.25-9.27-22.26-20.7-15.65L114.37,75.37c-11.43,6.6-20.7,24.32-20.7,39.56v270C93.67,400.14,102.94,407.15,114.37,400.55Z"/><path id="Trazado_1360" data-name="Trazado 1360" class="cls-28" d="M106.15,401a14.48,14.48,0,0,0,7.2-2.21l101.37-58.52C225.57,334,234.4,317,234.4,302.47V32.5c0-9.77-4.1-16.09-10.44-16.09a14.65,14.65,0,0,0-7.19,2.21L115.4,77.15c-10.85,6.27-19.68,23.21-19.68,37.78v270C95.72,394.67,99.82,401,106.15,401Z"/><path id="Trazado_1361" data-name="Trazado 1361" class="cls-5" d="M229.59,305.9V37c0-11.19-6.8-16.33-15.19-11.49l-98.68,57c-8.39,4.84-15.19,17.84-15.19,29V380.42c0,11.19,6.8,16.33,15.19,11.49l98.68-57C222.79,330.09,229.59,317.09,229.59,305.9Z"/><path id="Trazado_1362" data-name="Trazado 1362" class="cls-29" d="M213.26,28.47c7.91-4.57,14.32-.91,14.32,8.16v272c0,9.07-6.42,20.13-14.32,24.7l-96.4,55.65c-7.91,4.57-14.32.91-14.32-8.16V108.82c0-9.08,6.41-20.13,14.32-24.7Z"/><path id="Trazado_1363" data-name="Trazado 1363" class="cls-30" d="M85.89,203.66h0c2.91,1.68,5.27-.1,5.27-4v-22c0-3.88-2.36-8.39-5.27-10.07h0c-2.91-1.68-5.27.1-5.27,4v22C80.62,197.47,83,202,85.89,203.66Z"/></g><path id="Trazado_1364" data-name="Trazado 1364" class="cls-27" d="M128.9,91.81c0-.59-.42-.82-.93-.53L114.6,99a2,2,0,0,0-.92,1.59c0,.59.41.82.92.53L128,93.4A2.05,2.05,0,0,0,128.9,91.81Zm-15.22,13.55c0,.58.41.82.92.52L128,98.16a2,2,0,0,0,.93-1.59c0-.59-.42-.82-.93-.53l-13.37,7.73A2,2,0,0,0,113.68,105.36Zm0,4.76c0,.58.41.82.92.53L128,102.92a2,2,0,0,0,.93-1.59c0-.58-.42-.82-.93-.52l-13.37,7.72A2,2,0,0,0,113.68,110.12Z"/><g id="Grupo_32" data-name="Grupo 32"><path id="Trazado_1365" data-name="Trazado 1365" class="cls-27" d="M199.2,54.59c0,1.41,1,2,2.23,1.27A4.88,4.88,0,0,0,203.65,52c0-1.41-1-2-2.22-1.27A4.89,4.89,0,0,0,199.2,54.59Z"/><path id="Trazado_1366" data-name="Trazado 1366" class="cls-27" d="M205.92,50.69c0,1.41,1,2,2.22,1.27a4.94,4.94,0,0,0,2.23-3.84c0-1.41-1-2-2.23-1.27A4.87,4.87,0,0,0,205.92,50.69Z"/><path id="Trazado_1367" data-name="Trazado 1367" class="cls-27" d="M212.63,46.78c0,1.41,1,2,2.23,1.27a4.92,4.92,0,0,0,2.23-3.84c0-1.41-1-2-2.23-1.27A4.92,4.92,0,0,0,212.63,46.78Z"/></g><g id="Grupo_33" data-name="Grupo 33"><path id="Trazado_1368" data-name="Trazado 1368" class="cls-31" d="M115,333a14.23,14.23,0,0,1-2.66-9V153.84c0-10.62,7.52-23.59,16.77-28.93L204,81.78a15.57,15.57,0,0,1,7.7-2.34c5.9,0,9.71,4.82,9.71,12.28V261.86c0,10.61-7.53,23.59-16.78,28.93L129.7,333.91a15.68,15.68,0,0,1-7.7,2.35h0A8.72,8.72,0,0,1,115,333ZM204.62,82.89,129.7,126c-8.9,5.14-16.14,17.62-16.14,27.83V324a13,13,0,0,0,2.38,8.19,7.48,7.48,0,0,0,6,2.81h0a14.51,14.51,0,0,0,7.07-2.17L204,289.69c8.9-5.14,16.14-17.62,16.14-27.83V91.72c0-6.79-3.23-11-8.43-11A14.27,14.27,0,0,0,204.62,82.89Z"/></g><g id="Grupo_36" data-name="Grupo 36"><g id="Grupo_34" data-name="Grupo 34" class="cls-32"><path id="Trazado_1369" data-name="Trazado 1369" class="cls-33" d="M251.91,37.21C262,31.4,270.13,36.05,270.13,47.6V243.36c0,11.54-8.16,25.61-18.22,31.42l-94,54c-10.06,5.81-22.25.52-22.25-11V122c0-11.55,12.19-25,22.25-30.79Z"/><path id="Trazado_1370" data-name="Trazado 1370" class="cls-34" d="M252.13,37.54c10.05-5.8,18.2-1.16,18.2,10.37v195c0,11.53-8.15,25.58-18.2,31.38l-93.74,53.86c-10,5.8-21.86.57-21.86-11v-195c0-11.53,11.81-25,21.86-30.8Z"/><path id="Trazado_1371" data-name="Trazado 1371" class="cls-35" d="M252.35,37.86c10-5.8,18.17-1.15,18.17,10.36V242.45c0,11.51-8.13,25.54-18.17,31.34l-93.44,53.68c-10,5.79-21.47.63-21.47-10.89V122.36c0-11.51,11.43-25,21.47-30.82Z"/><path id="Trazado_1372" data-name="Trazado 1372" class="cls-36" d="M252.57,38.19c10-5.79,18.15-1.16,18.15,10.35V242c0,11.5-8.12,25.52-18.15,31.3L159.43,326.8c-10,5.79-21.08.69-21.08-10.81V122.53c0-11.5,11.05-25,21.08-30.84Z"/><path id="Trazado_1373" data-name="Trazado 1373" class="cls-37" d="M252.79,38.52c10-5.78,18.13-1.16,18.13,10.33V241.53c0,11.49-8.12,25.49-18.13,31.27L160,326.13c-10,5.78-20.7.75-20.7-10.74V122.71c0-11.49,10.68-25.08,20.7-30.86Z"/><path id="Trazado_1374" data-name="Trazado 1374" class="cls-38" d="M253,38.84c10-5.77,18.1-1.15,18.1,10.32V241.08c0,11.47-8.1,25.45-18.1,31.22l-92.55,53.16c-10,5.78-20.3.8-20.3-10.66V122.88c0-11.48,10.3-25.1,20.3-30.88Z"/><path id="Trazado_1375" data-name="Trazado 1375" class="cls-39" d="M253.23,39.17c10-5.77,18.08-1.15,18.08,10.31V240.62c0,11.46-8.09,25.42-18.08,31.19l-92.25,53c-10,5.77-19.91.86-19.91-10.6V123.05c0-11.46,9.93-25.13,19.91-30.9Z"/><path id="Trazado_1376" data-name="Trazado 1376" class="cls-40" d="M253.45,39.49c10-5.75,18.06-1.15,18.06,10.3V240.17c0,11.44-8.08,25.39-18.06,31.14L161.5,324.13c-10,5.76-19.52.91-19.52-10.53V123.22c0-11.44,9.55-25.15,19.52-30.91Z"/><path id="Trazado_1377" data-name="Trazado 1377" class="cls-41" d="M253.67,39.82c10-5.75,18-1.15,18,10.28V239.71c0,11.43-8.08,25.36-18,31.11L162,323.46c-10,5.75-19.13,1-19.13-10.46V123.39c0-11.43,9.17-25.18,19.13-30.93Z"/><path id="Trazado_1378" data-name="Trazado 1378" class="cls-42" d="M253.89,40.15c9.95-5.75,18-1.15,18,10.27V239.26c0,11.41-8.06,25.32-18,31.06l-91.35,52.47c-9.95,5.75-18.74,1-18.74-10.38V123.57c0-11.42,8.8-25.21,18.74-31Z"/><path id="Trazado_1379" data-name="Trazado 1379" class="cls-43" d="M254.11,40.48c9.94-5.74,18-1.15,18,10.25V238.8c0,11.4-8.05,25.3-18,31l-91.05,52.3c-9.94,5.74-18.36,1.09-18.36-10.31V123.74c0-11.4,8.42-25.24,18.36-31Z"/><path id="Trazado_1380" data-name="Trazado 1380" class="cls-4" d="M254.34,40.8c9.92-5.73,18-1.14,18,10.24V238.35c0,11.38-8,25.26-18,31l-90.76,52.12c-9.92,5.73-18,1.14-18-10.24V123.91c0-11.39,8-25.26,18-31Z"/></g><g id="Grupo_35" data-name="Grupo 35"><path id="Trazado_1381" data-name="Trazado 1381" class="cls-44" d="M145.64,122.76c0-11.43,8.07-25.35,18-31.1L254.84,39.3c10-5.75,18-1.15,18,10.28v139.6L145.64,262.29Z"/><path id="Trazado_1382" data-name="Trazado 1382" class="cls-45" d="M254.84,278.19l-91.17,52.36c-10,5.75-18,1.15-18-10.28v-58l127.23-73.12V247.1C272.87,258.52,264.8,272.44,254.84,278.19Z"/><path id="Trazado_1383" data-name="Trazado 1383" class="cls-46" d="M254.84,278.19l-91.17,52.36c-10,5.75-18,1.15-18-10.28v-58l127.23-73.12V247.1C272.87,258.52,264.8,272.44,254.84,278.19Z"/></g><path id="Trazado_1384" data-name="Trazado 1384" class="cls-47" d="M163.67,91.66,254.84,39.3c10-5.75,18-1.15,18,10.28v1.74c0-11.42-8.07-16-18-10.28L163.67,93.4c-10,5.75-18,19.67-18,31.1v-1.74C145.64,111.33,153.71,97.41,163.67,91.66Z"/><ellipse id="Elipse_10" data-name="Elipse 10" class="cls-48" cx="209.61" cy="277.93" rx="18.75" ry="42.93"/></g><g id="Grupo_37" data-name="Grupo 37"><ellipse id="Elipse_11" data-name="Elipse 11" class="cls-27" cx="303.85" cy="172.97" rx="25.11" ry="14.49" transform="translate(1.1 347.86) rotate(-59.67)"/><path id="Trazado_1385" data-name="Trazado 1385" class="cls-49" d="M285.4,183.24c0-11.47,8.13-25.5,18.13-31.27a16.75,16.75,0,0,1,8.31-2.53c6.35,0,10.45,5.19,10.45,13.24,0,11.47-8.13,25.5-18.13,31.27a16.85,16.85,0,0,1-8.31,2.53C289.5,196.48,285.4,191.28,285.4,183.24Zm18.77-30.17c-9.65,5.57-17.5,19.1-17.5,30.17,0,7.38,3.52,12,9.18,12a15.52,15.52,0,0,0,7.68-2.36c9.64-5.57,17.49-19.1,17.49-30.17,0-7.38-3.52-12-9.18-12A15.55,15.55,0,0,0,304.17,153.07Z"/></g><g id="Grupo_38" data-name="Grupo 38"><ellipse id="Elipse_12" data-name="Elipse 12" class="cls-27" cx="21.21" cy="207.31" rx="25.11" ry="14.49" transform="translate(-168.43 120.92) rotate(-59.67)"/><path id="Trazado_1386" data-name="Trazado 1386" class="cls-50" d="M2.76,217.58c0-11.47,8.13-25.5,18.13-31.27a16.78,16.78,0,0,1,8.31-2.53c6.35,0,10.45,5.2,10.45,13.24,0,11.47-8.13,25.5-18.12,31.27a16.79,16.79,0,0,1-8.32,2.53C6.87,230.82,2.76,225.63,2.76,217.58Zm18.77-30.16C11.88,193,4,206.52,4,217.58c0,7.38,3.51,12,9.17,12a15.48,15.48,0,0,0,7.68-2.36c9.64-5.56,17.49-19.1,17.49-30.16,0-7.38-3.52-12-9.18-12a15.48,15.48,0,0,0-7.67,2.36Z"/></g><path id="Trazado_1387" data-name="Trazado 1387" class="cls-51" d="M10.85,209.28l6-3.47v-6.9a2.07,2.07,0,0,1,1-1.65l5.47-3.17c.53-.3,1-.06,1,.55v6.9l6-3.47c.53-.31,1-.06,1,.54v6.29a2.15,2.15,0,0,1-1,1.66l-6,3.47v6.9a2.07,2.07,0,0,1-1,1.65l-5.47,3.17c-.53.3-1,.06-1-.55v-6.9l-6,3.47c-.53.31-1,.06-1-.55v-6.28A2.14,2.14,0,0,1,10.85,209.28Z"/><path id="Trazado_1388" data-name="Trazado 1388" class="cls-52" d="M294,177.75l12.56-17.4c1.13-1.57,2.69-1.54,2.69,0v20.3c0,1.59-1.56,3.42-2.69,3.16L294,181C293,180.72,293,179.08,294,177.75Z"/><g id="Grupo_39" data-name="Grupo 39"><path id="Trazado_1389" data-name="Trazado 1389" class="cls-53" d="M158.17,179.35c0-32.66,23.15-72.59,51.61-89s51.62-3.23,51.62,29.42-23.16,72.6-51.62,89S158.17,212,158.17,179.35Zm3.13-1.81c0,30.68,21.75,43.08,48.49,27.65s48.48-52.95,48.48-83.63-21.75-43.08-48.48-27.64-48.49,53-48.49,83.62Z"/><path id="Trazado_1390" data-name="Trazado 1390" class="cls-53" d="M165.32,175.22c0-28.13,20-62.53,44.46-76.69s44.47-2.78,44.47,25.35-19.95,62.54-44.47,76.69S165.32,203.36,165.32,175.22Zm3.13-1.8c0,26.15,18.54,36.72,41.34,23.56s41.33-45.14,41.33-71.29S232.58,89,209.79,102.12,168.45,147.26,168.45,173.42Z"/><path id="Trazado_1391" data-name="Trazado 1391" class="cls-53" d="M172.47,171.1c0-23.61,16.74-52.49,37.31-64.36S247.1,104.4,247.1,128s-16.74,52.48-37.32,64.36S172.47,194.71,172.47,171.1Zm3.13-1.81c0,21.63,15.34,30.37,34.19,19.49s34.18-37.34,34.18-59-15.34-30.37-34.18-19.49-34.19,37.33-34.19,59Z"/><path id="Trazado_1392" data-name="Trazado 1392" class="cls-54" d="M209.78,208.78c28.46-16.43,51.62-56.37,51.62-89,0-12-3.13-21.82-9-28.28-.49-.54-1.47-.18-2.18.79s-.89,2.2-.4,2.73c5.56,6.07,8.5,15.26,8.5,26.57,0,30.68-21.75,68.19-48.48,83.63a3.46,3.46,0,0,0-1.57,2.7C208.22,208.88,208.92,209.28,209.78,208.78Z"/><path id="Trazado_1393" data-name="Trazado 1393" class="cls-55" d="M209.78,200.57c24.52-14.15,44.46-48.56,44.46-76.69s-19.94-39.5-44.46-25.35a3.44,3.44,0,0,0-1.56,2.7c0,1,.7,1.39,1.56.89,22.8-13.15,41.34-2.58,41.34,23.57S232.58,183.82,209.78,197a3.44,3.44,0,0,0-1.56,2.7C208.22,200.67,208.92,201.07,209.78,200.57Z"/><path id="Trazado_1394" data-name="Trazado 1394" class="cls-56" d="M209.78,192.37c20.58-11.88,37.32-40.75,37.32-64.36s-16.74-33.15-37.32-21.27c-11.27,6.5-21.82,18.35-28.94,32.51-.55,1.08-.45,2.15.22,2.4s1.66-.45,2.2-1.53c6.53-13,16.2-23.83,26.52-29.79C228.63,99.45,244,108.19,244,129.82s-15.34,48.08-34.19,59a3.44,3.44,0,0,0-1.56,2.7C208.22,192.47,208.92,192.87,209.78,192.37Z"/><path id="Trazado_1395" data-name="Trazado 1395" class="cls-57" d="M206.83,192.31c0,1.65,1.16,2.32,2.6,1.48a5.72,5.72,0,0,0,2.61-4.5c0-1.65-1.17-2.31-2.61-1.48A5.76,5.76,0,0,0,206.83,192.31Z"/><path id="Trazado_1396" data-name="Trazado 1396" class="cls-58" d="M206.83,200.51c0,1.65,1.16,2.32,2.6,1.49a5.74,5.74,0,0,0,2.61-4.5c0-1.65-1.17-2.32-2.61-1.49A5.76,5.76,0,0,0,206.83,200.51Z"/><path id="Trazado_1397" data-name="Trazado 1397" class="cls-59" d="M206.83,208.8c0,1.65,1.16,2.32,2.6,1.48a5.72,5.72,0,0,0,2.61-4.5c0-1.65-1.17-2.31-2.61-1.48A5.76,5.76,0,0,0,206.83,208.8Z"/></g><g id="Grupo_44" data-name="Grupo 44"><g id="Grupo_40" data-name="Grupo 40" class="cls-32"><path id="Trazado_1398" data-name="Trazado 1398" class="cls-60" d="M152.38,134.29c10.06-5.81,18.21-1.16,18.21,10.39V248.82c0,11.55-8.15,25.62-18.21,31.42L67.43,329.15c-10.07,5.81-22.25.52-22.25-11V214c0-11.54,12.18-25,22.25-30.78Z"/><path id="Trazado_1399" data-name="Trazado 1399" class="cls-61" d="M152.6,134.62c10.05-5.8,18.19-1.16,18.19,10.37V248.36c0,11.53-8.14,25.58-18.19,31.39L67.94,328.48c-10,5.8-21.86.58-21.86-11V214.16c0-11.53,11.82-25,21.86-30.8Z"/><path id="Trazado_1400" data-name="Trazado 1400" class="cls-62" d="M152.82,135c10-5.8,18.17-1.16,18.17,10.36v102.6c0,11.52-8.14,25.55-18.17,31.34L68.46,327.82c-10,5.79-21.47.63-21.47-10.89V214.33c0-11.52,11.44-25,21.48-30.82Z"/><path id="Trazado_1401" data-name="Trazado 1401" class="cls-63" d="M153,135.27c10-5.78,18.15-1.15,18.15,10.35V247.46c0,11.5-8.13,25.51-18.15,31.3L69,327.15c-10,5.78-21.08.69-21.08-10.81V214.5C47.9,203,59,189.45,69,183.66Z"/><path id="Trazado_1402" data-name="Trazado 1402" class="cls-64" d="M153.26,135.6c10-5.78,18.12-1.15,18.12,10.33V247c0,11.49-8.11,25.49-18.12,31.27L69.5,326.48c-10,5.78-20.69.74-20.69-10.74V214.68c0-11.49,10.68-25.08,20.69-30.86Z"/><path id="Trazado_1403" data-name="Trazado 1403" class="cls-65" d="M153.48,135.93c10-5.78,18.1-1.15,18.1,10.32v100.3c0,11.47-8.1,25.45-18.1,31.22L70,325.81c-10,5.77-20.3.8-20.3-10.67V214.85c0-11.48,10.3-25.1,20.3-30.88Z"/><path id="Trazado_1404" data-name="Trazado 1404" class="cls-66" d="M153.7,136.25c10-5.76,18.08-1.15,18.08,10.31v99.53c0,11.46-8.1,25.42-18.08,31.19L70.54,325.14c-10,5.77-19.91.86-19.91-10.6V215c0-11.46,9.92-25.13,19.91-30.9Z"/><path id="Trazado_1405" data-name="Trazado 1405" class="cls-67" d="M153.92,136.58c10-5.76,18.06-1.15,18.06,10.3v98.76c0,11.44-8.09,25.39-18.06,31.15l-82.86,47.7c-10,5.75-19.53.91-19.53-10.53V215.19c0-11.44,9.55-25.16,19.53-30.91Z"/><path id="Trazado_1406" data-name="Trazado 1406" class="cls-68" d="M154.14,136.91c10-5.75,18-1.15,18,10.28v98c0,11.43-8.07,25.36-18,31.11L71.58,323.81c-10,5.75-19.14,1-19.14-10.46v-98c0-11.43,9.18-25.18,19.14-30.93Z"/><path id="Trazado_1407" data-name="Trazado 1407" class="cls-69" d="M154.36,137.23c9.95-5.74,18-1.14,18,10.27v97.22c0,11.42-8.07,25.33-18,31.07L72.09,323.14c-9.94,5.74-18.74,1-18.74-10.38V215.53c0-11.41,8.8-25.21,18.74-30.95Z"/><path id="Trazado_1408" data-name="Trazado 1408" class="cls-70" d="M154.58,137.56c9.93-5.74,18-1.15,18,10.25v96.46c0,11.4-8.06,25.29-18,31l-82,47.17c-9.93,5.74-18.35,1.09-18.35-10.31V215.7c0-11.4,8.42-25.23,18.35-31Z"/><path id="Trazado_1409" data-name="Trazado 1409" class="cls-4" d="M154.8,137.89c9.92-5.73,18-1.15,18,10.24v95.69c0,11.38-8.05,25.25-18,31l-81.67,47c-9.92,5.73-18,1.14-18-10.24V215.87c0-11.38,8-25.26,18-31Z"/></g><path id="Trazado_1410" data-name="Trazado 1410" class="cls-71" d="M55.2,214.72c0-11.42,8.07-25.34,18-31.09l82.08-47.25c10-5.74,18-1.14,18,10.28V171L55.2,239Z"/><path id="Trazado_1411" data-name="Trazado 1411" class="cls-44" d="M155.31,283.66,73.23,330.9c-10,5.75-18,1.15-18-10.28V239l118.14-68v81.58C173.34,264,165.26,277.91,155.31,283.66Z"/><path id="Trazado_1412" data-name="Trazado 1412" class="cls-72" d="M73.22,183.63l82.09-47.25c10-5.74,18-1.14,18,10.28v1.75c0-11.43-8.07-16-18-10.28L73.22,185.37c-9.95,5.75-18,19.67-18,31.1v-1.75C55.2,203.3,63.27,189.38,73.22,183.63Z"/><ellipse id="Elipse_13" data-name="Elipse 13" class="cls-73" cx="148.4" cy="164.38" rx="20.62" ry="34.12"/><ellipse id="Elipse_14" data-name="Elipse 14" class="cls-74" cx="141.98" cy="189.12" rx="25.11" ry="14.49" transform="translate(-92.96 216.14) rotate(-59.67)"/><path id="Trazado_1413" data-name="Trazado 1413" class="cls-75" d="M142,168.67c-9.83,5.68-17.81,19.44-17.81,30.72s8,15.84,17.81,10.16Z"/><g id="Grupo_41" data-name="Grupo 41"><path id="Trazado_1414" data-name="Trazado 1414" class="cls-27" d="M132.91,205.27a1.53,1.53,0,0,1-.33-1V201a8.47,8.47,0,0,1,2.92-6,13.52,13.52,0,0,0,2.8-3.37,2.32,2.32,0,0,0,.29-.85,4.57,4.57,0,0,1-1.57-1.55,1.59,1.59,0,0,1-1.53-1.63,3.88,3.88,0,0,1,.77-2.27,10.25,10.25,0,0,1,5.19-8.79,6.07,6.07,0,0,1,2.92-1c1.26,0,2.77.7,3.07,3.91a1.88,1.88,0,0,1,.8,1.72A4.06,4.06,0,0,1,147,183.8a18.05,18.05,0,0,1-1.53,3.42,1.57,1.57,0,0,0-.25.9,3.23,3.23,0,0,0,2.27,0c2-.62,3.7.78,3.7,3.11v3.22a3,3,0,0,1-1.4,2.42l-14.95,8.63a1.75,1.75,0,0,1-.86.25A1.32,1.32,0,0,1,132.91,205.27Zm15-15.54a4.78,4.78,0,0,1-3.6-.19,1.44,1.44,0,0,1-.73-.92,2.93,2.93,0,0,1,.4-2.23,16,16,0,0,0,1.44-3.28l.07-.22.18-.16a2.77,2.77,0,0,0,.89-1.49,1.23,1.23,0,0,0,0-.19l-.7.15,0-1c-.12-2.95-1.12-2.95-1.45-2.95a4.55,4.55,0,0,0-2.1.75c-2.8,1.61-4.23,4.14-4.37,7.73l0,.34-.25.23a2.47,2.47,0,0,0-.54,1.29l.85-.19.3.64a3,3,0,0,0,1.19,1.33,1.55,1.55,0,0,1,.71,1,2.91,2.91,0,0,1-.41,2.15,15.51,15.51,0,0,1-3.16,3.78,6.85,6.85,0,0,0-2.34,4.72v2.91l14.69-8.48a1.36,1.36,0,0,0,.57-1v-3.22c0-.48-.1-1.6-1.06-1.6a1.69,1.69,0,0,0-.5.08Z"/></g><g id="Grupo_42" data-name="Grupo 42"><path id="Trazado_1415" data-name="Trazado 1415" class="cls-76" d="M68.68,282.16l91.55-53V207.51l-91.55,53Z"/><path id="Trazado_1416" data-name="Trazado 1416" class="cls-5" d="M157.91,228.33V208.86l2.32-1.34V229.2l-91.55,53V280Z"/></g><g id="Grupo_43" data-name="Grupo 43"><path id="Trazado_1417" data-name="Trazado 1417" class="cls-76" d="M68.68,311.52l91.55-53V236.88l-91.55,53Z"/><path id="Trazado_1418" data-name="Trazado 1418" class="cls-5" d="M157.91,257.69V238.22l2.32-1.34v21.68l-91.55,53v-2.2Z"/></g></g><path id="Trazado_1419" data-name="Trazado 1419" class="cls-53" d="M192.28,162.87,188,168.39a3,3,0,0,0-.7,2.5,16.39,16.39,0,0,0,1.5,3.27c.33.54,1.08.47,1.78-.13l4.92-4.19a8.38,8.38,0,0,0,3.8,2.17l-1.18,6.32c-.17.9.14,1.58.79,1.59a16.63,16.63,0,0,0,3.59-.36,3.06,3.06,0,0,0,1.83-1.86l2.64-6.48a19.52,19.52,0,0,0,2.69-1.29,25.67,25.67,0,0,0,2.68-1.81l2.65,3.42c.38.49,1.13.41,1.82-.25a47.71,47.71,0,0,0,3.6-3.79,3.12,3.12,0,0,0,.78-2.5L220,160a43.61,43.61,0,0,0,3.8-6.55L228.7,152a3.16,3.16,0,0,0,1.79-1.94,50.05,50.05,0,0,0,1.49-5c.22-.92-.08-1.61-.7-1.69l-4.31-.54a26.67,26.67,0,0,0,.23-3.22,20.82,20.82,0,0,0-.23-2.95l4.31-5.53a3,3,0,0,0,.7-2.5,15.73,15.73,0,0,0-1.49-3.26c-.34-.55-1.08-.47-1.79.13l-4.91,4.19a8.39,8.39,0,0,0-3.8-2.17l1.17-6.32c.17-.91-.14-1.58-.78-1.59a15.55,15.55,0,0,0-3.6.36,3,3,0,0,0-1.82,1.86l-2.65,6.47a20.63,20.63,0,0,0-2.68,1.29,25.81,25.81,0,0,0-2.69,1.81L204.29,128c-.38-.49-1.13-.41-1.82.25a46.05,46.05,0,0,0-3.6,3.79,3.12,3.12,0,0,0-.78,2.5l1.17,5a43.12,43.12,0,0,0-3.8,6.55l-4.91,1.49a3.16,3.16,0,0,0-1.79,1.94,50.05,50.05,0,0,0-1.49,5c-.22.92.08,1.61.7,1.69l4.31.54a26.67,26.67,0,0,0-.23,3.22A22.56,22.56,0,0,0,192.28,162.87Zm10.29-9a15.55,15.55,0,0,1,7.06-12.17c3.9-2.25,7.05-.45,7.05,4a15.54,15.54,0,0,1-7.05,12.17c-3.9,2.25-7.06.44-7.06-4Z"/><g id="Grupo_46" data-name="Grupo 46"><g id="Grupo_45" data-name="Grupo 45" class="cls-32"><path id="Trazado_1420" data-name="Trazado 1420" class="cls-77" d="M227.31,231c6.8-3.93,12.31-.78,12.31,7v18c0,7.8-5.51,17.31-12.31,21.24l-44.84,26.12c-6.8,3.92-15,.35-15-7.46V278c0-7.8,8.24-16.88,15-20.81Z"/><path id="Trazado_1421" data-name="Trazado 1421" class="cls-78" d="M227.68,231.57c6.76-3.91,12.25-.78,12.25,7v17.15c0,7.77-5.49,17.23-12.25,21.13l-44.44,25.9c-6.77,3.9-14.73.38-14.73-7.38V278.2c0-7.77,8-16.83,14.73-20.74Z"/><path id="Trazado_1422" data-name="Trazado 1422" class="cls-79" d="M228,232.12c6.74-3.89,12.19-.78,12.19,6.95v16.29c0,7.72-5.45,17.14-12.19,21L184,302c-6.74,3.89-14.43.42-14.43-7.3V278.46c0-7.73,7.69-16.79,14.43-20.68Z"/><path id="Trazado_1423" data-name="Trazado 1423" class="cls-80" d="M228.41,232.67c6.7-3.87,12.13-.77,12.13,6.91V255c0,7.69-5.43,17.06-12.13,20.93l-43.63,25.42c-6.7,3.87-14.12.45-14.12-7.24V278.7c0-7.69,7.42-16.74,14.12-20.61Z"/><path id="Trazado_1424" data-name="Trazado 1424" class="cls-81" d="M228.77,233.22c6.67-3.85,12.07-.77,12.07,6.88v14.56c0,7.65-5.4,17-12.07,20.82l-43.22,25.19c-6.67,3.85-13.81.49-13.81-7.16V279c0-7.65,7.14-16.7,13.81-20.55Z"/><path id="Trazado_1425" data-name="Trazado 1425" class="cls-82" d="M229.14,233.76c6.63-3.83,12-.76,12,6.85v13.7c0,7.61-5.38,16.88-12,20.72l-42.83,25c-6.63,3.83-13.5.53-13.5-7.08V279.2c0-7.61,6.87-16.65,13.5-20.48Z"/><path id="Trazado_1426" data-name="Trazado 1426" class="cls-83" d="M229.5,234.31c6.6-3.81,12-.76,12,6.82V254c0,7.57-5.36,16.8-12,20.61l-42.41,24.72c-6.6,3.82-13.19.57-13.19-7V279.46c0-7.58,6.59-16.61,13.19-20.43Z"/><path id="Trazado_1427" data-name="Trazado 1427" class="cls-84" d="M229.87,234.86c6.57-3.79,11.89-.75,11.89,6.78v12c0,7.53-5.32,16.72-11.89,20.51l-42,24.49c-6.57,3.79-12.89.6-12.89-6.94v-12c0-7.53,6.32-16.56,12.89-20.35Z"/><path id="Trazado_1428" data-name="Trazado 1428" class="cls-85" d="M230.23,235.41c6.54-3.77,11.84-.75,11.84,6.75v11.1c0,7.5-5.3,16.63-11.84,20.41l-41.6,24.25c-6.54,3.77-12.58.64-12.58-6.86V280c0-7.5,6-16.52,12.58-20.3Z"/><path id="Trazado_1429" data-name="Trazado 1429" class="cls-86" d="M230.6,236c6.5-3.76,11.77-.75,11.77,6.71V252.9c0,7.46-5.27,16.55-11.77,20.31l-41.2,24c-6.5,3.75-12.27.67-12.27-6.79V280.21c0-7.46,5.77-16.48,12.27-20.23Z"/><path id="Trazado_1430" data-name="Trazado 1430" class="cls-87" d="M231,236.51c6.47-3.74,11.72-.75,11.72,6.68v9.36c0,7.43-5.25,16.47-11.72,20.2l-40.8,23.79c-6.46,3.73-12,.7-12-6.72v-9.36c0-7.43,5.5-16.43,12-20.17Z"/><path id="Trazado_1431" data-name="Trazado 1431" class="cls-4" d="M231.33,237.06c6.44-3.72,11.65-.74,11.65,6.64v8.5c0,7.39-5.21,16.38-11.65,20.1l-40.39,23.55c-6.44,3.72-11.66.75-11.66-6.64v-8.5c0-7.38,5.22-16.38,11.66-20.1Z"/></g><path id="Trazado_1432" data-name="Trazado 1432" class="cls-88" d="M183.13,302.86l51.63-30c5.56-3.21,10.11-11.91,10.11-19.33V242.57c0-7.42-4.55-10.86-10.11-7.65l-51.63,30c-5.56,3.21-10.11,11.91-10.11,19.32v11C173,302.63,177.57,306.08,183.13,302.86Z"/><path id="Trazado_1433" data-name="Trazado 1433" class="cls-89" d="M183.13,265l51.63-30c5.56-3.21,10.11.23,10.11,7.65v1.13c0-7.42-4.55-10.86-10.11-7.64l-51.63,30C177.57,269.29,173,278,173,285.41v-1.14C173,276.86,177.57,268.16,183.13,265Z"/><path id="Trazado_1434" data-name="Trazado 1434" class="cls-90" d="M183.13,265l26.49-15.41v37.92l-26.49,15.4c-5.56,3.22-10.11-.22-10.11-7.64v-11C173,276.86,177.57,268.16,183.13,265Z"/></g><g id="Grupo_48" data-name="Grupo 48"><g id="Grupo_47" data-name="Grupo 47"><path id="Trazado_1435" data-name="Trazado 1435" class="cls-5" d="M190.66,156.49l-2.69-.34c-.46-.06-.75-.46-.77-1.05l3.56.45C190.72,155.87,190.7,156.18,190.66,156.49Z"/><path id="Trazado_1436" data-name="Trazado 1436" class="cls-5" d="M205.41,130.28l-2-2.56a.83.83,0,0,1,.86.28l1.53,2Z"/><path id="Trazado_1437" data-name="Trazado 1437" class="cls-5" d="M197.74,170.86l-.1.52a8.59,8.59,0,0,1-2-1.38A8.37,8.37,0,0,0,197.74,170.86Z"/><path id="Trazado_1438" data-name="Trazado 1438" class="cls-5" d="M220.09,127a8.08,8.08,0,0,0-1.63-.63l1.18-6.32a3,3,0,0,0,0-.42c.23,0,.47,0,.71,0,.64,0,1,.69.79,1.59Z"/><path id="Trazado_1439" data-name="Trazado 1439" class="cls-5" d="M215.25,170.15a47.71,47.71,0,0,0,3.6-3.79,3.17,3.17,0,0,0,.79-2.5l-1.18-5a42.4,42.4,0,0,0,3.8-6.56l4.91-1.48a3.21,3.21,0,0,0,1.79-1.94,47.7,47.7,0,0,0,1.49-5,2.22,2.22,0,0,0,.07-.63l.75.1c.62.07.93.76.7,1.68a46.07,46.07,0,0,1-1.49,5,3.17,3.17,0,0,1-1.79,1.93l-4.91,1.49a42.87,42.87,0,0,1-3.8,6.56l1.18,5a3.17,3.17,0,0,1-.79,2.5,49.49,49.49,0,0,1-3.6,3.79c-.69.65-1.44.73-1.82.24l-.66-.86A1.91,1.91,0,0,0,215.25,170.15Z"/><path id="Trazado_1440" data-name="Trazado 1440" class="cls-5" d="M200.94,178.41a3,3,0,0,0,1.83-1.86l2.64-6.48a19,19,0,0,0,2.69-1.29,25.3,25.3,0,0,0,2.69-1.81l1.11,1.44a26.4,26.4,0,0,1-2.27,1.52,22.88,22.88,0,0,1-2.69,1.29l-2.65,6.48a3,3,0,0,1-1.82,1.86,16.69,16.69,0,0,1-3.59.36c-.54,0-.83-.49-.82-1.18A15.5,15.5,0,0,0,200.94,178.41Z"/><path id="Trazado_1441" data-name="Trazado 1441" class="cls-5" d="M189,172.88l4.92-4.19a7.76,7.76,0,0,0,1.5,1.17L190.55,174c-.7.6-1.45.67-1.78.12-.17-.27-.31-.57-.46-.86A2.2,2.2,0,0,0,189,172.88Z"/><path id="Trazado_1442" data-name="Trazado 1442" class="cls-5" d="M227,136.67a21,21,0,0,1,.22,3,21.9,21.9,0,0,1-.13,2.27l-1.62-.2a26.67,26.67,0,0,0,.23-3.22,19.44,19.44,0,0,0-.23-2.95l4.32-5.53a3.06,3.06,0,0,0,.7-2.5,16.41,16.41,0,0,0-1-2.4.86.86,0,0,1,1.07.28,15.73,15.73,0,0,1,1.49,3.26,3,3,0,0,1-.7,2.5Z"/><path id="Trazado_1443" data-name="Trazado 1443" class="cls-5" d="M222.08,128.39l.21.14,0,0Z"/></g></g><path id="Trazado_1444" data-name="Trazado 1444" class="cls-27" d="M119.32,310.16l4.52,4.75c.4.43,0,1.58-.72,2l-9,5.21c-.7.41-1.12-.27-.71-1.17l4.51-10C118.24,310.22,119,309.8,119.32,310.16Z"/><path id="Trazado_1445" data-name="Trazado 1445" class="cls-91" d="M204.68,272.9c0,3,2.13,4.22,4.75,2.71a10.47,10.47,0,0,0,4.75-8.19c0-3-2.13-4.23-4.75-2.71A10.46,10.46,0,0,0,204.68,272.9Z"/><path id="Trazado_1446" data-name="Trazado 1446" class="cls-92" d="M294,177.75l9-12.52V183L294,181C293,180.72,293,179.08,294,177.75Z"/><path id="Trazado_1447" data-name="Trazado 1447" class="cls-93" d="M10.85,209.28l6-3.47v-6.9a2.1,2.1,0,0,1,1-1.66l2.81-1.62v24.49l-2.81,1.62c-.53.31-1,.06-1-.54v-6.9l-6,3.47c-.53.3-1,.06-1-.55v-6.28A2.14,2.14,0,0,1,10.85,209.28Z"/><path id="Trazado_1448" data-name="Trazado 1448" class="cls-27" d="M124.12,368.28a.64.64,0,0,1-.52-.73.65.65,0,0,1,.74-.53,5.82,5.82,0,0,0,3.37-.42.64.64,0,0,1,.52,1.16,7.21,7.21,0,0,1-4.1.52Zm-3.71-1.8a7.11,7.11,0,0,1-2.15-3.54.63.63,0,0,1,.46-.77.64.64,0,0,1,.78.45,5.85,5.85,0,0,0,1.76,2.91.64.64,0,1,1-.85,1Zm10.34-.85a.64.64,0,0,1,.24-.86h0l3.33-1.89a.64.64,0,0,1,.87.23.65.65,0,0,1-.24.87l-3.33,1.89a.62.62,0,0,1-.86-.23h0Zm6.65-3.78a.64.64,0,0,1,.24-.86L141,359.1a.63.63,0,0,1,.63,1.1l-3.33,1.89a.56.56,0,0,1-.31.09.64.64,0,0,1-.55-.32ZM118,359v-3.83a.64.64,0,1,1,1.27,0V359a.64.64,0,0,1-1.27,0Zm26-.9a.64.64,0,0,1,.24-.87h0l3.33-1.89a.63.63,0,0,1,.87.24.65.65,0,0,1-.24.87l-3.33,1.89a.65.65,0,0,1-.31.08.64.64,0,0,1-.55-.32Zm6.65-3.78a.64.64,0,0,1,.24-.87h0l3.33-1.89a.62.62,0,0,1,.86.24.64.64,0,0,1-.23.87l-3.33,1.89a.69.69,0,0,1-.32.08.64.64,0,0,1-.54-.32Zm-32.67-3V347.5a.64.64,0,0,1,1.27,0v3.83a.64.64,0,1,1-1.27,0Zm39.32-.81a.64.64,0,0,1,.24-.87h0l3.32-1.89a.64.64,0,1,1,.63,1.11h0l-3.32,1.89a.65.65,0,0,1-.87-.24Zm6.65-3.78a.64.64,0,0,1,.24-.87h0l3.32-1.89a.64.64,0,1,1,.63,1.11L164.87,347a.72.72,0,0,1-.32.08.62.62,0,0,1-.54-.32Zm-46-3.06v-3.82a.64.64,0,1,1,1.27,0v3.82a.64.64,0,1,1-1.27,0Zm52.62-.72a.64.64,0,0,1,.24-.87l3.32-1.89a.64.64,0,1,1,.63,1.11l-3.32,1.89a.65.65,0,0,1-.87-.24Zm6.65-3.78a.63.63,0,0,1,.24-.87h0l3.32-1.89a.64.64,0,0,1,.87.24.63.63,0,0,1-.24.87l-3.32,1.89a.72.72,0,0,1-.32.08.62.62,0,0,1-.54-.32ZM118,336v-3.82a.64.64,0,1,1,1.27,0V336a.64.64,0,1,1-1.27,0ZM184,335.4a.64.64,0,0,1,.24-.87h0l3.32-1.89a.64.64,0,0,1,.87.24.63.63,0,0,1-.24.87l-3.32,1.89a.65.65,0,0,1-.87-.24Zm6.65-3.78a.63.63,0,0,1,.24-.87h0l3.32-1.89a.65.65,0,0,1,.87.24.63.63,0,0,1-.24.87l-3.32,1.89a.61.61,0,0,1-.32.08.62.62,0,0,1-.54-.32ZM118,328.38v-3.82a.64.64,0,1,1,1.27,0v3.82a.64.64,0,1,1-1.27,0Zm79.22-.54a.63.63,0,0,1,.24-.87h0l1.67-1c.53-.3,1.05-.63,1.55-1a.64.64,0,0,1,.89.15.65.65,0,0,1-.15.89,19.28,19.28,0,0,1-1.66,1.05l-1.67.95a.64.64,0,0,1-.87-.23Zm6.28-4.31a.63.63,0,0,1,0-.9,19.29,19.29,0,0,0,2.27-2.91.64.64,0,1,1,1.08.68,20.82,20.82,0,0,1-2.43,3.11.64.64,0,0,1-.9,0Zm-85.5-2.8v-3.65a.64.64,0,1,1,1.27,0v3.65a.64.64,0,1,1-1.27,0Zm89.78-3.49a.63.63,0,0,1-.36-.82h0a18.25,18.25,0,0,0,1-3.56.65.65,0,0,1,.76-.49.63.63,0,0,1,.5.71,20.58,20.58,0,0,1-1.06,3.8.64.64,0,0,1-.6.41.59.59,0,0,1-.22-.05Zm.92-8.07v-3.83a.64.64,0,0,1,1.27,0h0v3.83a.64.64,0,0,1-1.27,0Zm0-7.65v-3.83a.64.64,0,0,1,1.27,0v3.83a.64.64,0,1,1-1.27,0Zm0-7.65v-3.82a.64.64,0,1,1,1.27,0v3.82a.64.64,0,0,1-1.27,0Zm0-7.65V282.4a.64.64,0,1,1,1.27,0v3.82a.64.64,0,1,1-1.27,0Zm0-7.65v-3.82a.64.64,0,1,1,1.27,0v3.82a.64.64,0,1,1-1.27,0Z"/></g></svg>