<svg id="Capa_1" data-name="Capa 1" xmlns="http://www.w3.org/2000/svg" viewBox="0 0 438.97 391.59"><defs><style>.cls-1{fill:#72b5e8;}.cls-2{fill:#a8cff0;}.cls-3{fill:#d1ebff;}.cls-4,.cls-7{fill:#fff;}.cls-5{fill:#eb4680;}.cls-6{fill:#d62d69;}.cls-7{isolation:isolate;opacity:0.7;}.cls-8{fill:#3f92d1;}.cls-9{fill:#4f9fdb;}.cls-10{fill:#03336e;}.cls-11{fill:#001a46;}.cls-12{fill:#fc0;}.cls-13{fill:#0fbab8;}.cls-14{fill:#2672ab;}.cls-15{fill:#084c94;}.cls-16{fill:#0ba19f;}.cls-17{fill:#ffd70f;}.cls-18{fill:#d99f00;}.cls-19{fill:#b08100;}.cls-20{fill:#ffde17;}.cls-21{fill:#3ecfcd;}.cls-22{fill:#f76195;}</style></defs><g id="Grupo_5" data-name="Grupo 5"><path id="Trazado_6" data-name="Trazado 6" class="cls-1" d="M69.68,227c9.77-5.64,17.69-19.3,17.69-30.5,0-4.16-1.1-7.38-3-9.51,5.37.39,9,4.88,9,12.45,0,11.21-7.92,24.87-17.68,30.51-6.14,3.54-11.53,3.05-14.7-.57A15.38,15.38,0,0,0,69.68,227Z"/><path id="Trazado_7" data-name="Trazado 7" class="cls-2" d="M52.8,227.2l-7.15,9.16a21.09,21.09,0,0,0,3.24,7.08L57,236.5a11.21,11.21,0,0,0,5.07,2.89l-2,10.47a21.62,21.62,0,0,0,7.8-.78l4.38-10.74a27.52,27.52,0,0,0,3.59-1.72,34.56,34.56,0,0,0,3.58-2.42l4.39,5.67a65.22,65.22,0,0,0,7.8-8.22l-2-8.22a56.46,56.46,0,0,0,5.07-8.74l8.15-2.47a64.78,64.78,0,0,0,3.25-10.82l-7.15-.9a34.1,34.1,0,0,0,.3-4.29,27.4,27.4,0,0,0-.3-3.94l7.15-9.16A21.48,21.48,0,0,0,103,176L94.81,183a11.21,11.21,0,0,0-5.07-2.89l2-10.47a21.65,21.65,0,0,0-7.8.79l-4.38,10.73a28.15,28.15,0,0,0-3.59,1.72,37.44,37.44,0,0,0-3.58,2.42L68,179.6a65.9,65.9,0,0,0-7.8,8.22l2,8.22A57.73,57.73,0,0,0,57,204.79l-8.15,2.46a65,65,0,0,0-3.23,10.82l7.14.91a38.32,38.32,0,0,0-.3,4.29A27.27,27.27,0,0,0,52.8,227.2ZM58,219.82c0-11.21,7.92-24.87,17.69-30.51s17.68-1.12,17.68,10.09-7.92,24.87-17.68,30.51S58,231,58,219.82Z"/><path id="Trazado_8" data-name="Trazado 8" class="cls-1" d="M72.65,177.2,77,166.46l6.85,3.94L79.5,181.13Z"/><path id="Trazado_9" data-name="Trazado 9" class="cls-3" d="M79.5,181.13a28,28,0,0,0-3.58,1.72,34.56,34.56,0,0,0-3.58,2.42L68,179.6h0s.74-.47,1.12-.68a26.74,26.74,0,0,1,3.58-1.72Z"/><path id="Trazado_10" data-name="Trazado 10" class="cls-3" d="M77,166.46a21.85,21.85,0,0,1,7.8-.79l6.85,3.94a21.62,21.62,0,0,0-7.8.78Z"/><path id="Trazado_11" data-name="Trazado 11" class="cls-3" d="M53.3,183.88a64.47,64.47,0,0,1,7.8-8.22L68,179.6a64.47,64.47,0,0,0-7.8,8.22Z"/><path id="Trazado_12" data-name="Trazado 12" class="cls-1" d="M60.15,187.82l2,8.22-6.85-3.94-2-8.22Z"/><path id="Trazado_13" data-name="Trazado 13" class="cls-1" d="M62.1,196A57.73,57.73,0,0,0,57,204.79l-6.85-3.94a56.9,56.9,0,0,1,5.07-8.75Z"/><path id="Trazado_14" data-name="Trazado 14" class="cls-3" d="M57,204.78l-8.15,2.47L42,203.31l8.15-2.46Z"/><path id="Trazado_15" data-name="Trazado 15" class="cls-1" d="M48.88,207.25a66,66,0,0,0-3.24,10.82l-6.85-3.93A65.81,65.81,0,0,1,42,203.31Z"/><path id="Trazado_16" data-name="Trazado 16" class="cls-1" d="M89.74,180.08l.57-3,5.8-4.95L103,176,94.81,183A11.21,11.21,0,0,0,89.74,180.08Z"/><path id="Trazado_17" data-name="Trazado 17" class="cls-1" d="M45.64,236.36a21.48,21.48,0,0,0,3.24,7.08L42,239.51a21.48,21.48,0,0,1-3.24-7.08Z"/><path id="Trazado_18" data-name="Trazado 18" class="cls-1" d="M45.94,223.27a28.91,28.91,0,0,1-.3-3.94c0-.41,0-.83,0-1.25l7.1.9a34.07,34.07,0,0,0-.3,4.28,28.79,28.79,0,0,0,.3,3.94Z"/><path id="Trazado_19" data-name="Trazado 19" class="cls-3" d="M52.79,227.2l-7.15,9.16-6.85-3.93,7.15-9.16Z"/><path id="Trazado_20" data-name="Trazado 20" class="cls-1" d="M57,236.5a11.12,11.12,0,0,0,5.07,2.89l-2,10.47-6.85-3.93,1.38-7.43Z"/><path id="Trazado_21" data-name="Trazado 21" class="cls-3" d="M99.3,197.36l6.89,4-7.14-.9C99.18,199.44,99.26,198.39,99.3,197.36Z"/><path id="Trazado_22" data-name="Trazado 22" class="cls-1" d="M79.5,234.21l4.39,5.67L77,236C77.83,235.4,78.68,234.83,79.5,234.21Z"/><path id="Trazado_23" data-name="Trazado 23" class="cls-4" d="M90.57,180.56l0-.11c.33.13.64.28,1,.43A10,10,0,0,0,90.57,180.56Z"/><path id="Trazado_24" data-name="Trazado 24" class="cls-4" d="M99.92,200.62l5.93.75c0,.11,0,.23-.08.35L99.88,201C99.89,200.85,99.9,200.74,99.92,200.62Z"/><path id="Trazado_25" data-name="Trazado 25" class="cls-4" d="M60.53,188.27l1.95,8.22a57.63,57.63,0,0,0-5.07,8.74l-8.14,2.47a63.76,63.76,0,0,0-3.16,10.47L45.3,218a64.47,64.47,0,0,1,3.24-10.82l8.15-2.47A56,56,0,0,1,61.76,196l-2-8.22a65.22,65.22,0,0,1,7.8-8.22l.27.9A65.27,65.27,0,0,0,60.53,188.27Z"/><path id="Trazado_26" data-name="Trazado 26" class="cls-4" d="M75.63,229.77c9.77-5.64,17.69-19.3,17.69-30.51,0-4.95-1.55-8.58-4.12-10.61,3,1.91,4.79,5.72,4.79,11.09,0,11.21-7.92,24.87-17.68,30.51-4.94,2.85-9.39,3.1-12.6,1.21.23.08.48.12.73.18C67.49,232.74,71.39,232.22,75.63,229.77Z"/><path id="Trazado_27" data-name="Trazado 27" class="cls-4" d="M60.78,239a11.47,11.47,0,0,1-3.22-1.8l.3-.26A11.44,11.44,0,0,0,60.78,239Z"/><path id="Trazado_28" data-name="Trazado 28" class="cls-4" d="M95.07,183.16c.3,0,0-.23-.3-.48l7.84-6.68c.22.31.43.64.06.68Z"/><path id="Trazado_29" data-name="Trazado 29" class="cls-4" d="M62.29,239.86l-1.86,10c.21,0-.21,0-.63-.06l1.94-10.37C62.13,239.61,62.52,239.75,62.29,239.86Z"/><path id="Trazado_30" data-name="Trazado 30" class="cls-4" d="M52.15,223.23a34.75,34.75,0,0,1,.26-3.94l.71.06a38.32,38.32,0,0,0-.3,4.29,28.76,28.76,0,0,0,.3,3.93L46,236.73a21.6,21.6,0,0,0,2.61,6.11l-.05.57a21.28,21.28,0,0,1-3.24-7.08l7.15-9.16A25.94,25.94,0,0,1,52.15,223.23Z"/><path id="Trazado_31" data-name="Trazado 31" class="cls-4" d="M84.19,170.68,79.8,181.42a26.74,26.74,0,0,0-3.58,1.72,37.48,37.48,0,0,0-3.59,2.41l-.13-.68a33.45,33.45,0,0,1,3.07-2.05,28.15,28.15,0,0,1,3.59-1.72l4.38-10.74a21.64,21.64,0,0,1,7.8-.78l-.08.45A25.07,25.07,0,0,0,84.19,170.68Z"/><path id="Trazado_32" data-name="Trazado 32" class="cls-4" d="M80.34,234.68,84,239.42c-.15.14-.3.29-.46.42L79.83,235Z"/><path id="Trazado_33" data-name="Trazado 33" class="cls-1" d="M72.22,142.85c14.69-8.49,26.61-29,26.61-45.89,0-6.25-1.66-11.09-4.48-14.3,8.07.58,13.52,7.33,13.52,18.73,0,16.86-11.91,37.4-26.6,45.89-9.23,5.33-17.34,4.6-22.1-.85C63,146.71,67.47,145.59,72.22,142.85Z"/><path id="Trazado_34" data-name="Trazado 34" class="cls-2" d="M46.82,143.2,36.07,157a31.8,31.8,0,0,0,4.87,10.65l12.25-10.45a16.89,16.89,0,0,0,7.63,4.35L57.88,177.3a32.55,32.55,0,0,0,11.74-1.18L76.22,160a41.07,41.07,0,0,0,5.39-2.59A52.92,52.92,0,0,0,87,153.75l6.6,8.53a98.08,98.08,0,0,0,11.73-12.38l-2.94-12.36A85.83,85.83,0,0,0,110,124.38l12.25-3.7a97.4,97.4,0,0,0,4.88-16.28L116.39,103a51.53,51.53,0,0,0,.46-6.45,40.51,40.51,0,0,0-.46-5.93l10.76-13.77a32.07,32.07,0,0,0-4.88-10.66L110,76.68a16.78,16.78,0,0,0-7.63-4.35l2.94-15.76a32.57,32.57,0,0,0-11.74,1.19L87,73.9a42.38,42.38,0,0,0-5.39,2.59,53,53,0,0,0-5.39,3.64l-6.6-8.53A98.11,98.11,0,0,0,57.88,84l2.94,12.36a85.83,85.83,0,0,0-7.63,13.16l-12.25,3.7a96.44,96.44,0,0,0-4.87,16.28l10.75,1.36a53.65,53.65,0,0,0-.46,6.45A40.38,40.38,0,0,0,46.82,143.2Zm7.84-11.1c0-16.86,11.91-37.4,26.6-45.89s26.61-1.69,26.61,15.17S96,138.79,81.27,147.27,54.66,149,54.66,132.1Z"/><path id="Trazado_35" data-name="Trazado 35" class="cls-1" d="M76.69,68l6.6-16.15L93.6,57.76,87,73.91Z"/><path id="Trazado_36" data-name="Trazado 36" class="cls-3" d="M87,73.91a41,41,0,0,0-5.39,2.58,54.71,54.71,0,0,0-5.39,3.64l-6.6-8.53h0s1.11-.7,1.68-1A41.07,41.07,0,0,1,76.69,68Z"/><path id="Trazado_37" data-name="Trazado 37" class="cls-3" d="M83.29,51.84A32.5,32.5,0,0,1,95,50.65l10.31,5.92a32.57,32.57,0,0,0-11.74,1.19Z"/><path id="Trazado_38" data-name="Trazado 38" class="cls-3" d="M47.58,78.05A97.33,97.33,0,0,1,59.31,65.68L69.62,71.6A98.11,98.11,0,0,0,57.88,84Z"/><path id="Trazado_39" data-name="Trazado 39" class="cls-1" d="M57.88,84l2.94,12.36L50.51,90.41,47.58,78Z"/><path id="Trazado_40" data-name="Trazado 40" class="cls-1" d="M60.82,96.33a85.83,85.83,0,0,0-7.63,13.16l-10.3-5.92a86.6,86.6,0,0,1,7.62-13.16Z"/><path id="Trazado_41" data-name="Trazado 41" class="cls-3" d="M53.19,109.49l-12.25,3.7-10.31-5.92,12.26-3.7Z"/><path id="Trazado_42" data-name="Trazado 42" class="cls-1" d="M40.94,113.19a96.72,96.72,0,0,0-4.87,16.28l-10.31-5.92a98.61,98.61,0,0,1,4.87-16.28Z"/><path id="Trazado_43" data-name="Trazado 43" class="cls-1" d="M102.39,72.33l.85-4.58L112,60.32l10.31,5.92L110,76.68A16.84,16.84,0,0,0,102.39,72.33Z"/><path id="Trazado_44" data-name="Trazado 44" class="cls-1" d="M36.07,157a31.8,31.8,0,0,0,4.87,10.65l-10.31-5.92a32.2,32.2,0,0,1-4.87-10.65Z"/><path id="Trazado_45" data-name="Trazado 45" class="cls-1" d="M36.51,137.29a41.94,41.94,0,0,1-.45-5.93c0-.62,0-1.25.07-1.88l10.69,1.35a51.67,51.67,0,0,0-.46,6.45,40.51,40.51,0,0,0,.46,5.93Z"/><path id="Trazado_46" data-name="Trazado 46" class="cls-3" d="M46.82,143.21,36.07,157l-10.31-5.92,10.75-13.78Z"/><path id="Trazado_47" data-name="Trazado 47" class="cls-1" d="M53.19,157.19a16.84,16.84,0,0,0,7.63,4.35L57.88,177.3l-10.3-5.92,2.08-11.17Z"/><path id="Trazado_48" data-name="Trazado 48" class="cls-3" d="M116.78,98.31l10.37,6.09L116.4,103C116.59,101.45,116.71,99.87,116.78,98.31Z"/><path id="Trazado_49" data-name="Trazado 49" class="cls-1" d="M87,153.74l6.6,8.53-10.38-5.9C84.49,155.55,85.75,154.68,87,153.74Z"/><path id="Trazado_50" data-name="Trazado 50" class="cls-4" d="M103.65,73l0-.16c.49.19,1,.42,1.43.65A14.71,14.71,0,0,0,103.65,73Z"/><path id="Trazado_51" data-name="Trazado 51" class="cls-4" d="M117.7,103.22l8.93,1.13-.12.52-8.86-1.12C117.67,103.57,117.68,103.4,117.7,103.22Z"/><path id="Trazado_52" data-name="Trazado 52" class="cls-4" d="M58.46,84.64,61.4,97a86.3,86.3,0,0,0-7.63,13.16l-12.25,3.71a97.31,97.31,0,0,0-4.76,15.76l-1.21-.2a96.17,96.17,0,0,1,4.87-16.28l12.25-3.71A86.56,86.56,0,0,1,60.3,96.29L57.37,83.92A97.33,97.33,0,0,1,69.1,71.55l.4,1.36A98.8,98.8,0,0,0,58.46,84.64Z"/><path id="Trazado_53" data-name="Trazado 53" class="cls-4" d="M81.18,147.07c14.69-8.49,26.6-29,26.6-45.89,0-7.44-2.34-12.9-6.2-16,4.47,2.87,7.21,8.61,7.21,16.69,0,16.86-11.91,37.4-26.6,45.88-7.42,4.29-14.12,4.67-18.95,1.83.36.11.73.18,1.1.26C68.93,151.55,74.79,150.76,81.18,147.07Z"/><path id="Trazado_54" data-name="Trazado 54" class="cls-4" d="M58.84,161A16.67,16.67,0,0,1,54,158.29l.46-.38A16.71,16.71,0,0,0,58.84,161Z"/><path id="Trazado_55" data-name="Trazado 55" class="cls-4" d="M110.41,77c.44,0,0-.35-.46-.72l11.8-10c.34.46.64,1,.09,1Z"/><path id="Trazado_56" data-name="Trazado 56" class="cls-4" d="M61.11,162.25,58.3,177.33c.33,0-.32,0-.94-.08l2.91-15.6C60.86,161.88,61.45,162.09,61.11,162.25Z"/><path id="Trazado_57" data-name="Trazado 57" class="cls-4" d="M45.85,137.24a48.78,48.78,0,0,1,.4-5.92l1.07.08a51.4,51.4,0,0,0-.46,6.45,40.49,40.49,0,0,0,.46,5.92L36.56,157.55a33.21,33.21,0,0,0,3.93,9.19l-.07.85a31.8,31.8,0,0,1-4.87-10.65L46.3,143.16A39.14,39.14,0,0,1,45.85,137.24Z"/><path id="Trazado_58" data-name="Trazado 58" class="cls-4" d="M94,58.19l-6.6,16.14a41.75,41.75,0,0,0-5.39,2.6,52.92,52.92,0,0,0-5.39,3.63l-.21-1a50.36,50.36,0,0,1,4.63-3.09,42.32,42.32,0,0,1,5.39-2.59l6.6-16.15a32.57,32.57,0,0,1,11.74-1.18l-.12.67A38.17,38.17,0,0,0,94,58.19Z"/><path id="Trazado_59" data-name="Trazado 59" class="cls-4" d="M88.25,154.45l5.52,7.14-.69.64L87.49,155Z"/><path id="Trazado_60" data-name="Trazado 60" class="cls-5" d="M68.29,50.65C68.21,49,67,48.2,65.67,49a5.36,5.36,0,0,0-2.32,4.51C63.43,55.2,64.6,56,66,55.16A5.36,5.36,0,0,0,68.29,50.65Z"/><path id="Trazado_61" data-name="Trazado 61" class="cls-5" d="M75.91,254.48c0-1.14-.83-1.63-1.74-1.1a3.56,3.56,0,0,0-1.54,3c.05,1.13.83,1.63,1.74,1.1A3.56,3.56,0,0,0,75.91,254.48Z"/><path id="Trazado_62" data-name="Trazado 62" class="cls-5" d="M26.1,172.07a.64.64,0,0,0,.64-.64.59.59,0,0,0-.09-.32l-3-5.24a.66.66,0,0,0-.88-.23.64.64,0,0,0-.22.87h0l2.23,3.83L20.23,169a.65.65,0,0,0-.8.42.64.64,0,0,0,.42.8L25.92,172A1.13,1.13,0,0,0,26.1,172.07Z"/><path id="Trazado_63" data-name="Trazado 63" class="cls-6" d="M79,195.15A14.58,14.58,0,0,0,73.31,202a13.88,13.88,0,0,1-1.88-.64,5,5,0,0,0-4.37.68,14.81,14.81,0,0,0-6.74,11.61c0,7.8,13.35,10.5,13.35,10.5s12.7-17,12.7-24.77c0-2.13.9-2.79-.31-3.49l-2.63-1.39A5,5,0,0,0,79,195.15Z"/><path id="Trazado_64" data-name="Trazado 64" class="cls-5" d="M81.23,196.36a14.86,14.86,0,0,0-6,7.6c-1.13-1.82-3.37-2.2-6-.7a14.84,14.84,0,0,0-6.73,11.6c0,7.8,12.7,10.12,12.7,10.12S88,208,88,200.2C88,195.93,85,194.21,81.23,196.36Z"/><path id="Trazado_65" data-name="Trazado 65" class="cls-7" d="M81.6,196.52a15.42,15.42,0,0,0-6.26,7.6c-.23-.37.08-.23-.23-.48a14.68,14.68,0,0,1,5.8-7.18c2-1.17,3.58-1.45,4.78-.71A5.24,5.24,0,0,0,81.6,196.52Z"/><path id="Trazado_66" data-name="Trazado 66" class="cls-7" d="M69.13,203.22c2-1.17,3.61-1.2,4.62-.57a5.21,5.21,0,0,0-4.08.76A14.85,14.85,0,0,0,62.94,215c0,3.62,2.74,6.06,5.68,7.63-3.28-1.53-6.23-3.79-6.23-7.82A14.86,14.86,0,0,1,69.13,203.22Z"/><path id="Trazado_67" data-name="Trazado 67" class="cls-5" d="M24.16,171.2l.86-.95c-6.86-6.22-10.48-16.36-10.48-29.33,0-32.28,22.89-71.75,51-88l-.63-1.1c-28.48,16.44-51.65,56.41-51.65,89.09C13.27,154.26,17,164.73,24.16,171.2Z"/><path id="Trazado_68" data-name="Trazado 68" class="cls-2" d="M4,149.46H4a.62.62,0,0,0,.63-.64c0-.42,0-.85,0-1.27a.64.64,0,1,0-1.27,0h0c0,.43,0,.86,0,1.28A.63.63,0,0,0,4,149.46Z"/><path id="Trazado_69" data-name="Trazado 69" class="cls-2" d="M39,193.59c-.85,0-1.72,0-2.57-.1a.62.62,0,0,1-.58-.68.63.63,0,0,1,.68-.59c.82.06,1.65.1,2.48.1a.64.64,0,0,1,.64.64.63.63,0,0,1-.64.63Zm3.16-.73a.64.64,0,0,1,.58-.69c.82-.06,1.65-.16,2.48-.28a.65.65,0,0,1,.72.55.64.64,0,0,1-.54.72h0c-.86.12-1.71.21-2.55.28h-.06a.63.63,0,0,1-.63-.58Zm-9.55.14c-.85-.15-1.69-.34-2.51-.56a.63.63,0,0,1-.47-.77.65.65,0,0,1,.77-.47h0c.79.21,1.6.39,2.42.54a.63.63,0,0,1,.51.74.64.64,0,0,1-.62.52Zm-6.19-1.76c-.8-.32-1.59-.67-2.35-1a.64.64,0,1,1,.56-1.14c.74.36,1.5.7,2.26,1a.63.63,0,0,1,.35.83.65.65,0,0,1-.82.35Zm-5.71-3c-.72-.47-1.42-1-2.09-1.5a.64.64,0,0,1,.73-1.05l.06.05c.64.5,1.31,1,2,1.44a.64.64,0,1,1-.63,1.11l-.07,0Zm-5-4.07c-.6-.6-1.2-1.24-1.75-1.89a.64.64,0,1,1,.95-.85l0,0c.53.62,1.1,1.23,1.68,1.82a.64.64,0,0,1-.86.94l0,0Zm-4.1-5c-.48-.7-.94-1.43-1.37-2.16a.64.64,0,1,1,1.1-.65h0c.42.71.86,1.41,1.33,2.1a.62.62,0,0,1-.17.88.63.63,0,0,1-.88-.16Zm-3.17-5.57c-.36-.76-.7-1.54-1-2.35a.64.64,0,1,1,1.17-.51v0c.32.78.65,1.54,1,2.28a.64.64,0,0,1-.3.85h0A.66.66,0,0,1,9,174a.63.63,0,0,1-.58-.37Zm-2.33-6c-.25-.8-.48-1.62-.7-2.46a.64.64,0,1,1,1.23-.33q.31,1.23.69,2.4a.63.63,0,0,1-.42.8h0a.58.58,0,0,1-.19,0A.65.65,0,0,1,6.13,167.71Zm-1.56-6.2c-.16-.82-.3-1.66-.44-2.51a.64.64,0,0,1,.54-.73.63.63,0,0,1,.72.53c.13.84.27,1.66.43,2.47a.62.62,0,0,1-.5.74l-.12,0a.64.64,0,0,1-.63-.52Zm-.91-6.32c-.08-.83-.14-1.68-.2-2.54a.64.64,0,0,1,.6-.67h0a.62.62,0,0,1,.67.56v0c.06.84.12,1.68.2,2.5a.64.64,0,0,1-.57.7H4.3a.63.63,0,0,1-.63-.58Z"/><path id="Trazado_70" data-name="Trazado 70" class="cls-2" d="M49.1,192.47h.14c.42-.1.84-.19,1.26-.3a.64.64,0,0,0-.31-1.24l-1.22.29a.64.64,0,0,0,.13,1.26Z"/><path id="Trazado_71" data-name="Trazado 71" class="cls-2" d="M130.66,91.66a.64.64,0,0,0,.63-.52c.07-.42.15-.84.22-1.26a.64.64,0,1,0-1.26-.21h0c-.06.41-.14.83-.22,1.24a.64.64,0,0,0,.52.74Z"/><path id="Trazado_72" data-name="Trazado 72" class="cls-2" d="M13,104.56a.63.63,0,0,1-.35-.83c.32-.8.66-1.6,1-2.4a.64.64,0,0,1,.82-.38.63.63,0,0,1,.37.82.14.14,0,0,1,0,.06c-.34.79-.66,1.58-1,2.37a.63.63,0,0,1-.59.4A.51.51,0,0,1,13,104.56Zm2.53-5.94a.64.64,0,0,1-.32-.84c.36-.79.73-1.57,1.1-2.35a.64.64,0,0,1,1.15.55h0c-.37.77-.73,1.55-1.09,2.33a.64.64,0,0,1-.58.37.58.58,0,0,1-.26-.06Zm2.78-5.82a.64.64,0,0,1-.28-.86h0c.39-.77.79-1.54,1.2-2.3a.64.64,0,1,1,1.12.6c-.4.76-.79,1.52-1.18,2.29a.64.64,0,0,1-.57.34.6.6,0,0,1-.29-.08Zm3-5.7a.63.63,0,0,1-.24-.87c.42-.75.85-1.5,1.28-2.25a.65.65,0,0,1,.87-.23.63.63,0,0,1,.23.87c-.43.74-.85,1.49-1.27,2.23a.64.64,0,0,1-.56.33.56.56,0,0,1-.31-.09Zm110-.51a.64.64,0,0,1-.54-.72h0q.16-1.28.3-2.55a.64.64,0,1,1,1.27.11v0c-.09.86-.2,1.72-.31,2.58a.64.64,0,0,1-.7.55ZM24.59,81.52a.64.64,0,0,1-.21-.88c.45-.73.91-1.46,1.37-2.19a.65.65,0,0,1,.88-.2.64.64,0,0,1,.2.88h0c-.46.73-.92,1.45-1.37,2.18a.62.62,0,0,1-.54.3A.63.63,0,0,1,24.59,81.52Zm107.47-1.35a.64.64,0,0,1-.59-.68c.05-.86.1-1.71.13-2.56a.65.65,0,0,1,.64-.61h0a.64.64,0,0,1,.62.66h0c0,.86-.09,1.73-.14,2.59a.64.64,0,0,1-.64.6Zm-104-4.08a.64.64,0,0,1-.17-.89c.48-.71,1-1.43,1.46-2.13a.64.64,0,0,1,1,.73c-.49.7-1,1.41-1.45,2.12a.66.66,0,0,1-.53.28.72.72,0,0,1-.35-.11Zm103.61-3c0-.87,0-1.72,0-2.56a.64.64,0,0,1,.61-.66h0a.63.63,0,0,1,.64.61c0,.86.05,1.73.05,2.6a.64.64,0,0,1-.63.64h0a.64.64,0,0,1-.64-.63ZM31.75,70.81a.66.66,0,0,1-.14-.9h0c.51-.69,1-1.38,1.55-2.06a.64.64,0,0,1,1,.77c-.52.68-1,1.36-1.54,2a.64.64,0,0,1-.51.26A.64.64,0,0,1,31.75,70.81Zm99.64-4.1c-.07-.87-.16-1.71-.26-2.55a.62.62,0,0,1,.55-.7h0a.63.63,0,0,1,.71.55c.11.85.2,1.71.27,2.59a.64.64,0,0,1-.58.69H132a.66.66,0,0,1-.63-.59Zm-95.73-1a.65.65,0,0,1-.1-.9h0c.54-.67,1.09-1.34,1.64-2a.64.64,0,1,1,1,.82h0c-.54.65-1.09,1.31-1.62,2a.65.65,0,0,1-.9.1Zm4.13-4.94a.63.63,0,0,1,0-.9h0c.57-.65,1.14-1.29,1.72-1.92a.64.64,0,0,1,.95.86h0l-1.71,1.9a.62.62,0,0,1-.48.22A.67.67,0,0,1,39.79,60.75Zm90.76-.37c-.15-.85-.32-1.68-.51-2.5a.64.64,0,1,1,1.24-.29c.19.84.37,1.69.53,2.56a.65.65,0,0,1-.52.74h-.11A.64.64,0,0,1,130.55,60.38ZM44.14,56a.64.64,0,0,1,0-.9c.61-.62,1.21-1.23,1.83-1.84a.63.63,0,0,1,.9,0,.65.65,0,0,1,0,.91c-.61.6-1.21,1.2-1.81,1.82a.63.63,0,0,1-.9,0Zm84.92-1.81c-.25-.83-.51-1.63-.8-2.42a.65.65,0,0,1,.39-.82.64.64,0,0,1,.81.39c.3.8.57,1.63.83,2.48a.64.64,0,0,1-1.22.37ZM48.73,51.47a.63.63,0,0,1,0-.9c.63-.59,1.27-1.18,1.92-1.75a.64.64,0,0,1,.9,0,.64.64,0,0,1-.06.9l-1.9,1.73a.61.61,0,0,1-.43.17A.63.63,0,0,1,48.73,51.47Zm78.09-3.23c-.36-.78-.73-1.54-1.13-2.27a.64.64,0,0,1,.31-.85.63.63,0,0,1,.81.25q.61,1.14,1.17,2.34a.65.65,0,0,1-.32.85h0a.64.64,0,0,1-.84-.32ZM53.54,47.17a.63.63,0,0,1,.08-.89h0c.67-.55,1.34-1.1,2-1.63a.64.64,0,0,1,.9.1.65.65,0,0,1-.1.9h0c-.67.53-1.33,1.07-2,1.62a.63.63,0,0,1-.89-.08h0Zm5.05-4a.64.64,0,0,1,.13-.89c.7-.52,1.4-1,2.11-1.52a.64.64,0,0,1,.73,1c-.7.49-1.39,1-2.08,1.5a.64.64,0,0,1-.89-.14Zm65.14-.45c-.47-.7-1-1.4-1.48-2.05a.62.62,0,0,1,0-.89.63.63,0,0,1,.9,0l0,.06c.53.67,1,1.39,1.54,2.12a.64.64,0,0,1-1.06.71ZM63.87,39.46a.63.63,0,0,1,.19-.88c.73-.47,1.46-.92,2.2-1.37a.64.64,0,0,1,.66,1.09c-.73.44-1.46.89-2.18,1.35a.63.63,0,0,1-.88-.19Zm55.88-1.65c-.6-.6-1.22-1.17-1.85-1.72a.65.65,0,0,1-.07-.9.64.64,0,0,1,.9-.06c.66.56,1.3,1.17,1.92,1.79a.63.63,0,0,1,0,.9.65.65,0,0,1-.91,0ZM69.39,36.13a.64.64,0,0,1,.25-.87c.77-.41,1.54-.82,2.3-1.2a.64.64,0,0,1,.87.24.65.65,0,0,1-.24.87l0,0c-.76.38-1.51.78-2.27,1.19a.64.64,0,0,1-.3.08A.63.63,0,0,1,69.39,36.13Zm45.5-2.32c-.7-.47-1.43-.9-2.16-1.3a.64.64,0,1,1,.57-1.14l0,0c.76.42,1.52.87,2.25,1.36a.64.64,0,0,1-.7,1.06Zm-39.74-.58a.63.63,0,0,1,.32-.84h0c.81-.36,1.61-.7,2.4-1a.64.64,0,1,1,.47,1.18h0c-.78.31-1.56.64-2.35,1a.64.64,0,0,1-.84-.32Zm6-2.38a.63.63,0,0,1,.4-.8c.84-.28,1.67-.53,2.49-.77a.65.65,0,0,1,.79.44.63.63,0,0,1-.44.79c-.81.23-1.62.48-2.44.75a.65.65,0,0,1-.8-.41Zm28.16,0c-.77-.3-1.58-.58-2.39-.82a.65.65,0,0,1-.41-.8.64.64,0,0,1,.78-.42c.84.25,1.68.54,2.49.86a.65.65,0,0,1,.36.82.64.64,0,0,1-.6.41.59.59,0,0,1-.23-.05Zm-22-1.8a.64.64,0,0,1,.49-.75h0c.86-.17,1.72-.33,2.57-.45a.63.63,0,0,1,.73.53.65.65,0,0,1-.54.73h0c-.83.12-1.66.27-2.51.44H88a.64.64,0,0,1-.63-.5Zm15.89.1c-.82-.14-1.67-.26-2.51-.34a.65.65,0,0,1-.55-.72.63.63,0,0,1,.68-.55c.87.09,1.75.21,2.6.36a.64.64,0,0,1-.11,1.26h-.11Zm-9.52-1.05a.64.64,0,0,1,.6-.67h0c.89-.06,1.76-.09,2.62-.09a.64.64,0,1,1,0,1.28c-.84,0-1.68,0-2.54.08h0a.64.64,0,0,1-.64-.6Z"/><path id="Trazado_73" data-name="Trazado 73" class="cls-2" d="M11.37,109.48a.64.64,0,0,0,.6-.42l.44-1.19a.63.63,0,1,0-1.19-.44l-.45,1.2a.63.63,0,0,0,.38.81A.57.57,0,0,0,11.37,109.48Z"/><path id="Trazado_74" data-name="Trazado 74" class="cls-5" d="M34.47,204.49a.64.64,0,0,0,.59-.4l.48-1.17a.63.63,0,0,0-.31-.84.64.64,0,0,0-.85.31v0c-.17.39-.33.79-.49,1.18a.64.64,0,0,0,.35.83A.69.69,0,0,0,34.47,204.49Z"/><path id="Trazado_75" data-name="Trazado 75" class="cls-5" d="M51.41,263.15a.64.64,0,0,1,.63-.64c.81,0,1.64-.05,2.46-.12a.67.67,0,0,1,.7.57.64.64,0,0,1-.58.69,24.71,24.71,0,0,1-2.57.13h0A.63.63,0,0,1,51.41,263.15Zm-3.23.36a24.86,24.86,0,0,1-2.54-.52.65.65,0,0,1-.45-.79.64.64,0,0,1,.78-.45,21.75,21.75,0,0,0,2.4.5.64.64,0,0,1,.53.73.63.63,0,0,1-.62.54Zm9.5-.94a.64.64,0,0,1,.48-.76h0c.78-.17,1.59-.37,2.4-.61a.64.64,0,0,1,.79.44.65.65,0,0,1-.44.79q-1.26.36-2.49.63H58.3a.63.63,0,0,1-.62-.5ZM42,261.65a21.91,21.91,0,0,1-2.28-1.25.64.64,0,0,1-.19-.88.62.62,0,0,1,.87-.2h0a19.35,19.35,0,0,0,2.14,1.18.63.63,0,0,1,.31.84.64.64,0,0,1-.58.37.6.6,0,0,1-.27-.06Zm21.74-.83a.65.65,0,0,1,.36-.82c.76-.3,1.53-.62,2.29-1a.65.65,0,0,1,.84.35.62.62,0,0,1-.31.81c-.79.37-1.57.7-2.35,1A.64.64,0,0,1,63.73,260.82ZM36.63,258c-.63-.59-1.23-1.22-1.8-1.87a.65.65,0,0,1,.07-.9.64.64,0,0,1,.9.07,23.55,23.55,0,0,0,1.69,1.77.62.62,0,0,1,0,.89.66.66,0,0,1-.46.21.63.63,0,0,1-.43-.17Zm-4.07-5c-.44-.72-.86-1.48-1.24-2.26a.64.64,0,0,1,.31-.85.63.63,0,0,1,.83.29c.37.74.77,1.47,1.19,2.15a.65.65,0,0,1-.22.88.6.6,0,0,1-.33.09A.62.62,0,0,1,32.56,253Zm-2.71-5.83c-.28-.8-.52-1.62-.75-2.46a.65.65,0,0,1,.46-.78.64.64,0,0,1,.78.46c.21.81.45,1.6.71,2.37a.62.62,0,0,1-.39.8h0a.64.64,0,0,1-.2,0,.63.63,0,0,1-.6-.43ZM28.31,241c-.14-.82-.25-1.67-.35-2.53a.63.63,0,0,1,.6-.68.63.63,0,0,1,.67.54q.14,1.26.33,2.46a.64.64,0,0,1-.52.74h-.1a.63.63,0,0,1-.63-.52Zm-.6-6.35c0-.59,0-1.18,0-1.79V232a.7.7,0,0,1,.65-.63.65.65,0,0,1,.63.65h0v.75q0,.88,0,1.74a.64.64,0,0,1-.61.66h0a.65.65,0,0,1-.64-.61Zm.73-5.7a.64.64,0,0,1-.59-.68c.07-.84.15-1.69.24-2.53a.64.64,0,0,1,1.27.14c-.1.83-.17,1.66-.23,2.49a.64.64,0,0,1-.64.58Zm.71-6.27a.64.64,0,0,1-.53-.73c.14-.83.3-1.66.47-2.5a.63.63,0,1,1,1.25.2.07.07,0,0,1,0,.05q-.24,1.23-.45,2.46a.63.63,0,0,1-.63.53.2.2,0,0,1-.11,0Zm1.24-6.18a.63.63,0,0,1-.46-.77c.2-.82.42-1.64.65-2.46a.65.65,0,0,1,.79-.44.64.64,0,0,1,.44.79c-.23.8-.44,1.61-.64,2.42a.65.65,0,0,1-.62.48h-.16Zm1.71-6.07a.63.63,0,0,1-.4-.8c.27-.8.54-1.6.82-2.4a.64.64,0,1,1,1.2.43q-.42,1.19-.81,2.37a.64.64,0,0,1-.6.44.52.52,0,0,1-.21,0Z"/><path id="Trazado_76" data-name="Trazado 76" class="cls-5" d="M70.07,258.52a.64.64,0,0,0,.3-.08c.38-.2.75-.41,1.13-.63a.64.64,0,0,0,.16-.89.65.65,0,0,0-.8-.21l-1.1.62a.63.63,0,0,0,.31,1.19Z"/><path id="Trazado_77" data-name="Trazado 77" class="cls-5" d="M36,205.12h0a.64.64,0,0,0,.6-.68h0L36.4,201a.62.62,0,0,0-.67-.59.61.61,0,0,0-.34.12l-2.87,2.13a.63.63,0,0,0-.14.88.62.62,0,0,0,.88.15h0l1.92-1.43.14,2.23A.64.64,0,0,0,36,205.12Z"/><path id="Trazado_78" data-name="Trazado 78" class="cls-4" d="M267.11,92.25c0-4.18,5.91-7.58,13.15-7.59s13.09,3.36,13.07,7.55c0,3.82-5,7-11.35,7.51v2.12c1.21.18,2.11.81,2.1,1.57l0,7.23c0,.91-1.29,1.65-2.85,1.65H279c-1.57,0-2.84-.73-2.83-1.64l0-7.23c0-.76.91-1.39,2.12-1.58V99.72C272,99.22,267.09,96.08,267.11,92.25Z"/><path id="Trazado_79" data-name="Trazado 79" class="cls-3" d="M108.37,388.25,336.05,256.72c8.82-5.09,16-18.74,16-30.5V19.1C352,7.35,344.87,2,336.05,7L108.37,138.57c-8.82,5.09-16,18.74-16,30.49V376.19C92.41,387.94,99.55,393.34,108.37,388.25Z"/><path id="Trazado_80" data-name="Trazado 80" class="cls-8" d="M102.06,135.31,329.74,3.77c3.49-2,6.72-2.38,9.34-1.37.34.13,6.57,3.36,6.89,3.53h0c-2.72-1.32-6.17-1.08-9.93,1.1L108.37,138.57c-8.82,5.09-16,18.74-16,30.49V376.19c0,7.33,2.78,12.2,7,13.57a2.58,2.58,0,0,1-1.4-.47c-.2-.12-6.82-3.7-7-3.84-3-2.12-4.92-6.48-4.92-12.52V165.8C86.1,154.05,93.24,140.4,102.06,135.31Z"/><path id="Trazado_81" data-name="Trazado 81" class="cls-9" d="M103.84,136.16,331.53,4.63c3.49-2,6.71-2.38,9.34-1.37.33.13,4.78,2.5,5.1,2.67h0c-2.71-1.32-6.17-1.08-9.92,1.1L108.37,138.57Z"/><path id="Trazado_82" data-name="Trazado 82" class="cls-4" d="M107.6,138.18,335.29,6.65c3.61-2.08,6.94-2.38,9.61-1.23a11.86,11.86,0,0,0-7.7,1.8L109.52,138.76c-8.82,5.09-16,18.74-16,30.5V376.38c0,6.93,2.5,11.63,6.35,13.29-4.93-.78-8.27-5.84-8.27-13.87V168.68C91.64,156.93,98.79,143.27,107.6,138.18Z"/><path id="Trazado_83" data-name="Trazado 83" class="cls-10" d="M343.05,37.52v188.7c0,9.22-4.39,18.23-11.48,22.74L106.31,379.07l-.37.22a3.05,3.05,0,0,1-4.57-2.65V177.14Z"/><path id="Trazado_84" data-name="Trazado 84" class="cls-11" d="M101.69,377.59l.38-.22L327.32,247.26c7.1-4.51,11.48-13.52,11.48-22.73V40l4.25-2.45v188.7c0,9.22-4.39,18.23-11.48,22.74L106.31,379.07l-.37.22a3.06,3.06,0,0,1-4.16-1.15,3.16,3.16,0,0,1-.22-.5Z"/><path id="Trazado_85" data-name="Trazado 85" class="cls-12" d="M114.05,154.47a9.67,9.67,0,0,1-4.39,7.58c-2.43,1.4-4.39.28-4.39-2.5a9.67,9.67,0,0,1,4.39-7.58C112.08,150.57,114.05,151.69,114.05,154.47Z"/><path id="Trazado_86" data-name="Trazado 86" class="cls-5" d="M125.38,147.89a9.67,9.67,0,0,1-4.39,7.58c-2.43,1.4-4.39.28-4.39-2.51a9.65,9.65,0,0,1,4.39-7.57C123.41,144,125.38,145.11,125.38,147.89Z"/><path id="Trazado_87" data-name="Trazado 87" class="cls-13" d="M136.71,141.31a9.69,9.69,0,0,1-4.39,7.58c-2.43,1.4-4.4.28-4.4-2.5a9.69,9.69,0,0,1,4.4-7.58C134.74,137.4,136.71,138.53,136.71,141.31Z"/><path id="Trazado_88" data-name="Trazado 88" class="cls-1" d="M191.46,140.23c0,1.92,1.36,2.69,3,1.72L211,132.42a6.68,6.68,0,0,0,3-5.22c0-1.91-1.35-2.68-3-1.72L194.49,135A6.66,6.66,0,0,0,191.46,140.23Zm-27.2,15.7c0,1.92,1.36,2.69,3,1.72l16.52-9.53a6.68,6.68,0,0,0,3-5.22c0-1.91-1.36-2.68-3-1.72l-16.52,9.54a6.61,6.61,0,0,0-3,5.21Zm-27.2,15.7c0,1.91,1.36,2.69,3,1.72l16.52-9.54a6.65,6.65,0,0,0,3-5.21c0-1.91-1.35-2.68-3-1.72l-16.52,9.54a6.63,6.63,0,0,0-3,5.22Zm-27.2,15.7c0,1.92,1.36,2.69,3,1.72l16.52-9.53a6.68,6.68,0,0,0,3-5.22c0-1.91-1.36-2.68-3-1.72l-16.52,9.54a6.63,6.63,0,0,0-3,5.23Z"/><path id="Trazado_89" data-name="Trazado 89" class="cls-14" d="M260,148.65v71.1l-7.78-4.55V143.9Z"/><path id="Trazado_90" data-name="Trazado 90" class="cls-8" d="M260,148.66v71.1l155.13-89V59.5Z"/><path id="Trazado_91" data-name="Trazado 91" class="cls-1" d="M415.14,59.49,260,148.65l-7.75-4.75L407.44,54.81Z"/><path id="Trazado_92" data-name="Trazado 92" class="cls-7" d="M415.14,59.49,260,148.66l-7.75-4.76,7.77,3.67Z"/><path id="Trazado_93" data-name="Trazado 93" class="cls-4" d="M282.73,194v-3l49-27.84v3Z"/><path id="Trazado_94" data-name="Trazado 94" class="cls-4" d="M352.89,107v3L270.6,157.06v-3Z"/><path id="Trazado_95" data-name="Trazado 95" class="cls-4" d="M323.91,148.78l29-16.73v3l-29,16.73Z"/><path id="Trazado_96" data-name="Trazado 96" class="cls-4" d="M304.31,172.65v3l-12,6.48v-3Z"/><path id="Trazado_97" data-name="Trazado 97" class="cls-4" d="M306.16,146.49l46.73-27v3l-46.73,27Z"/><path id="Trazado_98" data-name="Trazado 98" class="cls-4" d="M335.77,135.66l17.12-9.88v3l-17.12,9.88Z"/><path id="Trazado_99" data-name="Trazado 99" class="cls-4" d="M340.13,155l-32.85,19v-3l32.85-19Z"/><path id="Trazado_100" data-name="Trazado 100" class="cls-4" d="M332.8,137.38v3l-46.11,26.19v-3Z"/><path id="Trazado_101" data-name="Trazado 101" class="cls-4" d="M320.94,150.5v3l-23.06,13.31v-3Z"/><path id="Trazado_102" data-name="Trazado 102" class="cls-4" d="M343.1,150.25l9.79-5.65v3l-9.79,5.65Z"/><path id="Trazado_103" data-name="Trazado 103" class="cls-4" d="M303.19,151.22l-32.6,18.38v-3l32.6-18.39Z"/><path id="Trazado_104" data-name="Trazado 104" class="cls-4" d="M283.71,168.31l-13.11,7.57v-3l13.11-7.57Z"/><path id="Trazado_105" data-name="Trazado 105" class="cls-4" d="M352.89,116.25,270.6,163.33v-3l82.29-47.07Z"/><path id="Trazado_106" data-name="Trazado 106" class="cls-4" d="M294.91,168.55l-24.31,13.6v-3l24.31-13.6Z"/><path id="Trazado_107" data-name="Trazado 107" class="cls-4" d="M334.66,161.4l18.23-10.53v3l-18.23,10.53Z"/><path id="Trazado_108" data-name="Trazado 108" class="cls-4" d="M279.76,195.68,270.6,201v-3l9.16-5.29Z"/><path id="Trazado_109" data-name="Trazado 109" class="cls-4" d="M289.36,183.86,270.6,194.7v-3l18.76-10.84Z"/><path id="Trazado_110" data-name="Trazado 110" class="cls-4" d="M352.89,141.35,270.6,188.42v-3l82.29-47.07Z"/><path id="Trazado_111" data-name="Trazado 111" class="cls-14" d="M370.09,95l27.05-15.65c4.73-2.73,8.56.17,8.56,6.48v31.31c0,6.31-3.83,13.64-8.56,16.37l-27.05,15.65c-4.73,2.73-8.57-.17-8.57-6.48V111.39C361.52,105.08,365.36,97.75,370.09,95Z"/><path id="Trazado_112" data-name="Trazado 112" class="cls-15" d="M366.74,146.63,393.8,131c4.73-2.73,8.56-10.06,8.56-16.36V83.3a10.24,10.24,0,0,0-1.06-4.89c2.63.44,4.4,3.14,4.4,7.44v31.31c0,6.31-3.83,13.64-8.56,16.37l-27.06,15.65c-3.23,1.86-6.05,1.1-7.5-1.59A6.28,6.28,0,0,0,366.74,146.63Z"/><path id="Trazado_113" data-name="Trazado 113" class="cls-13" d="M391.1,103.78l27.06-15.65c4.73-2.73,8.56.17,8.56,6.47v31.32c0,6.31-3.83,13.63-8.56,16.36L391.1,157.93c-4.73,2.74-8.56-.16-8.56-6.47V120.14C382.54,113.84,386.37,106.51,391.1,103.78Z"/><path id="Trazado_114" data-name="Trazado 114" class="cls-16" d="M386.69,101.19l27.05-15.65c2-1.17,3.88-1.3,5.35-.58l.05,0,4.68,2.75,0,.06c-1.51-.9-3.48-.84-5.65.41l-27,15.65c-4.73,2.73-8.57,10.06-8.57,16.36v31.32c0,3.06.92,5.31,2.39,6.51l-2.61-1.71a7.72,7.72,0,0,1-4.19-7.39V117.56C378.12,111.25,382,103.92,386.69,101.19Z"/><path id="Trazado_115" data-name="Trazado 115" class="cls-7" d="M390.62,103.38l27.06-15.65c2.35-1.36,4.47-1.32,6-.17a5.78,5.78,0,0,0-5,.73l-27.06,15.65c-4.73,2.73-8.56,10.06-8.56,16.36v31.32c0,3.17,1,5.48,2.54,6.65-2.17-.82-3.58-3.39-3.58-7.21V119.74C382.05,113.44,385.89,106.11,390.62,103.38Z"/><path id="Trazado_116" data-name="Trazado 116" class="cls-4" d="M390.2,113.72v35.85l29.34-16.95V96.77Zm1.88,1.08L417.66,100v31.5L392.08,146.3Z"/><path id="Trazado_117" data-name="Trazado 117" class="cls-4" d="M396.65,120.09c0,2.35,1.66,3.3,3.7,2.12a8.18,8.18,0,0,0,3.71-6.4c0-2.34-1.66-3.29-3.71-2.11A8.15,8.15,0,0,0,396.65,120.09Z"/><path id="Trazado_118" data-name="Trazado 118" class="cls-4" d="M418.56,123.1l-7.64-9.88-7.76,19.63-5.64-4.58-6.23,16.92.12,1.71,27-14.45Z"/><path id="Trazado_119" data-name="Trazado 119" class="cls-12" d="M60.6,124.44c0,4.88,1.68,8.33,4.41,10,.09.05,4.67,2.9,4.76,2.94,2.84,1.59,1-2,5.34-4.51,8.69-5,15.74-17.17,15.74-27.15,0-4.93,4.55-5,1.76-6.61l-5.29-3c-2.83-1.54-6.71-1.26-11,1.21C67.65,102.32,60.6,114.47,60.6,124.44Z"/><path id="Trazado_120" data-name="Trazado 120" class="cls-4" d="M80.73,100c4.17-2.4,8-2.72,10.77-1.32-2.63-.73-5.88-.18-9.41,1.85-8.69,5-15.74,17.17-15.74,27.14,0,5.2,1.92,8.77,5,10.3-3.84-1.08-6.32-4.9-6.32-10.83C65,117.16,72,105,80.73,100Z"/><ellipse id="Elipse_1" data-name="Elipse 1" class="cls-17" cx="81.49" cy="118.44" rx="22.18" ry="12.81" transform="translate(-61.89 128.95) rotate(-59.67)"/><path id="Trazado_121" data-name="Trazado 121" class="cls-18" d="M84.3,112c0,1.4,1,2,2.21,1.26a4.83,4.83,0,0,0,2.21-3.81c0-1.4-1-2-2.21-1.26A4.87,4.87,0,0,0,84.3,112Z"/><path id="Trazado_122" data-name="Trazado 122" class="cls-18" d="M75.36,117.12c0,1.4,1,2,2.21,1.26a4.87,4.87,0,0,0,2.21-3.81c0-1.4-1-2-2.21-1.26A4.85,4.85,0,0,0,75.36,117.12Z"/><path id="Trazado_123" data-name="Trazado 123" class="cls-18" d="M90.39,117.73l-2.06.35A15,15,0,0,1,82,126.86c-2.75,1.59-5.27,1.06-6.27-1.3l-2,2.08c1.32,3.15,4.66,3.84,8.31,1.73S89.13,122.52,90.39,117.73Z"/><path id="Trazado_124" data-name="Trazado 124" class="cls-19" d="M85.87,112.77A4.91,4.91,0,0,0,88.08,109a1.88,1.88,0,0,0-.3-1.08c.57.13.94.67.94,1.53a4.89,4.89,0,0,1-2.21,3.82c-.82.47-1.53.36-1.91-.19A1.78,1.78,0,0,0,85.87,112.77Z"/><path id="Trazado_125" data-name="Trazado 125" class="cls-19" d="M76.92,117.93a4.86,4.86,0,0,0,2.21-3.81,1.81,1.81,0,0,0-.3-1.08c.57.13.94.67.94,1.53a4.82,4.82,0,0,1-2.21,3.81c-.82.48-1.53.37-1.91-.18A1.78,1.78,0,0,0,76.92,117.93Z"/><path id="Trazado_126" data-name="Trazado 126" class="cls-19" d="M75.48,125.81l.25-.25a4,4,0,0,0,1,1.35A3.33,3.33,0,0,1,75.48,125.81Z"/><path id="Trazado_127" data-name="Trazado 127" class="cls-19" d="M81.36,128.92c3.6-2.08,6.85-6.47,8.22-11l.82-.14c-1.26,4.79-4.64,9.47-8.4,11.64-2.75,1.59-5.31,1.58-7,.15C76.67,130.47,78.94,130.31,81.36,128.92Z"/><path id="Trazado_128" data-name="Trazado 128" class="cls-14" d="M68.33,280.85v86.83l-7.77-4.55v-87Z"/><path id="Trazado_129" data-name="Trazado 129" class="cls-8" d="M68.3,280.85v86.83l169.77-97.35v-87Z"/><path id="Trazado_130" data-name="Trazado 130" class="cls-1" d="M238.08,183.29,68.3,280.85l-7.75-4.75,169.83-97.49Z"/><path id="Trazado_131" data-name="Trazado 131" class="cls-7" d="M238.08,183.29,68.3,280.85l-7.75-4.75,7.77,3.67Z"/><ellipse id="Elipse_2" data-name="Elipse 2" class="cls-14" cx="105.25" cy="303.49" rx="37.56" ry="21.68" transform="translate(-209.87 241.19) rotate(-59.69)"/><path id="Trazado_132" data-name="Trazado 132" class="cls-15" d="M102.7,331.83c14.72-8.5,26.65-29.06,26.65-45.95,0-6.3-1.67-11.19-4.51-14.41,4.38,2.92,7,8.65,7,16.64,0,16.88-11.92,37.46-26.64,45.95-9.22,5.33-17.35,4.64-22.13-.77C88,336.53,95,336.3,102.7,331.83Z"/><path id="Trazado_133" data-name="Trazado 133" class="cls-14" d="M180,295.53l5.73-3.31V227.67L180,231Zm-8.25,4.69,5.73-3.31V224.43l-5.73,3.31Zm-8.49,4.85,5.72-3.3V239l-5.72,3.31ZM197,250.17v35.37l5.73-3.31V246.87Zm-8.49,40.22,5.73-3.3V233.73L188.52,237ZM155,309.93l5.73-3.31V256.94l-5.73,3.3Zm-8.17,4.77,5.73-3.31v-34l-5.73,3.31Zm58.73-34.28,5.72-3.31V237.43l-5.72,3.31Zm17-34v24l5.73-3.31v-24ZM214,275.29l5.73-3.31V230.34L214,233.65Z"/><path id="Trazado_134" data-name="Trazado 134" class="cls-2" d="M180,295.53l5.73-3.31V253L180,256.31Zm-8.25,4.69,5.73-3.31V235.18l-5.73,3.31Zm-8.49,4.85,5.72-3.3v-51.3l-5.72,3.31ZM197,258.77v26.77l5.73-3.31V255.46Zm-8.49,31.62,5.73-3.3v-36l-5.73,3.31Zm17-10,5.72-3.31V240.68l-5.72,3.3Zm17-16.95v7l5.73-3.31v-7ZM214,275.28l5.73-3.3V256.87L214,260.18ZM155,309.93l5.73-3.31V266.18L155,269.49Zm-8.17,4.77,5.73-3.31V282.46l-5.73,3.31Z"/><path id="Trazado_135" data-name="Trazado 135" class="cls-4" d="M163.28,254.5l5.73-3.31v-.72l-5.73,3.31Z"/><path id="Trazado_136" data-name="Trazado 136" class="cls-4" d="M171.77,239.2l5.73-3.3v-.72l-5.73,3.31Z"/><path id="Trazado_137" data-name="Trazado 137" class="cls-4" d="M146.78,286.48l5.73-3.3v-.72l-5.73,3.31Z"/><path id="Trazado_138" data-name="Trazado 138" class="cls-4" d="M180,257l5.72-3.3V253L180,256.32Z"/><path id="Trazado_139" data-name="Trazado 139" class="cls-4" d="M155,270.21l5.73-3.31v-.72L155,269.49Z"/><path id="Trazado_140" data-name="Trazado 140" class="cls-4" d="M214,260.89l5.72-3.31v-.72L214,260.17Z"/><path id="Trazado_141" data-name="Trazado 141" class="cls-4" d="M205.5,244.7l5.73-3.31v-.71L205.5,244Z"/><path id="Trazado_142" data-name="Trazado 142" class="cls-4" d="M222.49,263.47v.72l5.73-3.31v-.72Z"/><path id="Trazado_143" data-name="Trazado 143" class="cls-4" d="M188.52,255.13l5.72-3.31v-.72l-5.72,3.31Z"/><path id="Trazado_144" data-name="Trazado 144" class="cls-4" d="M197,259.48l5.73-3.3v-.72L197,258.77Z"/><path id="Trazado_145" data-name="Trazado 145" class="cls-12" d="M131.46,292.2c-.35-12.76-9.63-17.83-21-11.26-5.86,3.38-11.16,9.21-15,15.86l-4.2-1.06c4.78-8.67,11.61-16.32,19.18-20.7,14.32-8.26,26-1.73,26.16,14.56l-3.36,3Z"/><path id="Trazado_146" data-name="Trazado 146" class="cls-12" d="M99.91,332c3.1.29,6.7-.58,10.54-2.8,10.78-6.22,19.68-20.71,20.89-33.41l5.14-2.59c0,.09,1.72.44,1.71.53-1.49,15.81-14.31,33.61-27.73,41.36-4.88,2.82-8.18,4.3-12.09,3.88-.16,0-1.59-.42-1.75-.45Z"/><path id="Trazado_147" data-name="Trazado 147" class="cls-12" d="M93.49,300.66a40,40,0,0,0-4.07,16.56c0,7.63,3.1,12.64,7.93,14.28l-3.25,6.44c-6-2.06-9.82-8.29-9.82-17.75a50,50,0,0,1,5-20.58Z"/><path id="Trazado_148" data-name="Trazado 148" class="cls-12" d="M103.23,311.24a17.8,17.8,0,0,0,3.69-4.42c.61-1,.59-2.13,0-2.47a4.74,4.74,0,0,1-1.89-2.1c-.64.18-1.44-.06-1.44-.95a3.49,3.49,0,0,1,.93-2.39c.16-3.87,1.48-7.84,5.93-10.41a5.55,5.55,0,0,1,3.61-1c.2,0,2,.5,2.14.59,1.21.6.1,1.9.19,4,.53-.12.93.4.93,1.31a4.29,4.29,0,0,1-1.45,2.61,21.74,21.74,0,0,1-1.88,4.28c-.6,1-.62,2.16,0,2.48a4.86,4.86,0,0,0,3.69.15,2.88,2.88,0,0,1,1.54-.06c.13,0,1.72.45,1.84.51.82.41-.12,1-.12,2.42v4a2.7,2.7,0,0,1-1.22,2.11L102.6,323.19c-.3.17-2-.43-2.18-.51a.81.81,0,0,1-.45-.82v-4A9.54,9.54,0,0,1,103.23,311.24Z"/><path id="Trazado_149" data-name="Trazado 149" class="cls-4" d="M132.61,292.53c-.35-12.76-9.63-17.83-21-11.26-5.86,3.38-11.16,9.21-15,15.86l-4.2-1.05c4.78-8.68,11.61-16.33,19.18-20.7,14.32-8.27,26-1.74,26.16,14.55Z"/><path id="Trazado_150" data-name="Trazado 150" class="cls-4" d="M101.06,332.35c3.1.29,6.7-.58,10.54-2.8,10.78-6.22,19.68-20.71,20.89-33.41l5.14-2.59c-1.38,15.87-12.53,34.1-26,41.9-5.08,2.93-9.83,4-13.84,3.43Z"/><path id="Trazado_151" data-name="Trazado 151" class="cls-4" d="M94.64,301a40,40,0,0,0-4.07,16.56c0,7.63,3.1,12.64,7.93,14.28l-3.25,6.44c-6-2.06-9.82-8.29-9.82-17.75a50,50,0,0,1,5-20.58Z"/><path id="Trazado_152" data-name="Trazado 152" class="cls-4" d="M104.38,311.57a18,18,0,0,0,3.69-4.42c.61-1,.59-2.13,0-2.47a4.8,4.8,0,0,1-1.89-2.1c-.64.17-1.44-.06-1.44-.95a3.53,3.53,0,0,1,.93-2.39c.16-3.87,1.48-7.85,5.93-10.42s5.78-.12,5.94,3.57c.53-.12.93.4.93,1.31a4.28,4.28,0,0,1-1.45,2.62,21.16,21.16,0,0,1-1.88,4.28c-.6,1-.62,2.16,0,2.48a4.87,4.87,0,0,0,3.69.15c1.87-.56,3.26.57,3.26,2.87v4a2.67,2.67,0,0,1-1.22,2.1l-18.52,10.69c-.67.39-1.22.08-1.22-.7v-4A9.51,9.51,0,0,1,104.38,311.57Z"/><path id="Trazado_153" data-name="Trazado 153" class="cls-20" d="M133.27,292.7c-.35-12.77-9.63-17.84-21-11.27-5.86,3.38-11.16,9.21-15,15.87l-4.2-1.06c4.78-8.67,11.61-16.33,19.18-20.7,14.32-8.27,26-1.73,26.16,14.55Z"/><path id="Trazado_154" data-name="Trazado 154" class="cls-20" d="M101.71,332.52c3.11.28,6.7-.59,10.55-2.8C123,323.49,131.94,309,133.15,296.3l5.14-2.59c-1.38,15.88-12.53,34.1-26,41.9-5.08,2.93-9.82,4-13.84,3.43Z"/><path id="Trazado_155" data-name="Trazado 155" class="cls-20" d="M95.3,301.15a40.24,40.24,0,0,0-4.08,16.57c0,7.63,3.11,12.63,7.94,14.27l-3.25,6.44c-6-2.05-9.82-8.29-9.82-17.75a50,50,0,0,1,5-20.58Z"/><path id="Trazado_156" data-name="Trazado 156" class="cls-20" d="M105,311.74a18,18,0,0,0,3.69-4.42c.61-1,.59-2.13,0-2.48a4.73,4.73,0,0,1-1.88-2.1c-.65.18-1.45-.06-1.45-.94a3.52,3.52,0,0,1,.94-2.39c.16-3.87,1.48-7.85,5.93-10.42s5.78-.12,5.93,3.57c.54-.12.94.4.94,1.31a4.28,4.28,0,0,1-1.45,2.62,21.4,21.4,0,0,1-1.88,4.27c-.6,1-.62,2.17,0,2.48a4.82,4.82,0,0,0,3.69.16c1.87-.56,3.26.56,3.26,2.87v4a2.68,2.68,0,0,1-1.22,2.1L103,323.05c-.67.39-1.22.07-1.22-.7v-4A9.49,9.49,0,0,1,105,311.74Z"/><path id="Trazado_157" data-name="Trazado 157" class="cls-16" d="M237.13,259v36.36L231,292V255.48Z"/><path id="Trazado_158" data-name="Trazado 158" class="cls-13" d="M237.11,259V295.4l134.55-77.69V181.15Z"/><path id="Trazado_159" data-name="Trazado 159" class="cls-21" d="M371.66,181.15,237.11,259,231,255.48l134.6-77.81Z"/><path id="Trazado_160" data-name="Trazado 160" class="cls-7" d="M371.66,181.15,237.11,259,231,255.48l5.94,2.6Z"/><path id="Trazado_161" data-name="Trazado 161" class="cls-4" d="M244,284.38,365,213.72V192.3L244,263Z"/><path id="Trazado_162" data-name="Trazado 162" class="cls-15" d="M358.3,214.64l-3.37,1.94L353.78,208l0,0-1.16,10-3.16,1.83-1.64-14.39,2.19-1.26,1.14,10.38,0,0,1.2-11.74,2.77-1.6,1.2,10.35.05,0,1.13-11.69,2.45-1.42Z"/><path id="Trazado_163" data-name="Trazado 163" class="cls-15" d="M343.81,223.06,340.44,225l-1.16-8.63,0,0-1.16,10-3.16,1.83-1.64-14.39,2.19-1.27,1.13,10.39,0,0,1.2-11.73,2.77-1.6,1.2,10.34.05,0,1.13-11.7,2.45-1.41Z"/><path id="Trazado_164" data-name="Trazado 164" class="cls-15" d="M329.2,231.37l-3.37,1.95-1.16-8.63-.05,0-1.15,10-3.16,1.83-1.64-14.39,2.19-1.27L322,231.24l0,0,1.2-11.73,2.78-1.6,1.2,10.34,0,0,1.14-11.7,2.44-1.41Z"/><path id="Trazado_165" data-name="Trazado 165" class="cls-12" d="M310.57,71.91V97.26l-3.83-2.1V69.61Z"/><path id="Trazado_166" data-name="Trazado 166" class="cls-17" d="M310.54,71.91V97.26l22.57-13V58.67Z"/><path id="Trazado_167" data-name="Trazado 167" class="cls-20" d="M333.11,58.67,310.54,71.91l-3.8-2.3,22.62-13.17Z"/><path id="Trazado_168" data-name="Trazado 168" class="cls-4" d="M333.11,58.67,310.54,71.91l-3.8-2.3,4,1.08Z"/><path id="Trazado_169" data-name="Trazado 169" class="cls-6" d="M290.72,63.45v41.06l-6.19-3.41V59.72Z"/><path id="Trazado_170" data-name="Trazado 170" class="cls-22" d="M327.22,42,290.68,63.45l-6.15-3.72L321.16,38.4Z"/><path id="Trazado_171" data-name="Trazado 171" class="cls-7" d="M327.22,42,290.68,63.45l-6.15-3.73,6,2.85Z"/><path id="Trazado_172" data-name="Trazado 172" class="cls-5" d="M327.22,42v17L307.88,70.39V94.57l-17.2,9.94V63.45Z"/><path id="Trazado_173" data-name="Trazado 173" class="cls-16" d="M212.6,162.59v28.35l-4.28-2.35V160Z"/><path id="Trazado_174" data-name="Trazado 174" class="cls-13" d="M212.57,162.59v28.35l25.23-14.58V147.8Z"/><path id="Trazado_175" data-name="Trazado 175" class="cls-21" d="M237.8,147.79l-25.23,14.8L208.32,160l25.29-14.72Z"/><path id="Trazado_176" data-name="Trazado 176" class="cls-7" d="M237.8,147.8l-25.23,14.8L208.32,160l4.46,1.21Z"/><path id="Trazado_177" data-name="Trazado 177" class="cls-16" d="M179.48,181.7v28.35l-4.27-2.36V179.12Z"/><path id="Trazado_178" data-name="Trazado 178" class="cls-13" d="M179.45,181.7v28.35l25.24-14.58V166.9Z"/><path id="Trazado_179" data-name="Trazado 179" class="cls-21" d="M204.69,166.9l-25.24,14.8-4.24-2.58L200.5,164.4Z"/><path id="Trazado_180" data-name="Trazado 180" class="cls-7" d="M204.69,166.9l-25.24,14.8-4.24-2.57,4.46,1.2Z"/><path id="Trazado_181" data-name="Trazado 181" class="cls-16" d="M146.58,200.59v28.35l-4.27-2.36V198Z"/><path id="Trazado_182" data-name="Trazado 182" class="cls-13" d="M146.55,200.59v28.35l25.23-14.58V185.79Z"/><path id="Trazado_183" data-name="Trazado 183" class="cls-21" d="M171.78,185.79l-25.23,14.8L142.31,198l25.28-14.72Z"/><path id="Trazado_184" data-name="Trazado 184" class="cls-7" d="M171.78,185.79l-25.23,14.8L142.31,198l4.45,1.21Z"/><path id="Trazado_185" data-name="Trazado 185" class="cls-16" d="M114.1,219.06v28.35l-4.27-2.36V216.49Z"/><path id="Trazado_186" data-name="Trazado 186" class="cls-13" d="M114.07,219.06v28.35l25.23-14.58V204.26Z"/><path id="Trazado_187" data-name="Trazado 187" class="cls-21" d="M139.31,204.26l-25.24,14.8-4.24-2.58,25.29-14.72Z"/><path id="Trazado_188" data-name="Trazado 188" class="cls-7" d="M139.31,204.26l-25.24,14.8-4.24-2.57,4.46,1.2Z"/><path id="Trazado_189" data-name="Trazado 189" class="cls-4" d="M154.13,212.6a11.22,11.22,0,0,0,2.34-2.8c.39-.64.37-1.34,0-1.56a3.06,3.06,0,0,1-1.19-1.33c-.41.11-.92,0-.92-.6a2.22,2.22,0,0,1,.59-1.51,7.44,7.44,0,0,1,3.76-6.6c2.81-1.62,3.65-.07,3.75,2.26.34-.07.59.26.59.83a2.73,2.73,0,0,1-.91,1.66,13.31,13.31,0,0,1-1.2,2.7c-.37.65-.38,1.37,0,1.57a3.06,3.06,0,0,0,2.34.1c1.18-.36,2.06.36,2.06,1.81v2.53a1.7,1.7,0,0,1-.77,1.33l-11.72,6.76c-.42.25-.77.05-.77-.44v-2.52A6,6,0,0,1,154.13,212.6Z"/><path id="Trazado_190" data-name="Trazado 190" class="cls-4" d="M134.75,223.5l-4.1,2.36v7.33l4.1-2.36Zm-6.48-2.37-4.09,2.36v13.44l4.09-2.36Zm-10.57,0v19.55l4.09-2.36V218.75Z"/><path id="Trazado_191" data-name="Trazado 191" class="cls-4" d="M185.57,193.68l-1.93,2.47a5.86,5.86,0,0,0,.87,1.92l2.2-1.88a3,3,0,0,0,1.37.78l-.53,2.83a5.78,5.78,0,0,0,2.11-.21l1.19-2.9a7.85,7.85,0,0,0,1-.47,7.71,7.71,0,0,0,1-.65L194,197.1a17,17,0,0,0,2.11-2.22l-.53-2.22a15.09,15.09,0,0,0,1.37-2.36l2.2-.67a17.82,17.82,0,0,0,.88-2.92l-1.94-.25a11.11,11.11,0,0,0,.09-1.16,7.45,7.45,0,0,0-.09-1.06l1.94-2.48a5.93,5.93,0,0,0-.88-1.91l-2.2,1.87a3.13,3.13,0,0,0-1.37-.78l.53-2.83a6,6,0,0,0-2.11.21l-1.19,2.9a8.52,8.52,0,0,0-1,.47,9.11,9.11,0,0,0-1,.65l-1.19-1.53a17.74,17.74,0,0,0-2.11,2.22l.53,2.22a15.92,15.92,0,0,0-1.37,2.36l-2.2.67a16.86,16.86,0,0,0-.87,2.92l1.93.25a11.11,11.11,0,0,0-.09,1.16A7.72,7.72,0,0,0,185.57,193.68Zm3.71-3.26a5.59,5.59,0,0,1,2.54-4.38c1.4-.81,2.54-.16,2.54,1.45a5.59,5.59,0,0,1-2.54,4.38c-1.41.81-2.55.17-2.55-1.45Z"/><path id="Trazado_192" data-name="Trazado 192" class="cls-4" d="M233.12,159.07,225,171.76l-8.12-3.31h0a3.11,3.11,0,0,1,1-.94l14.33-8.28a1.21,1.21,0,0,1,1-.17Z"/><path id="Trazado_193" data-name="Trazado 193" class="cls-4" d="M216.24,170.27V180c0,1,.72,1.42,1.6.91l14.33-8.27a3.52,3.52,0,0,0,1.59-2.75v-9.71a1,1,0,0,0-.61-1.07l-5.41,9.32,5.41,3.09,0,0-5.81-2.37-2.31,4-8.15-4.64A3.34,3.34,0,0,0,216.24,170.27Zm.61,10.63,5.41-9.33.43.25-5.81,9.08Z"/><path id="Trazado_194" data-name="Trazado 194" class="cls-14" d="M339.68,245.47v36.36l-5.74-3.26V242Z"/><path id="Trazado_195" data-name="Trazado 195" class="cls-8" d="M339.65,245.48v36.36l97.64-56.36V188.91Z"/><path id="Trazado_196" data-name="Trazado 196" class="cls-1" d="M437.29,188.91l-97.64,56.56L333.94,242l97.7-56.49Z"/><path id="Trazado_197" data-name="Trazado 197" class="cls-7" d="M437.29,188.91l-97.64,56.57L333.94,242l5.94,2.38Z"/><path id="Trazado_198" data-name="Trazado 198" class="cls-4" d="M397.58,220.13v12.09c0,1.26.89,1.76,2,1.13l1.12-.64v6.4l5.58-9.62L417.41,223a4.33,4.33,0,0,0,2-3.42V207.53c0-1.25-.88-1.76-2-1.13l-17.85,10.31A4.37,4.37,0,0,0,397.58,220.13Zm14.57-3.57c.58-1,1.52-1.55,2.1-1.22s.58,1.42,0,2.42-1.53,1.54-2.1,1.21S411.57,217.56,412.15,216.56Zm-4.84,2.79c.58-1,1.52-1.55,2.1-1.21s.58,1.41,0,2.41-1.52,1.55-2.1,1.21-.58-1.41,0-2.41Zm-4.83,2.79c.58-1,1.52-1.54,2.1-1.21s.58,1.41,0,2.41-1.53,1.55-2.1,1.22-.58-1.42,0-2.42Zm14.93,2.61-9.54,5.51v.57c0,1.26.89,1.77,2,1.13L421,225.52l5.58,3.18v-6.4l1.11-.64a4.38,4.38,0,0,0,2-3.42v-12.1c0-1.25-.89-1.76-2-1.13L420.88,209v9.81a7.62,7.62,0,0,1-3.47,6Z"/><path id="Trazado_199" data-name="Trazado 199" class="cls-4" d="M393.52,222.79v3l-46.65,26.93v-3Z"/><path id="Trazado_200" data-name="Trazado 200" class="cls-4" d="M361.62,253.77l31.9-18.43v3l-31.9,18.43Z"/><path id="Trazado_201" data-name="Trazado 201" class="cls-4" d="M393.52,232.08,346.87,259v-3l46.65-26.94Z"/><path id="Trazado_203" data-name="Trazado 203" class="cls-11" d="M274.71,318.13a6.94,6.94,0,1,0,9.4-2.81h0A6.94,6.94,0,0,0,274.71,318.13Z"/><path id="Trazado_204" data-name="Trazado 204" class="cls-15" d="M296.67,274.49l15,8.1-22.42,41.35h0s0,0,0,.06c-1.3,2.42-5.72,2.57-9.87.33s-6.45-6-5.15-8.42l0-.06h0Z"/><path id="Trazado_205" data-name="Trazado 205" class="cls-14" d="M296.66,274.52c-1.3,2.42,1,6.19,5.15,8.43s8.57,2.09,9.87-.33-1-6.19-5.15-8.42S298,272.11,296.66,274.52Z"/><path id="Trazado_206" data-name="Trazado 206" class="cls-11" d="M306.51,263.52l8.94,4.82-6.36,11.79h0v0c-.78,1.44-3.4,1.52-5.88.19s-3.84-3.57-3.06-5l0,0h0Z"/><path id="Trazado_207" data-name="Trazado 207" class="cls-1" d="M331.74,168.72c11.13-6.42,21.22-7.16,28.6-3.16.21.11,10.8,6,11.14,6.54-7.51-5.67-18.64-5.58-31.05,1.58-22.63,13.07-41,44.7-41,70.67,0,13.25,4.77,22.46,12.46,26.57a9.15,9.15,0,0,1-2-.88c-.22-.12-7.44-4.5-7.66-4.63-7.11-4.35-11.49-13.33-11.49-26C290.77,213.43,309.11,181.79,331.74,168.72Z"/><path id="Trazado_208" data-name="Trazado 208" class="cls-3" d="M299.46,244.35c0,26,18.34,36.43,41,23.36s41-44.7,41-70.67-18.34-36.42-41-23.36S299.46,218.38,299.46,244.35Zm6.82-2.66c0-22,15.56-48.89,34.77-60s34.76-2.21,34.76,19.82-15.56,48.89-34.76,60S306.28,263.72,306.28,241.69Z"/><path id="Trazado_209" data-name="Trazado 209" class="cls-1" d="M333.85,257.49c19.2-11.09,34.77-37.94,34.77-60,0-9-2.59-15.78-7-19.93,8.58,2.31,14.15,10.77,14.15,23.95,0,22-15.56,48.89-34.76,60-11.37,6.57-21.47,6.13-27.81.11C319,263.17,326.13,262,333.85,257.49Z"/><path id="Trazado_210" data-name="Trazado 210" class="cls-4" d="M338.47,172.7c10.84-6.26,20.7-7.11,28-3.44-6.83-1.91-16.88-.88-26.07,4.42-22.63,13.07-41,44.7-41,70.67,0,13.52,6.55,23.22,14.51,27.2-10-2.8-16.48-12.75-16.48-28.18C297.49,217.4,315.84,185.76,338.47,172.7Z"/></g></svg>